<?xml version="1.0" encoding="utf-8"?>
<!-- Generator: Adobe Illustrator 25.4.1, SVG Export Plug-In . SVG Version: 6.00 Build 0)  -->
<svg version="1.1" id="Ebene_1" xmlns="http://www.w3.org/2000/svg" xmlns:xlink="http://www.w3.org/1999/xlink" x="0px" y="0px"
	 viewBox="0 0 256 186" style="enable-background:new 0 0 256 186;" xml:space="preserve">
<style type="text/css">
	.st0{fill:#3F250F;}
	.st1{fill:#231105;}
	.st2{opacity:8.000000e-02;}
	.st3{fill:#FFFFFF;}
</style>
<g id="Ebene_2_00000158024638345538980280000016344184112874194821_">
	<g id="Ebene_1-2">
		<path class="st0" d="M13,1.5h230c6.4,0,11.5,5.1,11.5,11.5v160c0,6.4-5.1,11.5-11.5,11.5H13c-6.4,0-11.5-5.1-11.5-11.5V13
			C1.5,6.6,6.6,1.5,13,1.5z"/>
		<path class="st1" d="M243,3c5.5,0,10,4.5,10,10v160c0,5.5-4.5,10-10,10H13c-5.5,0-10-4.5-10-10V13C3,7.5,7.5,3,13,3H243 M243,0H13
			C5.8,0,0,5.8,0,13v160c0,7.2,5.8,13,13,13l0,0h230c7.2,0,13-5.8,13-13l0,0V13C256,5.8,250.2,0,243,0z"/>
		<g class="st2">
			<path class="st3" d="M253,21.3c0,0-10.5-11.9-72.4-10.2C113.4,12.9,65.9,8,28.7,5.4C12.2,4.3,3,13,3,13C3,8.2,6.5,3,13.7,3h228.6
				c5.5-0.4,10.3,3.7,10.7,9.2c0,0.3,0,0.5,0,0.8V21.3z"/>
		</g>
	</g>
</g>
</svg>
