<svg id="Graphic_Elements" data-name="Graphic Elements" xmlns="http://www.w3.org/2000/svg" viewBox="0 0 64 72"><defs><style>.cls-1,.cls-6{fill:#ce702b;}.cls-2{fill:#debe6b;}.cls-3,.cls-7{fill:#9d4c1c;}.cls-3{opacity:0.88;}.cls-4{fill:#edb956;opacity:0.61;}.cls-5{fill:#f3d591;}.cls-6{opacity:0.63;}.cls-8,.cls-9{fill:#763713;}.cls-9{opacity:0.91;}</style></defs><path class="cls-1" d="M15.74,26.4c.24-1.06.5-2.16.79-3.26,0-.05,0-.09,0-.14.14-.55.3-1.1.46-1.64,0-.13.07-.25.11-.37.15-.5.31-1,.48-1.48l.12-.35c.21-.59.42-1.17.66-1.74h0a23.78,23.78,0,0,1,1.42-2.91,6.19,6.19,0,0,1-2.5,0c-.3-.08-2.08-1.27-2.1-1.27l-.25.12a22.64,22.64,0,0,0-2,4.25c-.15.41-.28.83-.4,1.25,0,.11-.06.23-.1.34-.11.43-.22.87-.31,1.31a2,2,0,0,0,0,.24,21.36,21.36,0,0,0-.37,3.09h0a21.61,21.61,0,0,0,.14,3.58c.35,3,1,5.85,1,8.81a.45.45,0,0,1,.63.28.94.94,0,0,0,.16.23h0a.87.87,0,0,0,.1.08c1-.76,1.09-3.49,1.23-4.71A54.31,54.31,0,0,1,15.74,26.4Zm1.38-11.09.05-.05a.54.54,0,1,1,.4,1H17.5A.52.52,0,0,1,17.12,15.31ZM16.22,18a6.62,6.62,0,0,1,2.1-2,.06.06,0,0,1,.08.08c-.11.19-.21.38-.31.58a.37.37,0,0,1,.23.31c.09.82-1.42,4.11-2.51,2.92C15.25,19.32,15.87,18.54,16.22,18Zm-3.72,3.7a16,16,0,0,1,1.38-5.33c.14-.24,1.94-3.45,1.59-2.4-.85,2.52.08,3.89-.27,5.35a5.23,5.23,0,0,1-2.11,3.09C12.36,23.07,12.4,22.61,12.5,21.72Zm2.92-1.09a.3.3,0,0,1-.55.23A.3.3,0,0,1,15.42,20.63Zm.4.48c.62-.75-.28,2-.59,2.93-.41,1.28-.72,2.55-1,3.87s-1.41,1.89-1.3.48-.46-2.72-.49-4.08C12.42,23.28,15.29,21.77,15.82,21.11ZM14,36c-.17.5-.27.62-.46.16-.64-1.58-.32-4-1-6.31-.11-.35,1.19,1.41,1.18,1.71,0,.1,0,.19,0,.29a.25.25,0,0,1,.39.1.26.26,0,0,1-.36.33c.08.66.24,1.31.31,2A3,3,0,0,1,14,36Zm-.51-5.62a.48.48,0,0,1,.88-.37A.48.48,0,0,1,13.47,30.35Zm.87-1.88a36.19,36.19,0,0,1,2.07-6.89.09.09,0,0,1,.17,0,34.17,34.17,0,0,1-1.72,7A.27.27,0,0,1,14.34,28.47Z"/><path class="cls-1" d="M26.51,39.26c0-.34-.05-.65-.07-.95C26.46,38.63,26.48,39,26.51,39.26Z"/><path class="cls-1" d="M30.65,37.5a5.2,5.2,0,0,1-.51,1c-.37.56-.32-1.29-.28-1.88a21.82,21.82,0,0,1,2.58-8.14c.35-.68-.07,1-.12,1.09a10.07,10.07,0,0,0-.75,3.09c.37-1.33.8-2.64,1.18-4,.09-.29.18-.58.26-.87h0c.15-.55.29-1.1.41-1.65,0-.2.08-.42.13-.64-.22.82-.36,1.65-1.17,1.91s-.61-2.83,0-3.43a4.87,4.87,0,0,0,1.28-2.56,21.62,21.62,0,0,1,0,3.4,10,10,0,0,0-.16-5.24c-.22-.51-.54-1.5-1.31-1.2l0,0c-2,.69-3.29,2.56-4.13,4.8-.21.58-.4,1.17-.56,1.78,0,.06,0,.13,0,.19q-.26,1-.42,2h0a54.93,54.93,0,0,0-.63,5.69,39.71,39.71,0,0,0,0,5,6.11,6.11,0,0,1,0-1c.11-.7,1.17,2,1.47,3.56a6.53,6.53,0,0,0-.11-1A22.07,22.07,0,0,1,27.05,35c.07-.92.81-1,1.79-2.53.33-.54.64-1,.88-.5.58,1.18-.65,7.1-1.39,8.15-.31.45-.4.52-.43.38,0,.18.05.34.06.49.05.74.4,2.21.36,2.28-.18.32-.36,1.51-.6,1.85h.05C29,45.29,30,41.1,30.65,37.5Zm-.2-7.21A.35.35,0,0,1,31.1,30,.35.35,0,0,1,30.45,30.29Zm.82-1a.15.15,0,0,1,.28-.11A.15.15,0,0,1,31.27,29.25ZM32.06,28l0,0a.31.31,0,0,1,.16.39v.06a.36.36,0,0,1-.66,0A.36.36,0,0,1,32.06,28Zm-2.77,3.39c-1.2.63-1.66.87-2.48,3-.11.3-.83-2.59.48-4.31,0,0,.91-1.26,1.41-1.46.32-.12.25.07.42.6C29.63,30.79,29.66,31.23,29.29,31.43Zm.55-1c-.11-1-1.92-4.43-1.32-5.5-.42.74-.85,1.54-.91,1.7s0-.73.1-1.12c1-3.58,2.37-6.07,4.54-6.84.7-.26.42,1.25.17,1.74l-.07.12c.47,0,.73.91.31,2-.58,1.51-1.08,3-1.51,4.55C30.82,28.25,30,31.58,29.84,30.4Zm0,8.53a.45.45,0,0,1-.83.35A.45.45,0,0,1,29.85,38.93Zm-.59,1.29a.44.44,0,0,1-.82.34A.44.44,0,0,1,29.26,40.22Zm-1,1.62a.12.12,0,0,1,.22-.1C28.57,41.88,28.35,42,28.29,41.84Z"/><path class="cls-1" d="M28.59,24.78c.69-1,1.65-1.77,2.41-2.69-.58.54-1.2,1-1.7,1.55A10.35,10.35,0,0,0,28.59,24.78Z"/><path class="cls-1" d="M46.37,30.5a.36.36,0,0,1-.56.41,26.28,26.28,0,0,1-3.76,7.49c-.71.9-.53.13-.46-1a5.88,5.88,0,0,1,.12-.69A26.53,26.53,0,0,0,40.77,40c.17,0,.51,1.75.65,2.1.48,1.14.07,3.67.15,4.9s1.49-.7,1.11.45c-.21.67-1.36,3.86-1.61,3.28a21.11,21.11,0,0,1-.79-5.61c0-.67,0-1.91.13-3a24.76,24.76,0,0,0,1,10.4.59.59,0,0,1,.83.38c-1.08-2.87,1.44-7.63,2.54-10.12a26.85,26.85,0,0,0,1.4-4c.16-.63.3-1.26.41-1.89l.09-.52c.08-.51.15-1,.2-1.52A46.87,46.87,0,0,0,47,28.07c-.09.17-.2.35-.33.56s-.33.48-.5.72-.11.61-.2.95A.32.32,0,0,1,46.37,30.5Zm-3.7,8.59.09.06a.24.24,0,0,1-.18.43h-.1C42,39.51,42.32,38.81,42.67,39.09Zm-.43,6.3,0,0a.23.23,0,0,1,.05.25v.05a.33.33,0,0,1-.61,0,.34.34,0,0,1,.23-.45,4.63,4.63,0,0,0,0-.54,17.13,17.13,0,0,1,0-3.65c.18-.73.78-.65,1.78-1.79.34-.39.64-.7.77-.28C44.77,40,43,44.64,42.24,45.39Zm1.56-6.72a.24.24,0,0,1,.44-.18A.24.24,0,0,1,43.8,38.67ZM46,39c-.22,1.83-2.6,6.19-3,7.5-.21.66-.07-.73,0-1.33.08-1.85,2.42-4.21,1.92-6-.34-1.24-.66-.76.73-1.8.16-.2.81-1.38,1-1.58S46.07,38.75,46,39Zm-2.77-.39c-.57.73.25-1.82.53-2.73.37-1.2,1.51-2.42,1.76-3.65s.46-1.78.38-.48.47,2.48.51,3.73C46.48,36.45,43.77,38,43.27,38.63Z"/><path class="cls-1" d="M43.58,32.87l.16-.23Z"/><path class="cls-2" d="M31.15,27.07c.43-1.56.93-3,1.51-4.55.42-1.11.16-2.06-.31-2A6.92,6.92,0,0,1,31,22.09c-.76.92-1.72,1.71-2.41,2.69l-.07.12c-.6,1.07,1.21,4.49,1.32,5.5C30,31.58,30.82,28.25,31.15,27.07Z"/><path class="cls-1" d="M42.56,34.71h0c-.32.66-.59,1.35-.85,2a5.88,5.88,0,0,0-.12.69c-.07,1.09-.25,1.86.46,1a26.28,26.28,0,0,0,3.76-7.49.32.32,0,0,1-.1-.13A.34.34,0,0,1,46,30.3c.09-.34.15-.65.2-.95-.79,1.14-1.67,2.16-2.45,3.29l-.16.23a12.49,12.49,0,0,0-.84,1.43C42.67,34.44,42.62,34.57,42.56,34.71Z"/><path class="cls-3" d="M42.56,34.71h0c-.32.66-.59,1.35-.85,2a5.88,5.88,0,0,0-.12.69c-.07,1.09-.25,1.86.46,1a26.28,26.28,0,0,0,3.76-7.49.32.32,0,0,1-.1-.13A.34.34,0,0,1,46,30.3c.09-.34.15-.65.2-.95-.79,1.14-1.67,2.16-2.45,3.29l-.16.23a12.49,12.49,0,0,0-.84,1.43C42.67,34.44,42.62,34.57,42.56,34.71Z"/><path class="cls-1" d="M26.51,39.26c0-.31-.05-.63-.07-.95l0-.47a39.71,39.71,0,0,1,0-5A54.93,54.93,0,0,1,27,27.15a2.47,2.47,0,0,0-.36-.19,3.11,3.11,0,0,1-1.9-2.42,2.59,2.59,0,0,0-3.5-2c-1.62.5-3.47,2.32-5.2,2.45.15-.61.31-1.24.47-1.86-.29,1.1-.55,2.2-.79,3.26A54.31,54.31,0,0,0,15,32.09c-.14,1.22-.19,3.95-1.23,4.71l.13-.12a4.18,4.18,0,0,0,.61-.15,11.41,11.41,0,0,0,1.09,2.93,16.1,16.1,0,0,0,4.71,5.24c2.67,1.86,5.21,1.8,7.27.45a.13.13,0,0,1-.11-.06C27.11,44.62,26.7,41.55,26.51,39.26ZM15,37a.45.45,0,0,1,.83-.34A.45.45,0,0,1,15,37Zm2.84-.33.08,0a.4.4,0,0,1,.51.21l0,.07c.21.37-.27.77-.62.62S17.41,36.77,17.82,36.65ZM17.3,35c.11.28-.33.47-.44.18A.24.24,0,0,1,17.3,35Zm-.65,1.23a.35.35,0,0,1,.65-.28A.35.35,0,0,1,16.65,36.2Zm.82,3.71a.71.71,0,0,1,1.31-.55A.71.71,0,0,1,17.47,39.91Zm.94,2.91a.36.36,0,0,1-.09-.61l.08-.06a.3.3,0,0,1,.48.19v.1A.35.35,0,0,1,18.41,42.82Zm.75-6.91a.39.39,0,0,1,.72-.3A.39.39,0,0,1,19.16,35.91Zm.74,4.36s.05-.06.06,0A0,0,0,0,1,19.9,40.27Zm.45,3.79a.45.45,0,0,1,.82-.35A.45.45,0,0,1,20.35,44.06Zm.86-2.87a.45.45,0,0,1,.83-.35A.45.45,0,0,1,21.21,41.19ZM23.28,44a.3.3,0,0,1-.51.07L22.71,44a.25.25,0,0,1,.16-.39H23A.3.3,0,0,1,23.28,44Z"/><path class="cls-4" d="M26.51,39.26c0-.31-.05-.63-.07-.95l0-.47a39.71,39.71,0,0,1,0-5A54.93,54.93,0,0,1,27,27.15a2.47,2.47,0,0,0-.36-.19,3.11,3.11,0,0,1-1.9-2.42,2.59,2.59,0,0,0-3.5-2c-1.62.5-3.47,2.32-5.2,2.45.15-.61.31-1.24.47-1.86-.29,1.1-.55,2.2-.79,3.26A54.31,54.31,0,0,0,15,32.09c-.14,1.22-.19,3.95-1.23,4.71l.13-.12a4.18,4.18,0,0,0,.61-.15,11.41,11.41,0,0,0,1.09,2.93,16.1,16.1,0,0,0,4.71,5.24c2.67,1.86,5.21,1.8,7.27.45a.13.13,0,0,1-.11-.06C27.11,44.62,26.7,41.55,26.51,39.26ZM15,37a.45.45,0,0,1,.83-.34A.45.45,0,0,1,15,37Zm2.84-.33.08,0a.4.4,0,0,1,.51.21l0,.07c.21.37-.27.77-.62.62S17.41,36.77,17.82,36.65ZM17.3,35c.11.28-.33.47-.44.18A.24.24,0,0,1,17.3,35Zm-.65,1.23a.35.35,0,0,1,.65-.28A.35.35,0,0,1,16.65,36.2Zm.82,3.71a.71.71,0,0,1,1.31-.55A.71.71,0,0,1,17.47,39.91Zm.94,2.91a.36.36,0,0,1-.09-.61l.08-.06a.3.3,0,0,1,.48.19v.1A.35.35,0,0,1,18.41,42.82Zm.75-6.91a.39.39,0,0,1,.72-.3A.39.39,0,0,1,19.16,35.91Zm.74,4.36s.05-.06.06,0A0,0,0,0,1,19.9,40.27Zm.45,3.79a.45.45,0,0,1,.82-.35A.45.45,0,0,1,20.35,44.06Zm.86-2.87a.45.45,0,0,1,.83-.35A.45.45,0,0,1,21.21,41.19ZM23.28,44a.3.3,0,0,1-.51.07L22.71,44a.25.25,0,0,1,.16-.39H23A.3.3,0,0,1,23.28,44Z"/><path class="cls-1" d="M7.46,16.73a22.85,22.85,0,0,1,1.87-2A22.85,22.85,0,0,0,7.46,16.73Z"/><path class="cls-4" d="M7.46,16.73a22.85,22.85,0,0,1,1.87-2A22.85,22.85,0,0,0,7.46,16.73Z"/><path class="cls-1" d="M27.48,25c0,.06,0,.13,0,.19S27.47,25,27.48,25Z"/><path class="cls-4" d="M27.48,25c0,.06,0,.13,0,.19S27.47,25,27.48,25Z"/><path class="cls-1" d="M17.14,21c.15-.5.31-1,.48-1.48C17.45,20,17.29,20.49,17.14,21Z"/><path class="cls-4" d="M17.14,21c.15-.5.31-1,.48-1.48C17.45,20,17.29,20.49,17.14,21Z"/><path class="cls-1" d="M16.57,23c.14-.55.3-1.1.46-1.64C16.87,21.9,16.71,22.45,16.57,23Z"/><path class="cls-4" d="M16.57,23c.14-.55.3-1.1.46-1.64C16.87,21.9,16.71,22.45,16.57,23Z"/><path class="cls-1" d="M9.4,14.63c.34-.32.69-.63,1.06-.93C10.09,14,9.74,14.31,9.4,14.63Z"/><path class="cls-4" d="M9.4,14.63c.34-.32.69-.63,1.06-.93C10.09,14,9.74,14.31,9.4,14.63Z"/><path class="cls-1" d="M6.44,18.06c.28-.38.56-.75.84-1.1C7,17.31,6.72,17.68,6.44,18.06Z"/><path class="cls-4" d="M6.44,18.06c.28-.38.56-.75.84-1.1C7,17.31,6.72,17.68,6.44,18.06Z"/><path class="cls-1" d="M12.13,20.48a2,2,0,0,0,0,.24A2,2,0,0,1,12.13,20.48Z"/><path class="cls-4" d="M12.13,20.48a2,2,0,0,0,0,.24A2,2,0,0,1,12.13,20.48Z"/><path class="cls-1" d="M7,26.64a.45.45,0,0,1,.48.27.48.48,0,0,1-.43.66c.2,3.06,1,6.53,3.67,8.32a4.51,4.51,0,0,0,2.95.83.94.94,0,0,1-.16-.23.45.45,0,0,0-.63-.28c-.06-3-.67-5.82-1-8.81a21.61,21.61,0,0,1-.14-3.58,15.5,15.5,0,0,0-4.3.73,6.17,6.17,0,0,1,1.51-4,13.16,13.16,0,0,1,1.94-1.79c.37-.28,2-1,2.14-1.34,0,.07,0,.14-.07.2a22.64,22.64,0,0,1,2-4.25l.25-.12s1.8,1.19,2.1,1.27a6.19,6.19,0,0,0,2.5,0,23.78,23.78,0,0,0-1.42,2.91,2.63,2.63,0,0,0,2.38-.18c1-.61,2.65-1.91,3.94-1.49,1.8.58,2,3.52,2.4,5a11.76,11.76,0,0,0,1,2.29s0,.1-.05.14c.84-2.24,2.12-4.11,4.13-4.8l0,0c.77-.3,1.09.69,1.31,1.2a10,10,0,0,1,.16,5.24,3.37,3.37,0,0,1-.07.48,1.46,1.46,0,0,0-.05.2c0,.22-.09.44-.13.64-.12.55-.26,1.1-.41,1.65.06-.24,3.67-.31,4.07-.35a5,5,0,0,1,3.36.52c1.93,1.29,3.26,4,2.37,6.14.24-.42.5-.83.77-1.23l.16-.23c.84-1.22,1.74-2.38,2.36-3.34.18-.28.16-.35.11,0a.24.24,0,0,1,0,.08c.17-.24.35-.46.5-.72s.24-.39.33-.56a46.87,46.87,0,0,1-.14,6.76c0-.11,0-.22,0-.33a.91.91,0,0,0,.17-.09c2.4,1.36,5.35,1.27,7.39,3.38,2.83,2.94,3.16,7.59,3.23,11.6-.87-1-1.07-2.46-1.6-4a11.71,11.71,0,0,0-2.79-4.65,7.69,7.69,0,0,0-7.17-1.89l0-.11a26.85,26.85,0,0,1-1.4,4c-1.1,2.49-3.62,7.25-2.54,10.12a.59.59,0,0,0-.83-.38,24.76,24.76,0,0,1-1-10.4,11.37,11.37,0,0,1,.32-2,0,0,0,0,1,0,0,26.53,26.53,0,0,1,.94-3.27,8.51,8.51,0,0,1,.8-2.1,5.8,5.8,0,0,0-3.88-2.48c-1.72-.21-2.78.91-4.28,1.47-.91.34-1,.4-1.32-.49a2.18,2.18,0,0,0-1.2-1.38c.3-1,.62-2.07.92-3.11-.38,1.32-.81,2.63-1.18,4a17.8,17.8,0,0,1-.92,4.88C30,41.1,29,45.29,27.77,45.08h.05a14.57,14.57,0,0,0,5.4,7.82c2.55,2,5.34,2.41,7.24.92A7.07,7.07,0,0,0,46,56.91c5.23.26,9.68-3.8,12.75-7.94a16,16,0,0,0,.92-8.9A18.82,18.82,0,0,0,54.76,31c-1.14-1.21-5.46-5.28-7.43-3.89-.86-3.58-5.78-5.84-8.67-7.41a10.65,10.65,0,0,0-2.41-1.3c-.63-.12-1.94.64-2.55.33a16.38,16.38,0,0,1-1.1-1.79c-2.78-1.9-6.3-4.78-9.7-5.4-1.56-.29-3,.53-4.55.68-1,.11-1.76-.74-2.7-.95-1.18-.26-2.25.56-3.24,1.15a16.66,16.66,0,0,0-1.95,1.33,25.24,25.24,0,0,0-2.2,3.8C7,20.35,6.89,23.56,7,26.64Zm1.4,5.68A.36.36,0,0,1,9.06,32,.36.36,0,0,1,8.4,32.32ZM11.46,34a.24.24,0,0,1-.44.19A.24.24,0,0,1,11.46,34Zm-.35-2.36a.27.27,0,0,1-.5.21A.27.27,0,0,1,11.11,31.61ZM10,32.94c.11.29-.33.47-.44.19A.24.24,0,0,1,10,32.94Zm-.7-3a.59.59,0,0,1-1.09.46A.59.59,0,0,1,9.3,30Zm-1-1.58a.39.39,0,0,1-.71.3A.39.39,0,0,1,8.33,28.37ZM30,47.51a.48.48,0,0,1,.88-.37A.48.48,0,0,1,30,47.51Zm1.06,2.23a.36.36,0,0,1,.66-.28A.36.36,0,0,1,31.08,49.74Zm1.11,1.52a.48.48,0,0,1,.88-.37A.48.48,0,0,1,32.19,51.26Zm1.49-3.14a.75.75,0,0,1,1.38-.57A.75.75,0,0,1,33.68,48.12Zm1,5.1a.48.48,0,0,1,.88-.37A.48.48,0,0,1,34.72,53.22ZM35.58,51a.58.58,0,1,1,.3-.76A.59.59,0,0,1,35.58,51Zm1.08,2.63a.51.51,0,0,1,.94-.39A.51.51,0,0,1,36.66,53.61Zm6.93,1.11-.06.05c-.29.3-.59-.42-.18-.42h.08A.21.21,0,0,1,43.59,54.72Zm.32,1.12a.24.24,0,0,1,.44-.19A.24.24,0,0,1,43.91,55.84Zm1.53-.22a.56.56,0,0,1,1-.44A.56.56,0,0,1,45.44,55.62Zm.14-2.82a1.1,1.1,0,0,1,2-.86A1.1,1.1,0,0,1,45.58,52.8Zm2.1,3.09a.51.51,0,0,1,.94-.4A.51.51,0,0,1,47.68,55.89Zm1.88-.19a.68.68,0,0,1,1.26-.53A.68.68,0,0,1,49.56,55.7Zm-.25-27h.11c.44.05.16.75-.2.48l-.08-.06A.24.24,0,0,1,49.31,28.69ZM48.3,34c.22-.79.12-1.76.26-2.56a2.79,2.79,0,0,1,.69-1.66s.15,0,.13,0c-.47.92.26,2.89,0,3.71S48.18,34.48,48.3,34ZM36.84,20.82c.13-.13.34.13.23.27S36.64,21,36.84,20.82Zm-.4,1.56c.09-.7.35-1.06.5-.45.07.29.81,1.52.37,2.22-.23.38-1.11,1.16-1,.17C36.35,23.8,36.38,22.9,36.44,22.38ZM23.53,12.49c-.06-.15,0-.27.09-.12.45.73,1.17,1.71.87,2.53-.1.29-1.1.07-1-.23A3.7,3.7,0,0,0,23.53,12.49ZM12.38,14.73c.48-1.68,1.2-2.71,3.06-3,.06,0,.1.07.05.1-1.36.89-1.9,2.46-2.58,3.85C12.68,16.14,12.24,15.21,12.38,14.73Z"/><path class="cls-4" d="M7,26.64a.45.45,0,0,1,.48.27.48.48,0,0,1-.43.66c.2,3.06,1,6.53,3.67,8.32a4.51,4.51,0,0,0,2.95.83.94.94,0,0,1-.16-.23.45.45,0,0,0-.63-.28c-.06-3-.67-5.82-1-8.81a21.61,21.61,0,0,1-.14-3.58,15.5,15.5,0,0,0-4.3.73,6.17,6.17,0,0,1,1.51-4,13.16,13.16,0,0,1,1.94-1.79c.37-.28,2-1,2.14-1.34,0,.07,0,.14-.07.2a22.64,22.64,0,0,1,2-4.25l.25-.12s1.8,1.19,2.1,1.27a6.19,6.19,0,0,0,2.5,0,23.78,23.78,0,0,0-1.42,2.91,2.63,2.63,0,0,0,2.38-.18c1-.61,2.65-1.91,3.94-1.49,1.8.58,2,3.52,2.4,5a11.76,11.76,0,0,0,1,2.29s0,.1-.05.14c.84-2.24,2.12-4.11,4.13-4.8l0,0c.77-.3,1.09.69,1.31,1.2a10,10,0,0,1,.16,5.24,3.37,3.37,0,0,1-.07.48,1.46,1.46,0,0,0-.05.2c0,.22-.09.44-.13.64-.12.55-.26,1.1-.41,1.65.06-.24,3.67-.31,4.07-.35a5,5,0,0,1,3.36.52c1.93,1.29,3.26,4,2.37,6.14.24-.42.5-.83.77-1.23l.16-.23c.84-1.22,1.74-2.38,2.36-3.34.18-.28.16-.35.11,0a.24.24,0,0,1,0,.08c.17-.24.35-.46.5-.72s.24-.39.33-.56a46.87,46.87,0,0,1-.14,6.76c0-.11,0-.22,0-.33a.91.91,0,0,0,.17-.09c2.4,1.36,5.35,1.27,7.39,3.38,2.83,2.94,3.16,7.59,3.23,11.6-.87-1-1.07-2.46-1.6-4a11.71,11.71,0,0,0-2.79-4.65,7.69,7.69,0,0,0-7.17-1.89l0-.11a26.85,26.85,0,0,1-1.4,4c-1.1,2.49-3.62,7.25-2.54,10.12a.59.59,0,0,0-.83-.38,24.76,24.76,0,0,1-1-10.4,11.37,11.37,0,0,1,.32-2,0,0,0,0,1,0,0,26.53,26.53,0,0,1,.94-3.27,8.51,8.51,0,0,1,.8-2.1,5.8,5.8,0,0,0-3.88-2.48c-1.72-.21-2.78.91-4.28,1.47-.91.34-1,.4-1.32-.49a2.18,2.18,0,0,0-1.2-1.38c.3-1,.62-2.07.92-3.11-.38,1.32-.81,2.63-1.18,4a17.8,17.8,0,0,1-.92,4.88C30,41.1,29,45.29,27.77,45.08h.05a14.57,14.57,0,0,0,5.4,7.82c2.55,2,5.34,2.41,7.24.92A7.07,7.07,0,0,0,46,56.91c5.23.26,9.68-3.8,12.75-7.94a16,16,0,0,0,.92-8.9A18.82,18.82,0,0,0,54.76,31c-1.14-1.21-5.46-5.28-7.43-3.89-.86-3.58-5.78-5.84-8.67-7.41a10.65,10.65,0,0,0-2.41-1.3c-.63-.12-1.94.64-2.55.33a16.38,16.38,0,0,1-1.1-1.79c-2.78-1.9-6.3-4.78-9.7-5.4-1.56-.29-3,.53-4.55.68-1,.11-1.76-.74-2.7-.95-1.18-.26-2.25.56-3.24,1.15a16.66,16.66,0,0,0-1.95,1.33,25.24,25.24,0,0,0-2.2,3.8C7,20.35,6.89,23.56,7,26.64Zm1.4,5.68A.36.36,0,0,1,9.06,32,.36.36,0,0,1,8.4,32.32ZM11.46,34a.24.24,0,0,1-.44.19A.24.24,0,0,1,11.46,34Zm-.35-2.36a.27.27,0,0,1-.5.21A.27.27,0,0,1,11.11,31.61ZM10,32.94c.11.29-.33.47-.44.19A.24.24,0,0,1,10,32.94Zm-.7-3a.59.59,0,0,1-1.09.46A.59.59,0,0,1,9.3,30Zm-1-1.58a.39.39,0,0,1-.71.3A.39.39,0,0,1,8.33,28.37ZM30,47.51a.48.48,0,0,1,.88-.37A.48.48,0,0,1,30,47.51Zm1.06,2.23a.36.36,0,0,1,.66-.28A.36.36,0,0,1,31.08,49.74Zm1.11,1.52a.48.48,0,0,1,.88-.37A.48.48,0,0,1,32.19,51.26Zm1.49-3.14a.75.75,0,0,1,1.38-.57A.75.75,0,0,1,33.68,48.12Zm1,5.1a.48.48,0,0,1,.88-.37A.48.48,0,0,1,34.72,53.22ZM35.58,51a.58.58,0,1,1,.3-.76A.59.59,0,0,1,35.58,51Zm1.08,2.63a.51.51,0,0,1,.94-.39A.51.51,0,0,1,36.66,53.61Zm6.93,1.11-.06.05c-.29.3-.59-.42-.18-.42h.08A.21.21,0,0,1,43.59,54.72Zm.32,1.12a.24.24,0,0,1,.44-.19A.24.24,0,0,1,43.91,55.84Zm1.53-.22a.56.56,0,0,1,1-.44A.56.56,0,0,1,45.44,55.62Zm.14-2.82a1.1,1.1,0,0,1,2-.86A1.1,1.1,0,0,1,45.58,52.8Zm2.1,3.09a.51.51,0,0,1,.94-.4A.51.51,0,0,1,47.68,55.89Zm1.88-.19a.68.68,0,0,1,1.26-.53A.68.68,0,0,1,49.56,55.7Zm-.25-27h.11c.44.05.16.75-.2.48l-.08-.06A.24.24,0,0,1,49.31,28.69ZM48.3,34c.22-.79.12-1.76.26-2.56a2.79,2.79,0,0,1,.69-1.66s.15,0,.13,0c-.47.92.26,2.89,0,3.71S48.18,34.48,48.3,34ZM36.84,20.82c.13-.13.34.13.23.27S36.64,21,36.84,20.82Zm-.4,1.56c.09-.7.35-1.06.5-.45.07.29.81,1.52.37,2.22-.23.38-1.11,1.16-1,.17C36.35,23.8,36.38,22.9,36.44,22.38ZM23.53,12.49c-.06-.15,0-.27.09-.12.45.73,1.17,1.71.87,2.53-.1.29-1.1.07-1-.23A3.7,3.7,0,0,0,23.53,12.49ZM12.38,14.73c.48-1.68,1.2-2.71,3.06-3,.06,0,.1.07.05.1-1.36.89-1.9,2.46-2.58,3.85C12.68,16.14,12.24,15.21,12.38,14.73Z"/><path class="cls-1" d="M46.59,36.87l.09-.52Z"/><path class="cls-4" d="M46.59,36.87l.09-.52Z"/><path class="cls-1" d="M17.74,19.16c.21-.59.42-1.17.66-1.74C18.16,18,18,18.57,17.74,19.16Z"/><path class="cls-4" d="M17.74,19.16c.21-.59.42-1.17.66-1.74C18.16,18,18,18.57,17.74,19.16Z"/><path class="cls-1" d="M12.54,18.83c0,.11-.06.23-.1.34C12.48,19.06,12.5,18.94,12.54,18.83Z"/><path class="cls-4" d="M12.54,18.83c0,.11-.06.23-.1.34C12.48,19.06,12.5,18.94,12.54,18.83Z"/><path class="cls-1" d="M43.58,32.87c-.27.4-.53.81-.77,1.23,0,.07,0,.14-.07.2A12.49,12.49,0,0,1,43.58,32.87Z"/><path class="cls-3" d="M43.58,32.87c-.27.4-.53.81-.77,1.23,0,.07,0,.14-.07.2A12.49,12.49,0,0,1,43.58,32.87Z"/><path class="cls-4" d="M43.58,32.87c-.27.4-.53.81-.77,1.23,0,.07,0,.14-.07.2A12.49,12.49,0,0,1,43.58,32.87Z"/><path class="cls-1" d="M42.51,34.65a8.51,8.51,0,0,0-.8,2.1c.26-.69.53-1.38.85-2Z"/><path class="cls-3" d="M42.51,34.65a8.51,8.51,0,0,0-.8,2.1c.26-.69.53-1.38.85-2Z"/><path class="cls-4" d="M42.51,34.65a8.51,8.51,0,0,0-.8,2.1c.26-.69.53-1.38.85-2Z"/><path class="cls-1" d="M46.21,29.27c0-.32.07-.25-.11,0-.62,1-1.52,2.12-2.36,3.34.78-1.13,1.66-2.15,2.45-3.29A.24.24,0,0,0,46.21,29.27Z"/><path class="cls-3" d="M46.21,29.27c0-.32.07-.25-.11,0-.62,1-1.52,2.12-2.36,3.34.78-1.13,1.66-2.15,2.45-3.29A.24.24,0,0,0,46.21,29.27Z"/><path class="cls-4" d="M46.21,29.27c0-.32.07-.25-.11,0-.62,1-1.52,2.12-2.36,3.34.78-1.13,1.66-2.15,2.45-3.29A.24.24,0,0,0,46.21,29.27Z"/><path class="cls-5" d="M46.59,36.87c-.11.63-.25,1.26-.41,1.89l0,.11a7.69,7.69,0,0,1,7.17,1.89,11.71,11.71,0,0,1,2.79,4.65c.53,1.52.73,3,1.6,4-.07-4-.4-8.66-3.23-11.6-2-2.11-5-2-7.39-3.38a.91.91,0,0,1-.17.09c0,.11,0,.22,0,.33-.05.51-.12,1-.2,1.52Z"/><path class="cls-5" d="M18.4,17.42c-.24.57-.45,1.15-.66,1.74l-.12.35c-.17.49-.33,1-.48,1.48,0,.12-.07.24-.11.37-.16.54-.32,1.09-.46,1.64,0,.05,0,.09,0,.14-.16.62-.32,1.25-.47,1.86,1.73-.13,3.58-1.95,5.2-2.45a2.59,2.59,0,0,1,3.5,2A3.11,3.11,0,0,0,26.66,27a2.47,2.47,0,0,1,.36.19h0q.16-1,.42-2c0-.06,0-.13,0-.19.16-.61.35-1.2.56-1.78,0,0,0-.1.05-.14a11.76,11.76,0,0,1-1-2.29c-.45-1.5-.6-4.44-2.4-5-1.29-.42-2.91.88-3.94,1.49a2.63,2.63,0,0,1-2.38.18Z"/><path class="cls-5" d="M12.09,20.72a2,2,0,0,1,0-.24c.09-.44.2-.88.31-1.31,0-.11.06-.23.1-.34.12-.42.25-.84.4-1.25,0-.06,0-.13.07-.2-.13.35-1.77,1.06-2.14,1.34a13.16,13.16,0,0,0-1.94,1.79,6.17,6.17,0,0,0-1.51,4,15.5,15.5,0,0,1,4.3-.73h0A21.36,21.36,0,0,1,12.09,20.72Z"/><path class="cls-5" d="M32.75,28.66c-.3,1-.62,2.07-.92,3.11A2.18,2.18,0,0,1,33,33.15c.3.89.41.83,1.32.49,1.5-.56,2.56-1.68,4.28-1.47a5.8,5.8,0,0,1,3.88,2.48l.05.06h0c.06-.14.11-.27.18-.41s0-.13.07-.2c.89-2.15-.44-4.85-2.37-6.14a5,5,0,0,0-3.36-.52c-.4,0-4,.11-4.07.35h0C32.93,28.08,32.84,28.37,32.75,28.66Z"/><polygon class="cls-6" points="10.46 13.7 10.46 13.7 10.46 13.7 10.46 13.7"/><path class="cls-6" d="M9.33,14.69l.07-.06Z"/><path class="cls-6" d="M7.28,17l.18-.23Z"/><path class="cls-1" d="M13.67,36.72a.87.87,0,0,0,.1.08.87.87,0,0,1-.1-.08Z"/><path class="cls-6" d="M13.67,36.72a.87.87,0,0,0,.1.08.87.87,0,0,1-.1-.08Z"/><path class="cls-1" d="M27.71,45.08h0Z"/><path class="cls-6" d="M27.71,45.08h0Z"/><path class="cls-1" d="M17.91,44.48c5.51,4.15,9.66,7.68,15,11.44,3.22,2.29,7.52,4.32,11.61,4.11,4.58-.23,7.84-2.48,10.81-5.71a8.82,8.82,0,0,1,.87-.82l-.48.65L56,53.8c.18-.23.35-.47.52-.71l.3-.42.5-.79.24-.4c.19-.31.36-.64.52-1,0-.09.09-.17.13-.26.21-.42.4-.85.58-1.29h0c-3.07,4.14-7.52,8.2-12.75,7.94a7.07,7.07,0,0,1-5.54-3.09c-1.9,1.49-4.69,1-7.24-.92a14.57,14.57,0,0,1-5.4-7.82h-.11a.13.13,0,0,1-.13.07c-2.06,1.35-4.6,1.41-7.27-.45a16.1,16.1,0,0,1-4.71-5.24,11.41,11.41,0,0,1-1.09-2.93,4.18,4.18,0,0,1-.61.15l-.13.12a.87.87,0,0,1-.1-.08,4.51,4.51,0,0,1-2.95-.83c-2.66-1.79-3.47-5.26-3.67-8.32a.44.44,0,0,1-.45-.29.46.46,0,0,1,.4-.64c-.11-3.08,0-6.29,1.26-9.14a25.24,25.24,0,0,1,2.2-3.8h0c-.37.3-.72.61-1.06.93l-.07.06a22.85,22.85,0,0,0-1.87,2L7.28,17c-.28.35-.56.72-.84,1.1a12,12,0,0,0-2.32,6,14.81,14.81,0,0,0,2.21,8.91A37.87,37.87,0,0,0,10,38.06c.92,1.06,2.35,1.58,3.45,2.43a43.06,43.06,0,0,1,4.28,3.93S17.8,44.4,17.91,44.48Z"/><path class="cls-4" d="M17.91,44.48c5.51,4.15,9.66,7.68,15,11.44,3.22,2.29,7.52,4.32,11.61,4.11,4.58-.23,7.84-2.48,10.81-5.71a8.82,8.82,0,0,1,.87-.82l-.48.65L56,53.8c.18-.23.35-.47.52-.71l.3-.42.5-.79.24-.4c.19-.31.36-.64.52-1,0-.09.09-.17.13-.26.21-.42.4-.85.58-1.29h0c-3.07,4.14-7.52,8.2-12.75,7.94a7.07,7.07,0,0,1-5.54-3.09c-1.9,1.49-4.69,1-7.24-.92a14.57,14.57,0,0,1-5.4-7.82h-.11a.13.13,0,0,1-.13.07c-2.06,1.35-4.6,1.41-7.27-.45a16.1,16.1,0,0,1-4.71-5.24,11.41,11.41,0,0,1-1.09-2.93,4.18,4.18,0,0,1-.61.15l-.13.12a.87.87,0,0,1-.1-.08,4.51,4.51,0,0,1-2.95-.83c-2.66-1.79-3.47-5.26-3.67-8.32a.44.44,0,0,1-.45-.29.46.46,0,0,1,.4-.64c-.11-3.08,0-6.29,1.26-9.14a25.24,25.24,0,0,1,2.2-3.8h0c-.37.3-.72.61-1.06.93l-.07.06a22.85,22.85,0,0,0-1.87,2L7.28,17c-.28.35-.56.72-.84,1.1a12,12,0,0,0-2.32,6,14.81,14.81,0,0,0,2.21,8.91A37.87,37.87,0,0,0,10,38.06c.92,1.06,2.35,1.58,3.45,2.43a43.06,43.06,0,0,1,4.28,3.93S17.8,44.4,17.91,44.48Z"/><path class="cls-6" d="M17.91,44.48c5.51,4.15,9.66,7.68,15,11.44,3.22,2.29,7.52,4.32,11.61,4.11,4.58-.23,7.84-2.48,10.81-5.71a8.82,8.82,0,0,1,.87-.82l-.48.65L56,53.8c.18-.23.35-.47.52-.71l.3-.42.5-.79.24-.4c.19-.31.36-.64.52-1,0-.09.09-.17.13-.26.21-.42.4-.85.58-1.29h0c-3.07,4.14-7.52,8.2-12.75,7.94a7.07,7.07,0,0,1-5.54-3.09c-1.9,1.49-4.69,1-7.24-.92a14.57,14.57,0,0,1-5.4-7.82h-.11a.13.13,0,0,1-.13.07c-2.06,1.35-4.6,1.41-7.27-.45a16.1,16.1,0,0,1-4.71-5.24,11.41,11.41,0,0,1-1.09-2.93,4.18,4.18,0,0,1-.61.15l-.13.12a.87.87,0,0,1-.1-.08,4.51,4.51,0,0,1-2.95-.83c-2.66-1.79-3.47-5.26-3.67-8.32a.44.44,0,0,1-.45-.29.46.46,0,0,1,.4-.64c-.11-3.08,0-6.29,1.26-9.14a25.24,25.24,0,0,1,2.2-3.8h0c-.37.3-.72.61-1.06.93l-.07.06a22.85,22.85,0,0,0-1.87,2L7.28,17c-.28.35-.56.72-.84,1.1a12,12,0,0,0-2.32,6,14.81,14.81,0,0,0,2.21,8.91A37.87,37.87,0,0,0,10,38.06c.92,1.06,2.35,1.58,3.45,2.43a43.06,43.06,0,0,1,4.28,3.93S17.8,44.4,17.91,44.48Z"/><path class="cls-1" d="M22.33,49c1.1,1,2.26,1.91,3.43,2.8-2.55-2.12-5-4.36-7.32-6.62C19.71,46.44,21,47.75,22.33,49Z"/><path class="cls-4" d="M22.33,49c1.1,1,2.26,1.91,3.43,2.8-2.55-2.12-5-4.36-7.32-6.62C19.71,46.44,21,47.75,22.33,49Z"/><path class="cls-6" d="M22.33,49c1.1,1,2.26,1.91,3.43,2.8-2.55-2.12-5-4.36-7.32-6.62C19.71,46.44,21,47.75,22.33,49Z"/><path class="cls-2" d="M28.33,40.07c.74-1,2-7,1.39-8.15-.24-.48-.55,0-.88.5C27.86,34,27.12,34,27.05,35a22.07,22.07,0,0,0,.73,4.41,6.53,6.53,0,0,1,.11,1s0,0,0,.06S28,40.52,28.33,40.07Z"/><path class="cls-2" d="M45.56,32.25c-.25,1.23-1.39,2.45-1.76,3.65-.28.91-1.1,3.46-.53,2.73s3.21-2.18,3.18-3.13c0-1.25-.6-2.47-.51-3.73S45.83,31,45.56,32.25Z"/><path class="cls-2" d="M44.46,39c-.13-.42-.43-.11-.77.28-1,1.14-1.6,1.06-1.78,1.79a17.13,17.13,0,0,0,0,3.65,4.63,4.63,0,0,1,0,.54.24.24,0,0,1,.2,0l.05,0s.06.06.09.1l0,0C43,44.64,44.77,40,44.46,39Z"/><path class="cls-2" d="M14.22,27.91c.29-1.32.6-2.59,1-3.87.31-1,1.21-3.68.59-2.93s-3.4,2.17-3.39,3.2c0,1.36.59,2.72.49,4.08S13.93,29.29,14.22,27.91Z"/><path class="cls-1" d="M28.59,24.78a10.35,10.35,0,0,1,.71-1.14c.5-.51,1.12-1,1.7-1.55a6.35,6.35,0,0,0,.67-1c.24-.44.48-.62.68-.63l.07-.12c.25-.49.53-2-.17-1.74-2.17.77-3.54,3.26-4.54,6.84-.11.39-.18,1.38-.1,1.12s.49-1,.91-1.7c0,0,0,0,0,0S28.58,24.8,28.59,24.78Z"/><path class="cls-3" d="M28.59,24.78a10.35,10.35,0,0,1,.71-1.14c.5-.51,1.12-1,1.7-1.55a6.35,6.35,0,0,0,.67-1c.24-.44.48-.62.68-.63l.07-.12c.25-.49.53-2-.17-1.74-2.17.77-3.54,3.26-4.54,6.84-.11.39-.18,1.38-.1,1.12s.49-1,.91-1.7c0,0,0,0,0,0S28.58,24.8,28.59,24.78Z"/><path class="cls-2" d="M28.54,24.85s0,0,0,0l.07-.12S28.55,24.82,28.54,24.85Z"/><path class="cls-3" d="M28.54,24.85s0,0,0,0l.07-.12S28.55,24.82,28.54,24.85Z"/><path class="cls-2" d="M31.67,21.13a6.35,6.35,0,0,1-.67,1,6.92,6.92,0,0,0,1.35-1.59C32.15,20.51,31.91,20.69,31.67,21.13Z"/><path class="cls-3" d="M31.67,21.13a6.35,6.35,0,0,1-.67,1,6.92,6.92,0,0,0,1.35-1.59C32.15,20.51,31.91,20.69,31.67,21.13Z"/><path class="cls-1" d="M28.7,28.69c-.5.2-1.41,1.46-1.41,1.46-1.31,1.72-.59,4.61-.48,4.31.82-2.16,1.28-2.4,2.48-3,.37-.2.34-.64-.17-2.14C29,28.76,29,28.57,28.7,28.69Z"/><path class="cls-3" d="M28.7,28.69c-.5.2-1.41,1.46-1.41,1.46-1.31,1.72-.59,4.61-.48,4.31.82-2.16,1.28-2.4,2.48-3,.37-.2.34-.64-.17-2.14C29,28.76,29,28.57,28.7,28.69Z"/><path class="cls-1" d="M26.51,39.26a46,46,0,0,0,1,5.83.87.87,0,0,1,.23,0h0c.24-.34.42-1.53.6-1.85,0-.07-.31-1.54-.36-2.28,0-.15,0-.31-.06-.49,0,0,0,0,0-.06-.3-1.61-1.36-4.26-1.47-3.56a6.11,6.11,0,0,0,0,1l0,.47C26.46,38.61,26.48,38.92,26.51,39.26Z"/><path class="cls-3" d="M26.51,39.26a46,46,0,0,0,1,5.83.87.87,0,0,1,.23,0h0c.24-.34.42-1.53.6-1.85,0-.07-.31-1.54-.36-2.28,0-.15,0-.31-.06-.49,0,0,0,0,0-.06-.3-1.61-1.36-4.26-1.47-3.56a6.11,6.11,0,0,0,0,1l0,.47C26.46,38.61,26.48,38.92,26.51,39.26Z"/><path class="cls-1" d="M27.47,45.09a.13.13,0,0,0,.11.06l.12-.07A.87.87,0,0,0,27.47,45.09Z"/><path class="cls-4" d="M27.47,45.09a.13.13,0,0,0,.11.06l.12-.07A.87.87,0,0,0,27.47,45.09Z"/><path class="cls-3" d="M27.47,45.09a.13.13,0,0,0,.11.06l.12-.07A.87.87,0,0,0,27.47,45.09Z"/><path class="cls-1" d="M26.41,37.84l0,.47Z"/><path class="cls-4" d="M26.41,37.84l0,.47Z"/><path class="cls-3" d="M26.41,37.84l0,.47Z"/><path class="cls-1" d="M27.47,45.09a46,46,0,0,1-1-5.83C26.7,41.55,27.11,44.62,27.47,45.09Z"/><path class="cls-4" d="M27.47,45.09a46,46,0,0,1-1-5.83C26.7,41.55,27.11,44.62,27.47,45.09Z"/><path class="cls-3" d="M27.47,45.09a46,46,0,0,1-1-5.83C26.7,41.55,27.11,44.62,27.47,45.09Z"/><path class="cls-1" d="M27.72,45.07h0Z"/><path class="cls-6" d="M27.72,45.07h0Z"/><path class="cls-3" d="M27.72,45.07h0Z"/><path class="cls-1" d="M27.58,45.15a.13.13,0,0,0,.13-.07h0Z"/><path class="cls-4" d="M27.58,45.15a.13.13,0,0,0,.13-.07h0Z"/><path class="cls-6" d="M27.58,45.15a.13.13,0,0,0,.13-.07h0Z"/><path class="cls-3" d="M27.58,45.15a.13.13,0,0,0,.13-.07h0Z"/><path class="cls-2" d="M27.89,40.39s0,0,0,.06S27.89,40.41,27.89,40.39Z"/><path class="cls-3" d="M27.89,40.39s0,0,0,.06S27.89,40.41,27.89,40.39Z"/><path class="cls-1" d="M41.07,50.75c.25.58,1.4-2.61,1.61-3.28.38-1.15-1,.76-1.11-.45s.33-3.76-.15-4.9c-.14-.35-.48-2.13-.65-2.1-.07.33-.15.65-.2,1s-.11.73-.16,1.09c-.1,1.14-.14,2.38-.13,3A21.11,21.11,0,0,0,41.07,50.75Z"/><path class="cls-3" d="M41.07,50.75c.25.58,1.4-2.61,1.61-3.28.38-1.15-1,.76-1.11-.45s.33-3.76-.15-4.9c-.14-.35-.48-2.13-.65-2.1-.07.33-.15.65-.2,1s-.11.73-.16,1.09c-.1,1.14-.14,2.38-.13,3A21.11,21.11,0,0,0,41.07,50.75Z"/><path class="cls-1" d="M40.77,40a0,0,0,0,0,0,0,11.37,11.37,0,0,0-.32,2c.05-.36.09-.72.16-1.09S40.7,40.35,40.77,40Z"/><path class="cls-4" d="M40.77,40a0,0,0,0,0,0,0,11.37,11.37,0,0,0-.32,2c.05-.36.09-.72.16-1.09S40.7,40.35,40.77,40Z"/><path class="cls-3" d="M40.77,40a0,0,0,0,0,0,0,11.37,11.37,0,0,0-.32,2c.05-.36.09-.72.16-1.09S40.7,40.35,40.77,40Z"/><path class="cls-1" d="M30,47.51a.48.48,0,0,0,.88-.37A.48.48,0,0,0,30,47.51Z"/><path class="cls-1" d="M35.06,47.55a.75.75,0,0,0-1.38.57A.75.75,0,0,0,35.06,47.55Z"/><path class="cls-1" d="M31.08,49.74a.36.36,0,0,0,.66-.28A.36.36,0,0,0,31.08,49.74Z"/><path class="cls-1" d="M32.19,51.26a.48.48,0,0,0,.88-.37A.48.48,0,0,0,32.19,51.26Z"/><path class="cls-1" d="M35.13,49.91a.58.58,0,1,0,.75.31A.59.59,0,0,0,35.13,49.91Z"/><path class="cls-1" d="M34.72,53.22a.48.48,0,0,0,.88-.37A.48.48,0,0,0,34.72,53.22Z"/><path class="cls-1" d="M36.66,53.61a.51.51,0,0,0,.94-.39A.51.51,0,0,0,36.66,53.61Z"/><path class="cls-1" d="M47.61,51.94a1.1,1.1,0,0,0-2,.86A1.1,1.1,0,0,0,47.61,51.94Z"/><path class="cls-1" d="M45.44,55.62a.56.56,0,0,0,1-.44A.56.56,0,0,0,45.44,55.62Z"/><path class="cls-1" d="M43.43,54.35h-.08c-.41,0-.11.72.18.42l.06-.05A.21.21,0,0,0,43.43,54.35Z"/><path class="cls-1" d="M43.91,55.84a.24.24,0,0,0,.44-.19A.24.24,0,0,0,43.91,55.84Z"/><path class="cls-1" d="M49.56,55.7a.68.68,0,0,0,1.26-.53A.68.68,0,0,0,49.56,55.7Z"/><path class="cls-1" d="M47.68,55.89a.51.51,0,0,0,.94-.4A.51.51,0,0,0,47.68,55.89Z"/><path class="cls-1" d="M23,43.6h-.09a.25.25,0,0,0-.16.39l.06.08A.3.3,0,1,0,23,43.6Z"/><path class="cls-1" d="M20.35,44.06a.45.45,0,0,0,.82-.35A.45.45,0,0,0,20.35,44.06Z"/><path class="cls-1" d="M18.4,42.15l-.08.06a.35.35,0,1,0,.57.23v-.1A.3.3,0,0,0,18.4,42.15Z"/><path class="cls-1" d="M19.9,40.27a0,0,0,1,0,.06,0S19.89,40.23,19.9,40.27Z"/><path class="cls-1" d="M21.21,41.19a.45.45,0,0,0,.83-.35A.45.45,0,0,0,21.21,41.19Z"/><path class="cls-1" d="M18.78,39.36a.71.71,0,0,0-1.31.55A.71.71,0,0,0,18.78,39.36Z"/><path class="cls-1" d="M15,37a.45.45,0,0,0,.83-.34A.45.45,0,0,0,15,37Z"/><path class="cls-1" d="M17.3,35a.24.24,0,0,0-.44.18C17,35.44,17.41,35.25,17.3,35Z"/><path class="cls-1" d="M16.65,36.2a.35.35,0,0,0,.65-.28A.35.35,0,0,0,16.65,36.2Z"/><path class="cls-1" d="M19.88,35.61a.39.39,0,0,0-.72.3A.39.39,0,0,0,19.88,35.61Z"/><path class="cls-1" d="M17.83,37.53c.35.15.83-.25.62-.62l0-.07a.4.4,0,0,0-.51-.21l-.08,0C17.41,36.77,17.48,37.39,17.83,37.53Z"/><path class="cls-1" d="M11,34.16a.24.24,0,0,0,.44-.19A.24.24,0,0,0,11,34.16Z"/><path class="cls-1" d="M10,32.94a.24.24,0,0,0-.44.19C9.67,33.41,10.11,33.23,10,32.94Z"/><path class="cls-1" d="M8.21,30.41A.59.59,0,0,0,9.3,30,.59.59,0,0,0,8.21,30.41Z"/><path class="cls-1" d="M11.11,31.61a.27.27,0,0,0-.5.21A.27.27,0,0,0,11.11,31.61Z"/><path class="cls-1" d="M8.4,32.32A.36.36,0,0,0,9.06,32,.36.36,0,0,0,8.4,32.32Z"/><path class="cls-1" d="M8.33,28.37a.39.39,0,0,0-.71.3A.39.39,0,0,0,8.33,28.37Z"/><path class="cls-1" d="M7.48,26.91A.45.45,0,0,0,7,26.64a.46.46,0,0,0-.4.64.44.44,0,0,0,.45.29A.48.48,0,0,0,7.48,26.91Z"/><path class="cls-7" d="M13.09,22.43a5.23,5.23,0,0,0,2.11-3.09c.35-1.46-.58-2.83.27-5.35.35-1.05-1.45,2.16-1.59,2.4a16,16,0,0,0-1.38,5.33C12.4,22.61,12.36,23.07,13.09,22.43Z"/><path class="cls-7" d="M13.71,32.25a.22.22,0,0,1-.13-.12.25.25,0,0,1,.1-.31c0-.1,0-.19,0-.29,0-.3-1.29-2.06-1.18-1.71.72,2.34.4,4.73,1,6.31.19.46.29.34.46-.16a3,3,0,0,0,0-1.74C14,33.56,13.79,32.91,13.71,32.25Z"/><path class="cls-8" d="M33.64,21.42A4.87,4.87,0,0,1,32.36,24c-.59.6-.78,3.69,0,3.43s.95-1.09,1.17-1.91a1.46,1.46,0,0,1,.05-.2,3.37,3.37,0,0,0,.07-.48A21.62,21.62,0,0,0,33.64,21.42Z"/><path class="cls-1" d="M32.44,28.44a21.82,21.82,0,0,0-2.58,8.14c0,.59-.09,2.44.28,1.88a5.2,5.2,0,0,0,.51-1c.43-2.22.74-4.21.9-4.79a.29.29,0,0,1,0-.09,10.07,10.07,0,0,1,.75-3.09C32.37,29.44,32.79,27.76,32.44,28.44Z"/><path class="cls-9" d="M32.44,28.44a21.82,21.82,0,0,0-2.58,8.14c0,.59-.09,2.44.28,1.88a5.2,5.2,0,0,0,.51-1c.43-2.22.74-4.21.9-4.79a.29.29,0,0,1,0-.09,10.07,10.07,0,0,1,.75-3.09C32.37,29.44,32.79,27.76,32.44,28.44Z"/><path class="cls-1" d="M30.65,37.5a17.8,17.8,0,0,0,.92-4.88.29.29,0,0,0,0,.09C31.39,33.29,31.08,35.28,30.65,37.5Z"/><path class="cls-4" d="M30.65,37.5a17.8,17.8,0,0,0,.92-4.88.29.29,0,0,0,0,.09C31.39,33.29,31.08,35.28,30.65,37.5Z"/><path class="cls-9" d="M30.65,37.5a17.8,17.8,0,0,0,.92-4.88.29.29,0,0,0,0,.09C31.39,33.29,31.08,35.28,30.65,37.5Z"/><path class="cls-1" d="M44.91,39.21c.5,1.77-1.84,4.13-1.92,6,0,.6-.17,2,0,1.33.41-1.31,2.79-5.67,3-7.5,0-.27.72-3.3.61-3.19s-.85,1.38-1,1.58C44.25,38.45,44.57,38,44.91,39.21Z"/><path class="cls-9" d="M44.91,39.21c.5,1.77-1.84,4.13-1.92,6,0,.6-.17,2,0,1.33.41-1.31,2.79-5.67,3-7.5,0-.27.72-3.3.61-3.19s-.85,1.38-1,1.58C44.25,38.45,44.57,38,44.91,39.21Z"/><path class="cls-8" d="M18.32,17a.37.37,0,0,0-.23-.31c.1-.2.2-.39.31-.58a.06.06,0,0,0-.08-.08,6.62,6.62,0,0,0-2.1,2c-.35.52-1,1.3-.41,1.91C16.9,21.12,18.41,17.83,18.32,17Z"/><path class="cls-8" d="M17.5,16.22h.07a.54.54,0,1,0-.4-1l-.05.05A.52.52,0,0,0,17.5,16.22Z"/><path class="cls-8" d="M16.41,21.58a36.19,36.19,0,0,0-2.07,6.89.27.27,0,0,0,.52.14,34.17,34.17,0,0,0,1.72-7A.09.09,0,0,0,16.41,21.58Z"/><path class="cls-8" d="M30.45,30.29A.35.35,0,0,0,31.1,30,.35.35,0,0,0,30.45,30.29Z"/><path class="cls-8" d="M31.27,29.25a.15.15,0,0,0,.28-.11A.15.15,0,0,0,31.27,29.25Z"/><path class="cls-8" d="M31.6,28.51a.36.36,0,0,0,.66,0v-.06a.31.31,0,0,0-.16-.39l0,0A.36.36,0,0,0,31.6,28.51Z"/><path class="cls-8" d="M29.85,38.93a.45.45,0,0,0-.83.35A.45.45,0,0,0,29.85,38.93Z"/><path class="cls-8" d="M29.26,40.22a.44.44,0,0,0-.82.34A.44.44,0,0,0,29.26,40.22Z"/><path class="cls-8" d="M28.51,41.74a.12.12,0,0,0-.22.1C28.35,42,28.57,41.88,28.51,41.74Z"/><path class="cls-8" d="M44.24,38.49a.24.24,0,0,0-.44.18A.24.24,0,0,0,44.24,38.49Z"/><path class="cls-8" d="M42.48,39.57h.1a.24.24,0,0,0,.18-.43l-.09-.06C42.32,38.81,42,39.51,42.48,39.57Z"/><path class="cls-8" d="M46.37,30.5a.32.32,0,0,0-.38-.2.34.34,0,0,0-.28.48.32.32,0,0,0,.1.13A.36.36,0,0,0,46.37,30.5Z"/><path class="cls-8" d="M42.08,45.29a.24.24,0,0,0-.2,0,.34.34,0,0,0-.23.45.33.33,0,0,0,.61,0v-.05a.23.23,0,0,0-.05-.25s0-.08-.09-.1Z"/><path class="cls-8" d="M14.87,20.86a.3.3,0,0,0,.55-.23A.3.3,0,0,0,14.87,20.86Z"/><path class="cls-8" d="M13.47,30.35a.48.48,0,0,0,.88-.37A.48.48,0,0,0,13.47,30.35Z"/><path class="cls-8" d="M13.58,32.13a.22.22,0,0,0,.13.12.26.26,0,0,0,.36-.33.27.27,0,0,0-.49.21Z"/><path class="cls-8" d="M55.65,54.18l0,0,.48-.65a8.82,8.82,0,0,0-.87.82c-3,3.23-6.23,5.48-10.81,5.71-4.09.21-8.39-1.82-11.61-4.11-5.3-3.76-9.45-7.29-15-11.44-.11-.08-.18-.09-.18-.06s0,0,.07.11l.64.61c2.36,2.26,4.77,4.5,7.32,6.62a59,59,0,0,0,11,7.37C44,62.78,51.15,60.27,55.65,54.18Z"/><path class="cls-5" d="M37.07,21.09c.11-.14-.1-.4-.23-.27S36.91,21.31,37.07,21.09Z"/><path class="cls-5" d="M37.31,24.15c.44-.7-.3-1.93-.37-2.22-.15-.61-.41-.25-.5.45-.06.52-.09,1.42-.14,1.94C36.2,25.31,37.08,24.53,37.31,24.15Z"/><path class="cls-5" d="M49.22,29.18c.36.27.64-.43.2-.48h-.11a.24.24,0,0,0-.17.43Z"/><path class="cls-5" d="M49.39,33.51c.25-.82-.48-2.79,0-3.71,0,0-.09-.05-.13,0a2.79,2.79,0,0,0-.69,1.66c-.14.8,0,1.77-.26,2.56C48.18,34.48,49.11,34.4,49.39,33.51Z"/><path class="cls-5" d="M24.49,14.9c.3-.82-.42-1.8-.87-2.53-.09-.15-.15,0-.09.12a3.7,3.7,0,0,1-.08,2.18C23.39,15,24.39,15.19,24.49,14.9Z"/><path class="cls-5" d="M12.91,15.68c.68-1.39,1.22-3,2.58-3.85,0,0,0-.11-.05-.1-1.86.29-2.58,1.32-3.06,3C12.24,15.21,12.68,16.14,12.91,15.68Z"/></svg>