<svg id="Graphic_Elements" data-name="Graphic Elements" xmlns="http://www.w3.org/2000/svg" viewBox="0 0 64 72"><defs><style>.cls-1{fill:#995c4c;}.cls-2,.cls-8{fill:#b87d67;}.cls-3,.cls-7{fill:#551d10;}.cls-4,.cls-5,.cls-6{fill:#c79877;}.cls-4{opacity:0.49;}.cls-5{opacity:0.73;}.cls-6{opacity:0.75;}.cls-7{opacity:0.48;}.cls-8{opacity:0.78;}.cls-9{fill:#3f160e;opacity:0.87;}</style></defs><path class="cls-1" d="M37.69,53.7l-.37.14Z"/><path class="cls-1" d="M30.13,57.64l-1.42.79Z"/><path class="cls-1" d="M6.55,26a6.46,6.46,0,0,0-2,3.47,2.84,2.84,0,0,0,.16.93l.11,0h0c.14,0,.29,0,.44-.05a3.41,3.41,0,0,1,.46-.05,4.52,4.52,0,0,1,.52,0,3.54,3.54,0,0,1,.46,0,5.4,5.4,0,0,1,.58.09l.38.06c.31.06.6.13.89.21a17.83,17.83,0,0,1,4.72,2c1.75,1.05,3.3,2.36,5,3.51a9.44,9.44,0,0,0,4.83,2.05,8.9,8.9,0,0,0,4.54-1.53c1.93-1.13,3.85-2.24,5.87-3.18a74.42,74.42,0,0,1,7.15-2.85l1.5-.51.48-.15,1.07-.35.59-.17,1-.28.64-.16.49-.12,0,0,.89-.2.6-.1h0l.16,0a71.15,71.15,0,0,1,7.84-.81l.36,0v0l.86-.05,0-.05a5.49,5.49,0,0,1,1.41,0h0a1,1,0,0,1,.48.19C59.38,29.22,57,29.52,56,29.8c-.36.09-.72.18-1.09.25h0c-.4.08-.81.14-1.21.19h0l-.43,0-.6,0a9.38,9.38,0,0,1-1.06,0H49.9c-.45,0-.89,0-1.33,0s-.8.05-1.2.1l-.33,0a13.67,13.67,0,0,0-1.53.28c-2.4.57-4.52,1.86-6.77,2.84-1,.42-2,.81-2.93,1.19l-.58.23c-1,.36-1.93.71-2.9,1.05l-.07,0h0l-1.65.57-1.42.47-.82.3-.23.09-.61.25-.24.11c-.22.1-.43.22-.64.33l-.15.09a6.11,6.11,0,0,0-.75.5c-.18.14-.36.28-.53.44a6.57,6.57,0,0,0-1.85,3.94,38.61,38.61,0,0,0,0,6.8,33.53,33.53,0,0,1-.07,4.25,25,25,0,0,1-.67,3.43,13,13,0,0,0-.45,2.73,11,11,0,0,0,4.59-1,23.9,23.9,0,0,1,.73-6.27c1-4.93-1.05-11.23-.93-12.81,1.92-3.84,2.46,2.86,2.55,3.15.27.85-.73,6,2.16,9.33,1.29,1.49,8.79-1.17,12.22-1.22L39.33,53.1c1.8-.6,3.64-1.06,5.48-1.58a51.09,51.09,0,0,0,6.86-3.07c1.45-.61,2.89-3.53,2.78-3.63a53,53,0,0,0,2-6.47c.3-1.26.55-2.53.77-3.8a7.37,7.37,0,0,1,1.12-3.38c.55-.74,1.11-1.09,1.08-2.06a9.6,9.6,0,0,0-.87-3.29A7.23,7.23,0,0,1,59,27.34c-.61,0-1.2,0-1.79,0a1.08,1.08,0,0,1,0,.19s-.8.34-.72,0a1.55,1.55,0,0,0,0-.21c-1.13,0-2.24.08-3.33.19a1.09,1.09,0,0,1-.42.41s-1.42.19-1.27-.08c0,0,0-.1.05-.14-1.27.17-2.54.4-3.84.68v0c0,.15-1.36.5-1.35.26L45.16,29a99.49,99.49,0,0,0-9.84,3.39l-.14.17c-.19.27-1.58.9-1.38.61a2.51,2.51,0,0,1,.26-.31,19.41,19.41,0,0,0-5.71,3c-2.52.91-3.3-.43-4.6-.68a7.71,7.71,0,0,1-2.26-.66A9.45,9.45,0,0,1,18.32,32c-1.63-2.17-.64-3.76.53-5.56,1.31-2,4.34-3.85,6.08-4.7h0c3.52-1.51,4.63-1.55,7.48-2.6,1.63-.47,3.16-1,4.67-1.45l1-.33c1.08-.35,2.19-.69,3.3-.95l.17,0c.47-.1.94-.2,1.43-.28l-.2-.05A15.18,15.18,0,0,1,44.88,16a25.85,25.85,0,0,1,5,0c.91.62,2.06,1.46,3.07,2.3-10.24-9-26.3-8.61-37.7-.85A34.53,34.53,0,0,0,6.55,26ZM47.81,43.54a14.92,14.92,0,0,1,2.51-2.83,15.32,15.32,0,0,1-4.27,6A9.45,9.45,0,0,1,47.81,43.54Zm-.92,4.27a.37.37,0,0,1-.23,0,.87.87,0,0,1-.49-.34,17.28,17.28,0,0,0,5.86-7c.39-.19.07-.71.47-.71A14.17,14.17,0,0,1,49,47.63,2.68,2.68,0,0,1,46.89,47.81Zm6.19-3.23a10.06,10.06,0,0,1-1.67,1.79c-.33.2-.68.41-1,.6a16,16,0,0,0,2.76-7.11,1.86,1.86,0,0,1,.94.66A30.07,30.07,0,0,1,53.08,44.58ZM47,14.6a.4.4,0,0,1-.23.75c-2.63-.26-5.43-1-6.57-1.1l-.34,0A13.14,13.14,0,0,1,42,13,28.82,28.82,0,0,1,47,14.6Zm-6.21-1.9.28.06a11,11,0,0,0-2.17,1.42c-1.2,0-2.63,0-4.07.08a10.12,10.12,0,0,1,3.09-2.08C38.86,12.32,39.82,12.5,40.76,12.7Zm-7-.69a18,18,0,0,1,2.94.05,8.77,8.77,0,0,0-2.84,2.26,32.84,32.84,0,0,0-4.24.57,10.91,10.91,0,0,1,1.57-2.61C32.06,12.17,32.91,12.08,33.8,12Zm-3.49.39a13.25,13.25,0,0,0-1.43,2.68,13.69,13.69,0,0,0-4.15,2,10.43,10.43,0,0,1,1.37-3.86C27.49,12.89,28.88,12.61,30.31,12.4ZM20.1,17.52c0-.32.61-2.77,1-2.9,1.42-.45,2.77-.84,4.1-1.18A12.71,12.71,0,0,0,24,17.74c-.87,1-2.72,3.5-3.67,3.51C19.81,21.26,20,18.36,20.1,17.52Zm0,5.83a14,14,0,0,1,9.15-8c4.38-1.17,9.44-.82,13.67-.23a20,20,0,0,1,2,.27c-4.18.15-9.55,2-13.7,2.87a25.42,25.42,0,0,0-11.09,5.32C19.84,23.81,20,23.64,20.08,23.35Zm-3.73-1c1.51.45,3.43.43,2.73,1.79A18.43,18.43,0,0,1,16,27.29c-1-1.52-.37-3.26.33-5C16.05,22.22,16.67,22.33,16.35,22.31Zm-1.81-.15h.16a6.2,6.2,0,0,0,.75,5.49,4.27,4.27,0,0,1-1.15.41.32.32,0,0,0-.19-.1c-1.41-.22-3.53,2.88-3.39-1.66C11.59,25,13.11,22.9,14.54,22.16Z"/><path class="cls-1" d="M28.34,58.63c-.51.27-1,.53-1.57.76C27.31,59.16,27.83,58.9,28.34,58.63Z"/><path class="cls-2" d="M44.88,16a10.6,10.6,0,0,1,3.69.48c.25.08.46.46.33.59a2,2,0,0,1,.87,1.65A46,46,0,0,0,43,16.19c-.49.08-1,.18-1.43.28a48.81,48.81,0,0,1,8.26,2.94,10.59,10.59,0,0,0,.07,2.28A50.18,50.18,0,0,1,36,18l1-.34c-1.51.47-3,1-4.67,1.45-2.85,1.05-4,1.09-7.48,2.6l4.63-1.55c3.49,1.56,7.12,3.2,10.94,3.83a15.69,15.69,0,0,0-5,1.42c-.66.34-1.56,1.34-2.35.93s-8.89-2.94-9.19-3a1,1,0,0,1-.65-.37c.55-.44,1.1-.86,1.66-1.28-1.74.85-4.77,2.69-6.08,4.7-1.17,1.8-2.16,3.39-.53,5.56a9.45,9.45,0,0,0,3.17,2.46,7.71,7.71,0,0,0,2.26.66c1.3.25,2.08,1.59,4.6.68a19.41,19.41,0,0,1,5.71-3c.72-.78,1.7-1.2,1.42-2.44a7,7,0,0,0-2.65-3.75c-.42-.31-.27-.48.15-.18a8.4,8.4,0,0,1,3.17,3.95c.51,1.58,0,1-.83,2A99.49,99.49,0,0,1,45.16,29l1.14-.27s0,0,0,0a2.41,2.41,0,0,0-1.08-3.09,19.33,19.33,0,0,0-4.67-1.81c-.31-.06-.7-.51-.21-.41a21.16,21.16,0,0,1,5.64,2,3.62,3.62,0,0,1,1.68,3c1.3-.28,2.57-.51,3.84-.68A4.32,4.32,0,0,0,50,22.49a.36.36,0,0,1-.29,0A21.08,21.08,0,0,1,44,23.67l-.11,0c-4.74.06-9.18-1.86-13.4-3.75l4.63-1.55a51,51,0,0,0,14.54,4,3.57,3.57,0,0,0-.57-.23c-.29-.07-.63-.5-.16-.38,4.59,1.18,5,4.55,4.22,5.81,1.09-.11,2.2-.17,3.33-.19.67-3.33-3.81-7.27-7.24-8.26-.35-.1-.46-.57.08-.41,3.75,1.09,8.52,5.55,7.87,8.65.59,0,1.18,0,1.79,0a7.23,7.23,0,0,0-.42-1.52,35.49,35.49,0,0,0-4.4-6.5c-.34-.33-.73-.68-1.15-1-1-.84-2.16-1.68-3.07-2.3A25.85,25.85,0,0,0,44.88,16Z"/><path class="cls-2" d="M31.26,52.79c-2.89-3.34-1.89-8.48-2.16-9.33-.09-.29-.63-7-2.55-3.15-.12,1.58,1.94,7.88.93,12.81a23.9,23.9,0,0,0-.73,6.27h0c.54-.23,1.06-.49,1.57-.76l.37-.2,1.42-.79c.12.06,4.76-2.79,7.19-3.8l.37-.14,1.64-.6,4.15-1.53C40.05,51.62,32.55,54.28,31.26,52.79Z"/><path class="cls-3" d="M17.77,58.61c-.62-.43-1.1-.67-1.64-1,.34.27.66.55,1,.81A12.36,12.36,0,0,0,19,59.61l-.19-.27C18.48,59.1,18.13,58.86,17.77,58.61Z"/><path class="cls-3" d="M26.66,38.24l-.15.09Z"/><path class="cls-3" d="M47.37,30.49l-.33,0Z"/><path class="cls-3" d="M53.22,30.28l-.6,0Z"/><path class="cls-3" d="M38.74,33.63c-1,.42-2,.81-2.93,1.19C36.79,34.44,37.77,34.05,38.74,33.63Z"/><path class="cls-3" d="M28.38,37.46l-.23.09Z"/><path class="cls-3" d="M35.23,35.05c-1,.36-1.93.71-2.9,1.05C33.3,35.76,34.27,35.41,35.23,35.05Z"/><path class="cls-3" d="M27.54,37.8l-.24.11Z"/><path class="cls-3" d="M53.66,30.24c.4,0,.81-.11,1.21-.19a19.46,19.46,0,0,0,2.22-2.32l-.86.05A19.28,19.28,0,0,1,53.66,30.24Z"/><path class="cls-3" d="M48.58,30.39h0c.44,0,.88,0,1.33,0h-.11a18.39,18.39,0,0,0,2.69-2.29l3.4-.28A71.15,71.15,0,0,0,48,28.6c1.14-.19,2.29-.33,3.44-.44A17.59,17.59,0,0,1,48.58,30.39Z"/><path class="cls-3" d="M6.28,30.29a3.54,3.54,0,0,1,.46,0A3.54,3.54,0,0,0,6.28,30.29Z"/><path class="cls-3" d="M42.17,30.14l.48-.15Z"/><path class="cls-3" d="M7.32,30.4l.38.06Z"/><path class="cls-3" d="M4.75,30.4h0a2.61,2.61,0,0,0,.24.54,1.34,1.34,0,0,0,.11.14,1.8,1.8,0,0,1-.22-.7Z"/><path class="cls-3" d="M5.3,30.32a3.41,3.41,0,0,1,.46-.05A3.41,3.41,0,0,0,5.3,30.32Z"/><path class="cls-3" d="M43.72,29.64l.59-.17Z"/><path class="cls-3" d="M56,29.8c-.36.09-.72.18-1.09.25C55.24,30,55.6,29.89,56,29.8Z"/><path class="cls-3" d="M45.29,29.19l.64-.16Z"/><path class="cls-3" d="M29.2,37.16h0l1.42-.47,1.65-.57a101.22,101.22,0,0,1,9.87-4.4,22.47,22.47,0,0,0,5.73-3.09l-.6.1-.89.2a31.22,31.22,0,0,1-5.71,2.68A68.9,68.9,0,0,0,29.2,37.16Z"/><path class="cls-3" d="M23.28,54.26A33.53,33.53,0,0,0,23.35,50a38.61,38.61,0,0,1,0-6.8,6.57,6.57,0,0,1,1.85-3.94c.17-.16.35-.3.53-.44h0a.32.32,0,0,0-.22.08,12.78,12.78,0,0,0-4.36,5.18c-1.06,2.68-1.16,5.81-1.25,8.63a23,23,0,0,0,.34,6.14,7.62,7.62,0,0,1,.81,1l0,0c.12.23.08.33,0,.37a8.39,8.39,0,0,0,.86.1h.25a13,13,0,0,1,.45-2.73A25,25,0,0,0,23.28,54.26Z"/><path class="cls-3" d="M10.92,52.92c-.28-.26-1.48-1.6-1-1.24a5.7,5.7,0,0,0,2.79.87c1.27-.09,1-1.23.76-2.23a16.9,16.9,0,0,1-.83-3A15.78,15.78,0,0,1,12.72,43c.26-2.59.2-4.87-1.44-7a11.5,11.5,0,0,0-3.14-2.79,14.49,14.49,0,0,1-2.59-1.56l-.22-.27a3.68,3.68,0,0,1,.34.44c.32.55,2,9.82,2.7,13.78a32.19,32.19,0,0,0,1.1,5.56c.55,1.43,2.15,2.5,3.25,3.48.53.48,1.08.95,1.62,1.42l-.21-.2C13.19,54.93,11.91,53.83,10.92,52.92Z"/><path class="cls-3" d="M8.14,33.24A11.5,11.5,0,0,1,11.28,36c1.64,2.12,1.7,4.4,1.44,7a15.78,15.78,0,0,0-.07,4.34,16.9,16.9,0,0,0,.83,3c-.26-.86-.57-1.62,0-1.48,2.46.62,5.69,8.52,6.14,9.23a6,6,0,0,0,.65.8,23,23,0,0,1-.34-6.14c.09-2.82.19-5.95,1.25-8.63a12.78,12.78,0,0,1,4.36-5.18.32.32,0,0,1,.22-.08h0a6.11,6.11,0,0,1,.75-.5l.15-.09c.21-.11.42-.23.64-.33l.24-.11.61-.25.23-.09.82-.3h0a68.9,68.9,0,0,1,11.47-5.55,31.22,31.22,0,0,0,5.71-2.68l0,0-.49.12-.64.16-1,.28-.59.17L42.65,30l-.48.15-1.5.51a74.42,74.42,0,0,0-7.15,2.85c-2,.94-3.94,2-5.87,3.18a8.9,8.9,0,0,1-4.54,1.53,9.44,9.44,0,0,1-4.83-2.05c-1.67-1.15-3.22-2.46-5-3.51a17.83,17.83,0,0,0-4.72-2c-.29-.08-.58-.15-.89-.21l-.38-.06a5.4,5.4,0,0,0-.58-.09,3.54,3.54,0,0,0-.46,0,4.52,4.52,0,0,0-.52,0,3.41,3.41,0,0,0-.46.05c-.15,0-.3,0-.44.05h0a1.8,1.8,0,0,0,.22.7s0,0,0,.05l.23.28.22.27A14.49,14.49,0,0,0,8.14,33.24Z"/><path class="cls-3" d="M20,60c-.41-.21-.79-.44-1.17-.68l.19.27v0l.37.16.43.19.25.08Z"/><path class="cls-3" d="M32.27,36.12h0l.07,0c1-.34,1.94-.69,2.9-1.05l.58-.23c1-.38,2-.77,2.93-1.19,2.25-1,4.37-2.27,6.77-2.84A13.67,13.67,0,0,1,47,30.51l.33,0c.4,0,.8-.08,1.2-.1h0a17.59,17.59,0,0,0,2.9-2.23c-1.15.11-2.3.25-3.44.44l-.16,0h0a22.47,22.47,0,0,1-5.73,3.09A101.22,101.22,0,0,0,32.27,36.12Z"/><path class="cls-3" d="M49.79,30.36h1.77a9.38,9.38,0,0,0,1.06,0l.6,0,.43,0h0a19.28,19.28,0,0,0,2.57-2.46v0l-.36,0-3.4.28A18.39,18.39,0,0,1,49.79,30.36Z"/><path class="cls-3" d="M54.87,30.05h0c.37-.07.73-.16,1.09-.25,1-.28,3.42-.58,3.07-1.94a1,1,0,0,0-.48-.19h0a5.49,5.49,0,0,0-1.41,0l0,.05A19.46,19.46,0,0,1,54.87,30.05Z"/><path class="cls-1" d="M14.11,28a.32.32,0,0,1,.19.1,4.27,4.27,0,0,0,1.15-.41,6.2,6.2,0,0,1-.75-5.49h-.16c-1.43.74-2.95,2.79-3.82,4.13C10.58,30.83,12.7,27.73,14.11,28Z"/><path class="cls-4" d="M14.11,28a.32.32,0,0,1,.19.1,4.27,4.27,0,0,0,1.15-.41,6.2,6.2,0,0,1-.75-5.49h-.16c-1.43.74-2.95,2.79-3.82,4.13C10.58,30.83,12.7,27.73,14.11,28Z"/><path class="cls-1" d="M16.35,22.31c.32,0-.3-.09,0,0Z"/><path class="cls-4" d="M16.35,22.31c.32,0-.3-.09,0,0Z"/><path class="cls-1" d="M16,27.29a18.43,18.43,0,0,0,3.06-3.19c.7-1.36-1.22-1.34-2.73-1.79C15.65,24,15,25.77,16,27.29Z"/><path class="cls-4" d="M16,27.29a18.43,18.43,0,0,0,3.06-3.19c.7-1.36-1.22-1.34-2.73-1.79C15.65,24,15,25.77,16,27.29Z"/><rect class="cls-1" x="24.93" y="21.75" transform="translate(-5.2 8.08) rotate(-16.7)"/><rect class="cls-5" x="24.93" y="21.75" transform="translate(-5.2 8.08) rotate(-16.7)"/><path class="cls-2" d="M23.92,23.4c.3,0,8.53,2.63,9.19,3s1.69-.59,2.35-.93a15.69,15.69,0,0,1,5-1.42c-3.82-.63-7.45-2.27-10.94-3.83l-4.63,1.55h0c-.56.42-1.11.84-1.66,1.28A1,1,0,0,0,23.92,23.4Z"/><path class="cls-5" d="M23.92,23.4c.3,0,8.53,2.63,9.19,3s1.69-.59,2.35-.93a15.69,15.69,0,0,1,5-1.42c-3.82-.63-7.45-2.27-10.94-3.83l-4.63,1.55h0c-.56.42-1.11.84-1.66,1.28A1,1,0,0,0,23.92,23.4Z"/><path class="cls-2" d="M35.1,18.35,30.47,19.9c4.22,1.89,8.66,3.81,13.4,3.75l.11,0a21.08,21.08,0,0,0,5.77-1.18.36.36,0,0,0,.29,0c-.12-.07-.27-.12-.4-.18A51,51,0,0,1,35.1,18.35Z"/><path class="cls-5" d="M35.1,18.35,30.47,19.9c4.22,1.89,8.66,3.81,13.4,3.75l.11,0a21.08,21.08,0,0,0,5.77-1.18.36.36,0,0,0,.29,0c-.12-.07-.27-.12-.4-.18A51,51,0,0,1,35.1,18.35Z"/><path class="cls-1" d="M42.77,16.14l.2.05c.62-.1,1.26-.18,1.91-.24A15.18,15.18,0,0,0,42.77,16.14Z"/><path class="cls-5" d="M42.77,16.14l.2.05c.62-.1,1.26-.18,1.91-.24A15.18,15.18,0,0,0,42.77,16.14Z"/><path class="cls-2" d="M48.9,17c.13-.13-.08-.51-.33-.59A10.6,10.6,0,0,0,44.88,16c-.65.06-1.29.14-1.91.24a46,46,0,0,1,6.8,2.48A2,2,0,0,0,48.9,17Z"/><path class="cls-5" d="M48.9,17c.13-.13-.08-.51-.33-.59A10.6,10.6,0,0,0,44.88,16c-.65.06-1.29.14-1.91.24a46,46,0,0,1,6.8,2.48A2,2,0,0,0,48.9,17Z"/><path class="cls-1" d="M41.37,16.42c-1.11.26-2.22.6-3.3.95l-1,.33c1.48-.47,2.94-.9,4.46-1.23Z"/><path class="cls-5" d="M41.37,16.42c-1.11.26-2.22.6-3.3.95l-1,.33c1.48-.47,2.94-.9,4.46-1.23Z"/><path class="cls-2" d="M49.87,21.69a10.59,10.59,0,0,1-.07-2.28,48.81,48.81,0,0,0-8.26-2.94c-1.52.33-3,.76-4.46,1.23L36,18A50.18,50.18,0,0,0,49.87,21.69Z"/><path class="cls-5" d="M49.87,21.69a10.59,10.59,0,0,1-.07-2.28,48.81,48.81,0,0,0-8.26-2.94c-1.52.33-3,.76-4.46,1.23L36,18A50.18,50.18,0,0,0,49.87,21.69Z"/><path class="cls-1" d="M20.3,21.25c.95,0,2.8-2.56,3.67-3.51a12.71,12.71,0,0,1,1.25-4.3c-1.33.34-2.68.73-4.1,1.18-.41.13-1,2.58-1,2.9C20,18.36,19.81,21.26,20.3,21.25Z"/><path class="cls-6" d="M20.3,21.25c.95,0,2.8-2.56,3.67-3.51a12.71,12.71,0,0,1,1.25-4.3c-1.33.34-2.68.73-4.1,1.18-.41.13-1,2.58-1,2.9C20,18.36,19.81,21.26,20.3,21.25Z"/><path class="cls-1" d="M28.88,15.08a13.25,13.25,0,0,1,1.43-2.68c-1.43.21-2.82.49-4.21.82a10.43,10.43,0,0,0-1.37,3.86A13.69,13.69,0,0,1,28.88,15.08Z"/><path class="cls-6" d="M28.88,15.08a13.25,13.25,0,0,1,1.43-2.68c-1.43.21-2.82.49-4.21.82a10.43,10.43,0,0,0-1.37,3.86A13.69,13.69,0,0,1,28.88,15.08Z"/><path class="cls-1" d="M33.9,14.32a8.77,8.77,0,0,1,2.84-2.26A18,18,0,0,0,33.8,12c-.89.07-1.74.16-2.57.27a10.91,10.91,0,0,0-1.57,2.61A32.84,32.84,0,0,1,33.9,14.32Z"/><path class="cls-6" d="M33.9,14.32a8.77,8.77,0,0,1,2.84-2.26A18,18,0,0,0,33.8,12c-.89.07-1.74.16-2.57.27a10.91,10.91,0,0,0-1.57,2.61A32.84,32.84,0,0,1,33.9,14.32Z"/><path class="cls-1" d="M40.17,14.25c1.14.1,3.94.84,6.57,1.1A.4.4,0,0,0,47,14.6,28.82,28.82,0,0,0,42,13a13.14,13.14,0,0,0-2.17,1.24Z"/><path class="cls-6" d="M40.17,14.25c1.14.1,3.94.84,6.57,1.1A.4.4,0,0,0,47,14.6,28.82,28.82,0,0,0,42,13a13.14,13.14,0,0,0-2.17,1.24Z"/><path class="cls-1" d="M38.87,14.18A11,11,0,0,1,41,12.76l-.28-.06c-.94-.2-1.9-.38-2.87-.52a10.12,10.12,0,0,0-3.09,2.08C36.24,14.17,37.67,14.14,38.87,14.18Z"/><path class="cls-6" d="M38.87,14.18A11,11,0,0,1,41,12.76l-.28-.06c-.94-.2-1.9-.38-2.87-.52a10.12,10.12,0,0,0-3.09,2.08C36.24,14.17,37.67,14.14,38.87,14.18Z"/><path class="cls-1" d="M20.14,23.57a25.42,25.42,0,0,1,11.09-5.32c4.15-.89,9.52-2.72,13.7-2.87a20,20,0,0,0-2-.27c-4.23-.59-9.29-.94-13.67.23a14,14,0,0,0-9.15,8C20,23.64,19.84,23.81,20.14,23.57Z"/><path class="cls-7" d="M20.14,23.57a25.42,25.42,0,0,1,11.09-5.32c4.15-.89,9.52-2.72,13.7-2.87a20,20,0,0,0-2-.27c-4.23-.59-9.29-.94-13.67.23a14,14,0,0,0-9.15,8C20,23.64,19.84,23.81,20.14,23.57Z"/><path class="cls-1" d="M46,25.35a21.16,21.16,0,0,0-5.64-2c-.49-.1-.1.35.21.41a19.33,19.33,0,0,1,4.67,1.81,2.41,2.41,0,0,1,1.08,3.09s0,0,0,0c0,.24,1.35-.11,1.35-.26v0A3.62,3.62,0,0,0,46,25.35Z"/><path class="cls-1" d="M48.91,21.7c-.47-.12-.13.31.16.38a3.57,3.57,0,0,1,.57.23c.13.06.28.11.4.18a4.32,4.32,0,0,1,1.45,5.21s0,.1-.05.14c-.15.27,1.27.08,1.27.08a1.09,1.09,0,0,0,.42-.41C53.91,26.25,53.5,22.88,48.91,21.7Z"/><path class="cls-1" d="M49.3,18.65c-.54-.16-.43.31-.08.41,3.43,1,7.91,4.93,7.24,8.26a1.55,1.55,0,0,1,0,.21c-.08.3.72,0,.72,0a1.08,1.08,0,0,0,0-.19C57.82,24.2,53.05,19.74,49.3,18.65Z"/><path class="cls-1" d="M36.15,30.39A8.4,8.4,0,0,0,33,26.44c-.42-.3-.57-.13-.15.18a7,7,0,0,1,2.65,3.75c.28,1.24-.7,1.66-1.42,2.44a2.51,2.51,0,0,0-.26.31c-.2.29,1.19-.34,1.38-.61l.14-.17C36.11,31.39,36.66,32,36.15,30.39Z"/><path class="cls-1" d="M50.32,40.71a14.92,14.92,0,0,0-2.51,2.83,9.45,9.45,0,0,0-1.76,3.22A15.32,15.32,0,0,0,50.32,40.71Z"/><path class="cls-8" d="M50.32,40.71a14.92,14.92,0,0,0-2.51,2.83,9.45,9.45,0,0,0-1.76,3.22A15.32,15.32,0,0,0,50.32,40.71Z"/><path class="cls-1" d="M52,40.47a17.28,17.28,0,0,1-5.86,7,.87.87,0,0,0,.49.34.37.37,0,0,0,.23,0A2.68,2.68,0,0,0,49,47.63a14.17,14.17,0,0,0,3.54-7.87C52.1,39.76,52.42,40.28,52,40.47Z"/><path class="cls-8" d="M52,40.47a17.28,17.28,0,0,1-5.86,7,.87.87,0,0,0,.49.34.37.37,0,0,0,.23,0A2.68,2.68,0,0,0,49,47.63a14.17,14.17,0,0,0,3.54-7.87C52.1,39.76,52.42,40.28,52,40.47Z"/><path class="cls-1" d="M50.38,47c.35-.19.7-.4,1-.6a10.06,10.06,0,0,0,1.67-1.79,30.07,30.07,0,0,0,1-4.06,1.86,1.86,0,0,0-.94-.66A16,16,0,0,1,50.38,47Z"/><path class="cls-8" d="M50.38,47c.35-.19.7-.4,1-.6a10.06,10.06,0,0,0,1.67-1.79,30.07,30.07,0,0,0,1-4.06,1.86,1.86,0,0,0-.94-.66A16,16,0,0,1,50.38,47Z"/><path class="cls-9" d="M16.13,57.58c-.6-.49-1.2-1-1.79-1.49A11.32,11.32,0,0,0,16.13,57.58Z"/><path class="cls-3" d="M21.09,59.94l0,0a7.62,7.62,0,0,0-.81-1,6,6,0,0,1-.65-.8c-.45-.71-3.68-8.61-6.14-9.23-.55-.14-.24.62,0,1.48s.51,2.14-.76,2.23a5.7,5.7,0,0,1-2.79-.87c-.49-.36.71,1,1,1.24,1,.91,2.27,2,3.21,3l.21.2c.59.51,1.19,1,1.79,1.49s1,.6,1.64,1c.36.25.71.49,1.08.73s.76.47,1.17.68l.08,0c.21.07.41.14.62.19h0l.07,0,.26.05C21.17,60.27,21.21,60.17,21.09,59.94Z"/><path class="cls-9" d="M21.09,59.94l0,0a7.62,7.62,0,0,0-.81-1,6,6,0,0,1-.65-.8c-.45-.71-3.68-8.61-6.14-9.23-.55-.14-.24.62,0,1.48s.51,2.14-.76,2.23a5.7,5.7,0,0,1-2.79-.87c-.49-.36.71,1,1,1.24,1,.91,2.27,2,3.21,3l.21.2c.59.51,1.19,1,1.79,1.49s1,.6,1.64,1c.36.25.71.49,1.08.73s.76.47,1.17.68l.08,0c.21.07.41.14.62.19h0l.07,0,.26.05C21.17,60.27,21.21,60.17,21.09,59.94Z"/></svg>