<svg xmlns="http://www.w3.org/2000/svg" viewBox="0 0 206 78"><defs><style>.cls-1{fill:#fcb46d;}.cls-2{fill:#ba8352;}.cls-3{opacity:0.18;}.cls-4{fill:#fff;}</style></defs><g id="Ebene_2" data-name="Ebene 2"><g id="Ebene_1-2" data-name="Ebene 1"><rect class="cls-1" x="1.5" y="1.5" width="203" height="75" rx="11.5"/><path class="cls-2" d="M193,3a10,10,0,0,1,10,10V65a10,10,0,0,1-10,10H13A10,10,0,0,1,3,65V13A10,10,0,0,1,13,3H193m0-3H13A13,13,0,0,0,0,13V65A13,13,0,0,0,13,78H193a13,13,0,0,0,13-13V13A13,13,0,0,0,193,0Z"/><g class="cls-3"><path class="cls-4" d="M203,21.34s-8.4-11.86-57.91-10.23C91.29,12.87,53.32,8,23.53,5.45A25,25,0,0,0,3,13,10,10,0,0,1,13,3H193a10,10,0,0,1,10,10Z"/></g></g></g></svg>