<svg id="Graphic_Elements" data-name="Graphic Elements" xmlns="http://www.w3.org/2000/svg" viewBox="0 0 64 72"><defs><style>.cls-1{fill:#da9a5b;}.cls-2{fill:#d0d668;}.cls-3{fill:#b6c760;}.cls-4{fill:#909c4d;}.cls-5{fill:#634236;}.cls-6{fill:#7f5543;}.cls-7{fill:#cb8d51;}</style></defs><path class="cls-1" d="M4.87,19.79s-2.39,26.28.69,29.69S60.15,61.42,60.15,61.42l-1-31.73Z"/><polygon class="cls-2" points="4.87 19.79 37.97 10.58 59.13 29.69 4.87 19.79"/><path class="cls-3" d="M59.55,44.79a36.11,36.11,0,0,1-10.21-2.31c-2.28-.77-3.79-1.49-6.22-1.37-3.72.2-7.15.37-10.62-1.36a20.92,20.92,0,0,0-10-2.56c-2.64,0-5.52.3-8.07-.5s-3.83-3.1-6.27-3.8A14.27,14.27,0,0,0,4,32.59l-.17,8.7c0,.33,0,.39.21.64,1.29,1.47,6.45.72,8.33,1.19l6.17,1.54a31.56,31.56,0,0,1,5.26,1.6c2,.87,3.81,2.19,6,2.51,2.77.4,5.64-.18,8.36-.45a18.24,18.24,0,0,1,9.14,1.54c2.26.93,4.35.45,6.74.64,1.9.15,4,1.72,5.85,1.54C59.72,49.31,59.66,47.23,59.55,44.79Z"/><path class="cls-3" d="M4.87,19.79c0,.26-.28,3.57-.28,3.57L59.27,34.12l-.14-4.43Z"/><path class="cls-2" d="M50.88,44.51a39.35,39.35,0,0,1-6-.94,43.26,43.26,0,0,0-6.44-.67c-3.93-.31-8.22,0-11.28-2.44C25.29,39,21.54,37.69,19,39.13c-1.29-.06-2.66,0-3.73,0-.58,2.31,3,2.78,4.94,2.93a27.53,27.53,0,0,1,8.48,2.07,33.38,33.38,0,0,0,10.23,1.5c3.38.12,6.74.13,10.12.36a14.82,14.82,0,0,1,4.91.87c1.91.72,3.34,1.24,5.05-.08C58.05,45.28,52.8,44.65,50.88,44.51Z"/><path class="cls-4" d="M15.49,19.6l.19-.22a4.11,4.11,0,0,1,.29-.3,7.26,7.26,0,0,1,.67-.59,15.6,15.6,0,0,1,1.86-1.16,30.79,30.79,0,0,1,4.74-2,38.47,38.47,0,0,1,9.66-2.07,11.57,11.57,0,0,1,2.2.08,6.05,6.05,0,0,1,1.12.25,1.38,1.38,0,0,1,.24.14c-.12-.08,0,0,0,0s0,0,0-.08,0,.17,0,0c0,.05,0,.16,0,0,0,0-.06.16,0,0a.75.75,0,0,1-.07.12s-.11.14,0,0l-.11.12a2.28,2.28,0,0,1-.33.29,9.37,9.37,0,0,1-1.66.95c-3.19,1.48-7.69,1.7-9.55,5.14A1.4,1.4,0,0,0,25,22.24a3.32,3.32,0,0,0,2.18.17,21.29,21.29,0,0,0,6.1-2c2.08-1,4.21-2,6.54-2.16a5.61,5.61,0,0,1,2,.15s.19.08,0,0l.12.07c.15.08,0-.07.1.07s-.09-.12,0,0,.08.15,0,0a.29.29,0,0,1,0,.1c0,.1,0-.17,0,0s0-.07,0,.1a1.09,1.09,0,0,1-.07.24c0,.15.06-.13,0,0s0,.08-.07.13a2.48,2.48,0,0,1-.18.31A7.93,7.93,0,0,1,41,20.48a13.63,13.63,0,0,0-1.76,2.32A1.59,1.59,0,0,0,39,24a1.23,1.23,0,0,0,1.32.78c1.59-.13,2.77-1.54,4.29-1.92a6,6,0,0,1,.79,0,1.31,1.31,0,0,1,1.09.45c.33.36-.23,1-.31,1.38-.27,1.16.91,1.18,1.69,1.19h1.29l.72,0,.56.06a3.8,3.8,0,0,1,.51.13c.07,0,.07,0,0,0a.52.52,0,0,1,.13.06c.16.09,0-.07.08.05l0,0c0,.05.05.15,0,0,0,.07,0,.05,0-.05s0,.17,0,0l0,.09c-.05.16.06-.11,0,.05a1.81,1.81,0,0,1-.18.27.64.64,0,0,0,.23.88.65.65,0,0,0,.87-.23,1.46,1.46,0,0,0,.24-1.59A1.85,1.85,0,0,0,51,24.74a17.2,17.2,0,0,0-3.44-.21h-.4c-.14,0,.16,0,0,0l-.08,0a.64.64,0,0,1,.32.3c0,.06,0,.17,0,0l.09-.2A1.94,1.94,0,0,0,47.05,22a3.43,3.43,0,0,0-2.85-.4A8.73,8.73,0,0,0,42,22.71a4.51,4.51,0,0,1-1.84.78c.16,0-.09,0,.05,0,0,0-.13-.1,0,0,0,0-.11-.11,0,0,0,0-.07-.14,0,.06-.07-.17,0,.13,0,0s0-.15,0,.05l0-.13c.07-.2,0,.06,0-.09l.13-.23c.12-.19.25-.37.38-.55s-.08.1,0-.05a1.34,1.34,0,0,1,.11-.14c.07-.09.15-.18.22-.28s.35-.41.52-.62a7.26,7.26,0,0,0,1.61-2.49,1.63,1.63,0,0,0-1.43-2,10.5,10.5,0,0,0-5.8.73c-2.21.82-4.25,2-6.48,2.77a13.55,13.55,0,0,1-2.75.63,4.93,4.93,0,0,1-.92,0l-.19-.05c-.17-.05.09.06-.05,0,.12.07,0-.06.05.06s0,.1,0,0,.06-.19.1-.27a3.7,3.7,0,0,1,.38-.59,4.43,4.43,0,0,1,1-1A11.44,11.44,0,0,1,30,18c1.6-.6,3.26-1,4.82-1.69,1.06-.47,2.47-1.13,2.91-2.28a1.23,1.23,0,0,0-.57-1.42,5.12,5.12,0,0,0-2.34-.6,17.21,17.21,0,0,0-4.3.23,45,45,0,0,0-9.21,2.43,27.22,27.22,0,0,0-4.13,1.93A9.17,9.17,0,0,0,14.39,19a.63.63,0,0,0,.23.87.65.65,0,0,0,.87-.23Z"/><path class="cls-5" d="M15.55,19.09s.09-.12.18-.22.19-.21.29-.3A7.35,7.35,0,0,1,16.7,18a13.76,13.76,0,0,1,1.86-1.16,30.12,30.12,0,0,1,4.73-2A37.7,37.7,0,0,1,33,12.77a11.65,11.65,0,0,1,2.21.08,5.25,5.25,0,0,1,1.11.25,1.21,1.21,0,0,1,.25.13c-.12-.07,0,0,0,0s0,0,0-.08,0,.16,0,0c0,.06,0,.17,0,0,0,0-.06.17,0,0l-.07.12s-.11.14,0,0l-.11.12a3,3,0,0,1-.33.29,9.37,9.37,0,0,1-1.66,1c-3.19,1.48-7.69,1.7-9.55,5.14a1.39,1.39,0,0,0,.29,1.94,3.29,3.29,0,0,0,2.17.17,21.35,21.35,0,0,0,6.11-2c2.07-1,4.21-2,6.53-2.16a5.59,5.59,0,0,1,2,.15s.19.08,0,0l.13.07c.14.08,0-.07.09.07s-.08-.12,0,0,.07.15,0,0l0,.1c0,.1,0-.18,0,0s0-.07,0,.09a1.82,1.82,0,0,1-.07.25c0,.14.06-.13,0,0l-.06.13a3.3,3.3,0,0,1-.18.32A8,8,0,0,1,41,20a13.57,13.57,0,0,0-1.75,2.32,1.54,1.54,0,0,0-.19,1.18,1.23,1.23,0,0,0,1.31.78c1.6-.13,2.78-1.55,4.3-1.92a5.85,5.85,0,0,1,.78,0,1.31,1.31,0,0,1,1.09.44c.34.37-.22,1-.3,1.39-.27,1.16.91,1.18,1.69,1.19h1.29l.72,0a4,4,0,0,1,.56.06,4.77,4.77,0,0,1,.51.13c.07,0,.07,0,0,0l.13.07c.16.08-.05-.07.07.05s0,0,0,0,0,.15,0,0q0,.11,0-.06c0,.05,0,.17,0,0a.29.29,0,0,1,0,.09c0,.16.06-.12,0,.05A2.22,2.22,0,0,1,51,26a.65.65,0,0,0,.23.88.66.66,0,0,0,.88-.23A1.48,1.48,0,0,0,52.3,25,1.87,1.87,0,0,0,51,24.23,16.39,16.39,0,0,0,47.59,24h-.41c-.13,0,.16,0,0,0l-.07,0a.64.64,0,0,1,.32.3c0,.06,0,.17,0,0a2.24,2.24,0,0,0,.1-.21,2,2,0,0,0-.49-2.6,3.47,3.47,0,0,0-2.85-.41A9.26,9.26,0,0,0,42,22.19a4.45,4.45,0,0,1-1.84.79c.15,0-.09-.05,0,0,0,0-.14-.1,0,0,0,0-.1-.12,0,.05,0,0-.07-.14,0,.06-.07-.17,0,.13,0,0s0-.16,0,.05a.61.61,0,0,1,0-.13c.06-.2,0,.06,0-.09a1.71,1.71,0,0,1,.13-.23,4.91,4.91,0,0,1,.38-.55c.11-.15-.08.1,0-.05A1.34,1.34,0,0,0,41,22l.23-.28.52-.62a7.71,7.71,0,0,0,1.61-2.5,1.63,1.63,0,0,0-1.44-2,10.51,10.51,0,0,0-5.8.73c-2.2.81-4.24,2-6.47,2.77a13.86,13.86,0,0,1-2.75.63,6,6,0,0,1-.92,0l-.19-.05c-.18,0,.09.06-.06,0,.13.07,0-.07.06.06s0,.1,0,0,.06-.19.1-.27a4.3,4.3,0,0,1,.38-.6,4.39,4.39,0,0,1,1-1A11.25,11.25,0,0,1,30,17.52c1.59-.6,3.26-1,4.82-1.7,1.05-.46,2.47-1.12,2.91-2.27a1.23,1.23,0,0,0-.58-1.42,5.07,5.07,0,0,0-2.33-.6,17.32,17.32,0,0,0-4.31.23,45.31,45.31,0,0,0-9.21,2.43,27.11,27.11,0,0,0-4.12,1.93,9.08,9.08,0,0,0-2.75,2.33.65.65,0,0,0,.23.87.66.66,0,0,0,.88-.23Z"/><path class="cls-6" d="M15.1,18.74a3.15,3.15,0,0,1,1.38-1.53,14.84,14.84,0,0,1,1.87-1,14.6,14.6,0,0,1,2.43-.86,16.9,16.9,0,0,1,2.73-.93c.27,0,.27-.47,0-.43a17.33,17.33,0,0,0-2.85,1,17.4,17.4,0,0,0-2.62.94c-1.2.59-2.93,1.39-3.35,2.79-.08.26.33.37.41.11Z"/><path class="cls-6" d="M26.14,21.31c-1.25-.57-.37-1.92.33-2.55a10.37,10.37,0,0,1,2.4-1.43c.24-.12,0-.49-.22-.37a9,9,0,0,0-2.94,2c-.72.84-1,2.22.21,2.76.25.12.47-.25.22-.37Z"/><path class="cls-6" d="M38.37,17.48a5.77,5.77,0,0,1,2-.26,2.76,2.76,0,0,1,1.67.39c.93.74-.7,2.07-1.13,2.63-.16.21.13.52.3.3.62-.8,2.06-1.9,1.32-3a2.16,2.16,0,0,0-1.69-.69,6.16,6.16,0,0,0-2.56.25c-.26.09-.15.5.11.41Z"/><path class="cls-6" d="M39.39,23.15c-.25,1.11,1.38.55,1.86.37s1.12-.46,1.66-.72a4.56,4.56,0,0,1,.88-.41c.27-.05.15-.46-.12-.42a3,3,0,0,0-.63.3c-.43.21-.86.41-1.3.6a9.54,9.54,0,0,1-1.39.49c-.15,0-.61.17-.55-.1s-.35-.38-.41-.11Z"/><path class="cls-6" d="M46.39,22.08a1.2,1.2,0,0,1,.49,1.21,6.68,6.68,0,0,0-.2.86c-.08.78.66.72,1.2.54.26-.09.15-.5-.11-.41s-.67.28-.67,0a2.33,2.33,0,0,1,.16-.73,1.65,1.65,0,0,0-.56-1.77.22.22,0,0,0-.31.31Z"/><path class="cls-6" d="M51.22,25c-.06,0,0,.06.07.09a.84.84,0,0,1,.2.29.46.46,0,0,1-.23.66c-.25.13,0,.49.21.37a.9.9,0,0,0,.41-1.2c-.14-.32-.48-.75-.88-.58s0,.48.22.37Z"/><path class="cls-7" d="M8.31,27.32l1.54.77c.24.12.46-.25.21-.37L8.53,27c-.25-.12-.46.25-.22.37Z"/><path class="cls-7" d="M7.76,31l1.54-.77c.24-.12,0-.49-.22-.37l-1.53.77c-.25.12,0,.49.21.37Z"/><path class="cls-7" d="M11.29,31.69c.42-.13.86-.13,1.28-.26.26-.08.15-.49-.11-.41-.42.13-.86.13-1.28.26-.26.08-.15.49.11.41Z"/><path class="cls-7" d="M12.13,33.49h1.28a.22.22,0,0,0,0-.43H12.13a.22.22,0,0,0,0,.43Z"/><path class="cls-7" d="M12.26,29.52h1.66a.21.21,0,1,0,0-.42H12.26a.21.21,0,0,0,0,.42Z"/><path class="cls-7" d="M15.15,27.85a15.67,15.67,0,0,0,2.56.39c.26,0,.38-.38.11-.42a14.64,14.64,0,0,1-2.56-.38.21.21,0,0,0-.11.41Z"/><path class="cls-7" d="M21.71,29.84a3.72,3.72,0,0,0,1.37.7c.26.09.37-.32.11-.41A3.2,3.2,0,0,1,22,29.54c-.2-.18-.51.12-.3.3Z"/><path class="cls-7" d="M17.25,33.49a13.85,13.85,0,0,0,2.23-.14c.27,0,.16-.45-.11-.41a13.64,13.64,0,0,1-2.12.12.22.22,0,0,0,0,.43Z"/><path class="cls-7" d="M20.43,35.12c.5-.36,1-.66,1.53-1,.22-.16,0-.53-.21-.37-.5.37-1,.66-1.54,1-.22.16,0,.53.22.36Z"/><path class="cls-7" d="M17.82,30.54c.59-.14,1.2-.15,1.79-.26.27-.05.16-.46-.11-.41-.6.11-1.21.12-1.79.26-.27.06-.16.47.11.41Z"/><path class="cls-7" d="M24.74,34.38c.83.29,1.58.77,2.38,1.13.25.11.47-.26.22-.37-.84-.37-1.62-.87-2.48-1.17-.26-.1-.38.32-.12.41Z"/><path class="cls-7" d="M27.46,30.48a5.69,5.69,0,0,0,1.45.93c.25.13.47-.24.22-.37a5.22,5.22,0,0,1-1.36-.86c-.2-.19-.5.11-.31.3Z"/><path class="cls-7" d="M30.1,34.25c.71-.27,1.46-.41,2.18-.64.26-.08.15-.5-.12-.41-.72.23-1.46.37-2.17.64-.26.1-.15.51.11.41Z"/><path class="cls-7" d="M27.21,32.28a1.49,1.49,0,0,0,1,.44.21.21,0,1,0,0-.42,1,1,0,0,1-.74-.33.22.22,0,0,0-.3.31Z"/><path class="cls-7" d="M30.5,30a10.6,10.6,0,0,0,2.74.39.22.22,0,0,0,0-.43,10.7,10.7,0,0,1-2.63-.37c-.26-.08-.37.33-.11.41Z"/><path class="cls-7" d="M36.37,31.67a8.55,8.55,0,0,0,1,1.84c.16.22.53,0,.37-.21a7.93,7.93,0,0,1-1-1.74c-.11-.25-.52-.14-.41.11Z"/><path class="cls-7" d="M34.34,34.92c.27.55.5,1.11.77,1.66.12.25.49,0,.37-.21-.27-.55-.5-1.12-.77-1.67-.12-.24-.49,0-.37.22Z"/><path class="cls-7" d="M32.6,38h1.67a.22.22,0,0,0,0-.43H32.6a.22.22,0,0,0,0,.43Z"/><path class="cls-7" d="M35.68,39.76a.22.22,0,0,0,0-.43.22.22,0,0,0,0,.43Z"/><path class="cls-7" d="M35.68,39.76a8.11,8.11,0,0,0,1.84-.14c.27-.06.16-.47-.11-.41a7.75,7.75,0,0,1-1.73.12.22.22,0,0,0,0,.43Z"/><path class="cls-7" d="M41.36,39.11a6.93,6.93,0,0,0,2.36-.66c.24-.14,0-.5-.22-.37a6.79,6.79,0,0,1-2.25.62c-.27,0-.16.46.11.41Z"/><path class="cls-7" d="M40.67,35.79a11.4,11.4,0,0,0,2.1-.13c.27,0,.15-.46-.11-.41a11.08,11.08,0,0,1-2,.12.21.21,0,0,0,0,.42Z"/><path class="cls-7" d="M41.82,32.34a2.7,2.7,0,0,1,1.42.35c.24.15.45-.22.22-.37a3.22,3.22,0,0,0-1.64-.41.22.22,0,0,0,0,.43Z"/><path class="cls-7" d="M47.34,34.36c.55.27,1.11.49,1.66.76.25.12.46-.24.22-.36-.55-.27-1.12-.5-1.67-.77-.24-.12-.46.24-.21.37Z"/><path class="cls-7" d="M46.06,37.94a8.2,8.2,0,0,0,1.59.66.21.21,0,0,0,.11-.41,8,8,0,0,1-1.48-.62c-.25-.12-.47.25-.22.37Z"/><path class="cls-7" d="M48.93,42.18a10.82,10.82,0,0,0,2,.14.22.22,0,0,0,0-.43A9.69,9.69,0,0,1,49,41.77c-.27-.05-.38.36-.11.41Z"/><path class="cls-7" d="M52.64,41.16a2,2,0,0,0,1.74-.57c.2-.19-.1-.49-.3-.3a1.48,1.48,0,0,1-1.33.46c-.27,0-.38.36-.11.41Z"/><path class="cls-7" d="M50.65,38.61a11.41,11.41,0,0,0,2.1-.14c.27,0,.16-.46-.11-.41a11.08,11.08,0,0,1-2,.12.22.22,0,0,0,0,.43Z"/><path class="cls-7" d="M54.61,36.3h1.54a.21.21,0,0,0,0-.42H54.61a.21.21,0,0,0,0,.42Z"/><path class="cls-7" d="M56.45,39.47a8,8,0,0,0,.67,1.85c.12.24.48,0,.36-.22a7.05,7.05,0,0,1-.61-1.74c-.06-.27-.47-.15-.42.11Z"/><path class="cls-7" d="M56.09,42.72l.39.77c.12.25.49,0,.36-.21s-.25-.52-.38-.77-.49,0-.37.21Z"/><path class="cls-7" d="M8.35,45.51a14.08,14.08,0,0,1,2.25-.12.22.22,0,0,0,0-.43,15.5,15.5,0,0,0-2.36.14c-.27,0-.16.45.11.41Z"/><path class="cls-7" d="M14.28,45.84a21.71,21.71,0,0,1,1.54,1.79c.17.21.47-.09.3-.3a21.87,21.87,0,0,0-1.53-1.79.22.22,0,0,0-.31.3Z"/><path class="cls-7" d="M11.69,48.45a2.32,2.32,0,0,1,1,.8c.15.22.52,0,.36-.22a2.67,2.67,0,0,0-1.28-1c-.25-.09-.37.32-.11.41Z"/><path class="cls-7" d="M7.31,47.22a1.8,1.8,0,0,0,.58,1.18c.19.19.49-.11.3-.3a1.39,1.39,0,0,1-.45-.88c0-.27-.44-.27-.43,0Z"/><path class="cls-7" d="M15.46,51.53a.22.22,0,0,0,0-.43.22.22,0,0,0,0,.43Z"/><path class="cls-7" d="M15.66,51.52a14,14,0,0,0,2.23.27.22.22,0,0,0,0-.43,13.78,13.78,0,0,1-2.12-.25c-.27,0-.38.37-.11.41Z"/><path class="cls-7" d="M19.17,50a6.19,6.19,0,0,0,2.1-.27c.26-.09.15-.51-.11-.41a5.56,5.56,0,0,1-2,.25.22.22,0,0,0,0,.43Z"/><path class="cls-7" d="M19.24,46.79a15.49,15.49,0,0,0,2.36.13.21.21,0,0,0,0-.42,15.43,15.43,0,0,1-2.25-.12c-.26,0-.38.37-.11.41Z"/><path class="cls-7" d="M25.44,53.71A4.92,4.92,0,0,0,28,52.78c.23-.15,0-.52-.22-.37a4.37,4.37,0,0,1-2.32.87.22.22,0,0,0,0,.43Z"/><path class="cls-7" d="M24.86,50.66a6.39,6.39,0,0,1,1.33-1.21c.21-.16,0-.53-.22-.36a7,7,0,0,0-1.48,1.35c-.17.22.2.43.37.22Z"/><path class="cls-7" d="M30.86,50.86a17.38,17.38,0,0,0,.77,2.31c.09.25.5.14.41-.12a16.78,16.78,0,0,1-.77-2.3c-.05-.27-.46-.16-.41.11Z"/><path class="cls-7" d="M36.29,50.7a6.46,6.46,0,0,1,.74,1c.15.23.52,0,.36-.21a6.93,6.93,0,0,0-.8-1.07c-.19-.2-.49.1-.3.3Z"/><path class="cls-7" d="M35.55,55a.22.22,0,0,0,0-.43.22.22,0,0,0,0,.43Z"/><path class="cls-7" d="M35.49,55a6,6,0,0,0,2.1.26.22.22,0,0,0,0-.43,5.61,5.61,0,0,1-2-.24c-.25-.1-.36.31-.11.41Z"/><path class="cls-7" d="M43.15,56.51c.48-.11,1-.23,1.41-.38.26-.09.15-.5-.11-.41-.47.15-.94.26-1.41.38a.21.21,0,0,0,.11.41Z"/><path class="cls-7" d="M40.65,54.06a6.51,6.51,0,0,0,1.7-1.44c.17-.21-.13-.52-.3-.3a6.09,6.09,0,0,1-1.62,1.37.22.22,0,0,0,.22.37Z"/><path class="cls-7" d="M42.14,50.5a11.32,11.32,0,0,0,1.8.64c.26.06.38-.35.11-.41a11.21,11.21,0,0,1-1.79-.64c-.26-.11-.37.31-.12.41Z"/><path class="cls-7" d="M46.47,52.27a9.32,9.32,0,0,0,.79,2.48c.12.25.49,0,.37-.21a9.15,9.15,0,0,1-.75-2.38c0-.27-.45-.16-.41.11Z"/><path class="cls-7" d="M45.16,54.19a7.37,7.37,0,0,0,2,.92c.27.06.39-.36.12-.42a6.25,6.25,0,0,1-1.87-.87.22.22,0,0,0-.22.37Z"/><path class="cls-7" d="M47.89,58.69a30.79,30.79,0,0,1,3.58-.77c.27-.05.16-.46-.11-.41a31.41,31.41,0,0,0-3.59.77.21.21,0,0,0,.12.41Z"/><path class="cls-7" d="M51.34,55.87a8.2,8.2,0,0,0,1.59-.66c.24-.12,0-.49-.22-.37a8,8,0,0,1-1.48.62.21.21,0,0,0,.11.41Z"/><path class="cls-7" d="M49.42,52.67a12.3,12.3,0,0,1,3.15,0c.27,0,.27-.42,0-.42a12.27,12.27,0,0,0-3.26,0,.21.21,0,0,0,.11.41Z"/><path class="cls-7" d="M55,53.64c.71.71,1.42,1.41,2.18,2,.21.18.51-.12.3-.3-.76-.64-1.47-1.34-2.17-2-.2-.19-.5.11-.31.3Z"/><path class="cls-7" d="M55.27,57.77a3.55,3.55,0,0,0,2,.8c.27,0,.27-.42,0-.43a3.2,3.2,0,0,1-1.81-.74c-.22-.16-.44.21-.22.37Z"/><path class="cls-7" d="M58.5,54.19a11,11,0,0,1,.12,2,.22.22,0,0,0,.43,0,11.29,11.29,0,0,0-.14-2.1c0-.27-.46-.16-.41.11Z"/></svg>