<svg id="Graphic_Elements" data-name="Graphic Elements" xmlns="http://www.w3.org/2000/svg" viewBox="0 0 64 72"><defs><style>.cls-1{fill:#efc5ad;}.cls-2{fill:#c0a495;}.cls-3{fill:#dc7572;}.cls-4,.cls-8{fill:#c26868;}.cls-4,.cls-7{opacity:0.7;}.cls-5{fill:#e08d80;}.cls-6{fill:#634236;}.cls-9{fill:#7f5543;}</style></defs><path class="cls-1" d="M7.93,32.83,24,12.9s9.8-1.1,17,.28a57.76,57.76,0,0,1,14.42,5.27Z"/><path class="cls-2" d="M54.08,16.07,22.18,13.9c-.29.87-.79,3.32-.06,3.94a3.82,3.82,0,0,0,2.67.75,19.29,19.29,0,0,0,3-.36,15.52,15.52,0,0,1,2.66-.72c-.13,1.8,2.24,2,3.61,1.94A11.53,11.53,0,0,0,38.5,18c0,.76-.15,1.22.62,1.58a13.81,13.81,0,0,0,3.45.84,6.31,6.31,0,0,0,3.48-1c0,1.21.32,1.47,1.56,1.67A15.31,15.31,0,0,0,51,21.3a4.85,4.85,0,0,0,3.17-1.05C54.5,19.89,55,16.14,54.08,16.07Z"/><path class="cls-3" d="M24,24.18c-.78-2.34-3.33-4.95-6.17-5,2.24,1-3.25,3.88-4,4.58s-1.41,1.91-.75,2.82c.21,1.17,2.67,2,4.49,1.86C20.56,28.18,25.27,28,24,24.18Z"/><path class="cls-4" d="M19.57,19.57c.28.25.64.51.81.66a4.31,4.31,0,0,1,1.26,2,3.8,3.8,0,0,1-.58,3.82,3,3,0,0,0-.12-2.18c-.25.93-1.16,2.37-2.42,2.31A2.24,2.24,0,0,0,19,24.29a5.47,5.47,0,0,1-.81,1.15,6,6,0,0,1-2.24,1c.3-.29.68-.69.54-1.09-.25.17-.32.51-.61.68a4.54,4.54,0,0,1-1.71.52c-.34,0-.76,0-1.13,0l.06.1c.21,1.17,2.67,2,4.49,1.86,3-.23,7.7-.36,6.4-4.23A8,8,0,0,0,19.57,19.57Z"/><path class="cls-5" d="M17.5,21.94c-.24.58-1.1.86-1.67,1.13-.32.14-.79.33-.7.72s.67.37,1,.25a4,4,0,0,0,2-1.48c.55-.86-.89-1-.92-.19Z"/><polygon class="cls-6" points="7.92 32.83 8.36 65 55.8 49.29 55.46 18.45 7.92 32.83"/><path class="cls-3" d="M8.44,54.68l-.23.17A1.37,1.37,0,0,0,8.44,54.68Z"/><path class="cls-3" d="M55.52,29.49c-1.26.32-2.66,1.35-3.9,1.83-1.49.59-3.19.47-4.6,1.5-1.15.85-1.7,2.21-3,2.84s-2.94.53-4.27.84c-2,.47-3.6,1.88-5.62,2.54-2.78.9-4.77,2.61-7.22,4-3.2,1.86-7.31.47-10.63,2.68C13.67,47.46,11.1,48.07,8.14,49l.07,5.86c-.08.08.31-.25.23-.17,2.58-1.92,6.45-1.13,9.42-2.33A59.08,59.08,0,0,0,23.75,49a24.84,24.84,0,0,1,6.05-1.94,66.54,66.54,0,0,0,11.56-4.4,46.14,46.14,0,0,1,6.82-2.56,38.4,38.4,0,0,0,3.65-1.64c1-.42,3.7,0,3.72-1C55.56,36.19,55.53,31.12,55.52,29.49Z"/><path class="cls-5" d="M31.05,42.34a3.29,3.29,0,0,0-2.34,1.4,4.48,4.48,0,0,1-2.46,1.74c-1.49.38-2.9.05-4.4.11a5.41,5.41,0,0,0-3.27.74c-1,.75-1.49,1.88-2.54,2.56-1.81,1.17-4.68.28-6.18,2-.82.24-1.55.61-1.32,1.13.37.83,2.59-.56,3.36-.67,2.15-.31,4.3-.45,6.25-1.61,1.23-.73,2.37-2,3.79-2.33.8-.16,1.62-.06,2.41-.26s1.4-.55,2.12-.75c.94-.27,2-.29,2.91-.58S31.75,45,32.25,44,32,42.38,31.05,42.34Z"/><path class="cls-5" d="M52.25,32.23c-2,.71-3.38,2.07-5,3.36s-2.83,1-4.54,1.42S39,38.57,37.12,39.08c-1.54.41-3.65,1.28-3.58,3.21a1.3,1.3,0,0,0,.34,0c.43.37,2.09,0,2.45-.12,1.64-.65,2.87-2,4.57-2.59,2.25-.84,4.49-1.07,6.54-2.35,1-.6,1.76-.37,2.84-.69a16.34,16.34,0,0,0,2.54-1.2C54.59,34.4,54.74,31.36,52.25,32.23Z"/><polygon class="cls-2" points="7.92 32.83 55.46 18.29 55.5 22.07 7.96 35.74 7.92 32.83"/><path class="cls-3" d="M50.82,12.82c.28-2.75-2.89-3.83-4.67-3.94-2.42-.14-2.76,1.21-3.38,1.72-2.38-4.06-9.49-5.17-12.08-.79C28.57,7.87,25.16,7,22.78,9.1a5.13,5.13,0,0,0-1.84,4.12c0,.39.63,3.18,1.75,3.56,2.09.73,4.47,1.18,8.93-1.51.26,3.28,6.08,2,7.72.76.62,1.63.85,2.09,2.71,2.72,2.2.75,4.49.39,5.22-.86.13,1.42.91,1.93,2.77,2.06,1.57.11,3.87-.19,5.1-1.25C57.65,16.55,54.73,9.89,50.82,12.82ZM25.07,11.71l.16-.2A1,1,0,0,1,25.07,11.71Z"/><g class="cls-7"><path class="cls-8" d="M55.62,14.31a2.83,2.83,0,0,1-.91,1.86c-1.23,1.06-3.53,1.36-5.1,1.25-1.86-.13-2.64-.64-2.77-2.06-.73,1.25-3,1.61-5.22.86-1.86-.63-2.09-1.09-2.72-2.72-1.63,1.27-7.45,2.52-7.71-.76-4.46,2.69-6.85,2.24-8.93,1.52-.57-.2-1-1-1.29-1.81a4.91,4.91,0,0,0,0,.77c0,.39.63,3.18,1.75,3.56,2.09.73,4.47,1.18,8.93-1.51.26,3.28,6.08,2,7.72.76.62,1.63.85,2.09,2.71,2.72,2.2.75,4.49.39,5.22-.86.13,1.42.91,1.93,2.77,2.06,1.57.11,3.87-.19,5.1-1.25S56.3,15.82,55.62,14.31Z"/></g><path class="cls-5" d="M22.89,10.66a2.2,2.2,0,0,0-.21,1.81c.71,2.18,3.33,1.13,4.26-.23C29.13,9,23.38,8,22.89,10.66Z"/><path class="cls-5" d="M37.49,8.07a6,6,0,0,0-3.06,0c-3.23,0-3.27,5.74.07,4.36,1.17-.48,1.64-1.81,2.8-2.28.6-.25,1.25-.06,1.35-.9S38.14,8.24,37.49,8.07Z"/><path class="cls-5" d="M47.93,10.69c-.43-1.12-2.54-.94-3.36-.51a2.27,2.27,0,0,0-.68.52,3.58,3.58,0,0,0-1.58,1.71.87.87,0,0,0,.85,1.27c.79,0,1.31-.64,2-1S48.45,12,47.93,10.69Z"/><path class="cls-5" d="M51.83,13a8.49,8.49,0,0,0-3,1.39c-1.76,1.19,1,1.61,2,1.39S54,15.06,54,13.94,52.72,12.7,51.83,13Z"/><path class="cls-9" d="M11.18,37.65c.68-.13,1.34-.33,2-.44.25,0,.15-.42-.1-.38-.68.1-1.34.31-2,.44-.25,0-.15.43.1.38Z"/><path class="cls-9" d="M11.71,41.23A2.44,2.44,0,0,1,13,40c.24-.09.14-.47-.09-.38A2.74,2.74,0,0,0,11.38,41c-.11.23.23.43.33.2Z"/><path class="cls-9" d="M10.75,39l1.07,0a.2.2,0,0,0,0-.4l-1.06,0a.2.2,0,0,0,0,.4Z"/><path class="cls-9" d="M10,44.26a.2.2,0,0,0,0-.4.2.2,0,0,0,0,.4Z"/><path class="cls-9" d="M10,44.25l1.42.38a.2.2,0,0,0,.11-.38l-1.41-.38c-.25-.06-.36.32-.12.38Z"/><path class="cls-9" d="M14.61,45.18a5.66,5.66,0,0,1,1.25-1.09c.2-.15,0-.49-.2-.35A6.83,6.83,0,0,0,14.27,45c-.16.19.18.4.34.2Z"/><path class="cls-9" d="M16.49,41.5a5.22,5.22,0,0,0,1.24-1,.2.2,0,0,0-.28-.28,4.59,4.59,0,0,1-1.16.89c-.22.12,0,.46.2.35Z"/><path class="cls-9" d="M18.5,35.05l1.78,0a.2.2,0,0,0,0-.39l-1.77,0a.2.2,0,0,0,0,.39Z"/><path class="cls-9" d="M25.33,37.17a.2.2,0,0,0,0-.39.2.2,0,0,0,0,.39Z"/><path class="cls-9" d="M25.38,37.17A6.23,6.23,0,0,1,26.87,37a.2.2,0,0,0,0-.39,6.61,6.61,0,0,0-1.59.21c-.25.06-.15.44.1.39Z"/><path class="cls-9" d="M24.12,42l.73-1.41c.12-.22-.22-.43-.34-.2l-.73,1.41c-.12.22.22.43.34.2Z"/><path class="cls-9" d="M21.57,38.79c.26-.38.47-.79.73-1.17.14-.21-.2-.42-.34-.21-.26.38-.47.79-.73,1.17-.14.21.2.42.34.21Z"/><path class="cls-9" d="M26.46,32.82l1.54,0a.2.2,0,0,0,0-.39l-1.53,0a.2.2,0,0,0,0,.4Z"/><path class="cls-9" d="M30.21,34.65a1.72,1.72,0,0,1,1,.22c.21.14.41-.2.2-.33a2.13,2.13,0,0,0-1.16-.29.2.2,0,0,0,0,.4Z"/><path class="cls-9" d="M29.77,40.2a.2.2,0,0,0,0-.39.2.2,0,0,0,0,.39Z"/><path class="cls-9" d="M29.94,40.1a7.8,7.8,0,0,0,.64-1.45.2.2,0,0,0-.38-.11,7.46,7.46,0,0,1-.59,1.36c-.12.23.22.43.33.2Z"/><path class="cls-9" d="M28,35.56a1,1,0,0,0,.62-.29c.19-.17-.09-.45-.27-.28a.76.76,0,0,1-.19.12.2.2,0,0,1-.08,0h0c-.06,0,0,0,0,0-.25,0-.26.41,0,.4Z"/><path class="cls-9" d="M33,32.63l.84-.82a.2.2,0,0,0-.28-.28l-.84.81c-.18.18.1.46.28.29Z"/><path class="cls-9" d="M34.84,30l1.77-.33c.25-.05.15-.43-.09-.38l-1.78.32c-.25,0-.15.43.1.39Z"/><path class="cls-9" d="M40.91,31.51a7.09,7.09,0,0,0,1.59-.22.2.2,0,0,0-.1-.38,6.78,6.78,0,0,1-1.49.21.2.2,0,0,0,0,.39Z"/><path class="cls-9" d="M39.28,34.18a2.29,2.29,0,0,1,.56-.85c.18-.18-.1-.47-.28-.29a2.94,2.94,0,0,0-.66,1c-.09.23.29.34.38.11Z"/><path class="cls-9" d="M36.07,35.85a3.12,3.12,0,0,1,.23-1.32c.11-.23-.23-.43-.34-.2a3.54,3.54,0,0,0-.29,1.51.2.2,0,0,0,.4,0Z"/><path class="cls-9" d="M43.69,27.77a.2.2,0,0,0,0-.39.2.2,0,0,0,0,.39Z"/><path class="cls-9" d="M43.69,27.77l1.89,0a.2.2,0,0,0,0-.39l-1.9,0a.2.2,0,0,0,0,.39Z"/><path class="cls-9" d="M45.13,32.26c.38-.25.71-.56,1.08-.81.21-.14,0-.48-.19-.34-.38.24-.7.56-1.08.81-.21.14,0,.48.19.34Z"/><path class="cls-9" d="M50.75,29.54A1.8,1.8,0,0,0,52,29.15c.19-.17-.08-.46-.27-.29a1.39,1.39,0,0,1-.93.28c-.25,0-.26.4,0,.4Z"/><path class="cls-9" d="M51.35,25.76a6.22,6.22,0,0,0,1.47.26.2.2,0,0,0,0-.39,6.36,6.36,0,0,1-1.37-.25.2.2,0,0,0-.11.38Z"/><path class="cls-9" d="M13.62,58.36c.52-.25,1-.51,1.55-.8a.2.2,0,0,0-.2-.35c-.5.29-1,.55-1.55.81-.23.11,0,.45.2.34Z"/><path class="cls-9" d="M12.15,56.65a1.92,1.92,0,0,1,.43-.32c.23-.11,0-.45-.19-.34a2.39,2.39,0,0,0-.52.38c-.18.17.09.46.28.28Z"/><path class="cls-9" d="M11.15,61.92c.1-.21.19-.52.41-.64a.19.19,0,0,0-.19-.34,1.55,1.55,0,0,0-.56.77c-.12.23.22.43.34.21Z"/><path class="cls-9" d="M19.67,58a13,13,0,0,0,2.07-.09c.25,0,.15-.42-.1-.38a12.86,12.86,0,0,1-2,.08.2.2,0,0,0,0,.39Z"/><path class="cls-9" d="M19.94,54.68a6.74,6.74,0,0,0,1-.84c.18-.18-.09-.46-.27-.29a6.22,6.22,0,0,1-.92.78c-.21.14,0,.49.19.35Z"/><path class="cls-9" d="M24.86,51.24a.2.2,0,0,0,0-.4.2.2,0,0,0,0,.4Z"/><path class="cls-9" d="M24.81,51.23a6.49,6.49,0,0,1,1.25.59c.22.12.43-.22.2-.34a7.44,7.44,0,0,0-1.34-.63c-.24-.07-7.06,1.5-.11.38Z"/><path class="cls-9" d="M24.58,55.34c.2.11.38.26.59.37s.42-.22.2-.34-.38-.25-.58-.36-.43.21-.21.33Z"/><path class="cls-9" d="M27.48,56.45a6.57,6.57,0,0,0,1.28-1.35c.15-.2-.19-.4-.34-.2a6.19,6.19,0,0,1-1.13,1.21c-.2.15,0,.5.19.34Z"/><path class="cls-9" d="M28.15,53.83a13.85,13.85,0,0,1,1.28-1c.2-.15,0-.49-.19-.34a11.63,11.63,0,0,0-1.36,1.07c-.18.17.09.46.27.28Z"/><path class="cls-9" d="M28.92,49.17a14.75,14.75,0,0,0,2.3-.09c.25,0,.15-.41-.1-.38a14.67,14.67,0,0,1-2.2.08.2.2,0,0,0,0,.39Z"/><path class="cls-9" d="M36,53.13a5.49,5.49,0,0,1,1.39-.89c.23-.11,0-.46-.19-.35a6,6,0,0,0-1.47,1c-.19.17.08.45.27.28Z"/><path class="cls-9" d="M32.69,54.17a4.87,4.87,0,0,1,.47-1c.14-.21-.19-.41-.33-.2a4.58,4.58,0,0,0-.51,1.1c-.09.24.29.35.37.11Z"/><path class="cls-9" d="M35.56,49.25a8.38,8.38,0,0,0,1.68,1c.24.1.34-.28.11-.38a8,8,0,0,1-1.59-.95c-.2-.16-.4.18-.2.33Z"/><path class="cls-9" d="M39.2,46.17a1.49,1.49,0,0,0,1.22.7.2.2,0,0,0,0-.39,1.07,1.07,0,0,1-.88-.51c-.15-.21-.49,0-.35.2Z"/><path class="cls-9" d="M42,50.42a10.8,10.8,0,0,0,1.55-.8c.21-.15,0-.49-.19-.35a9.93,9.93,0,0,1-1.55.81c-.23.11,0,.45.19.34Z"/><path class="cls-9" d="M42.83,47.38c.57-.11,1.11-.31,1.67-.45a.2.2,0,0,0-.1-.38c-.56.14-1.1.34-1.66.45-.25,0-.15.43.09.38Z"/><path class="cls-9" d="M45,43.64a9.15,9.15,0,0,1,1.72.25c.24.06.36-.32.11-.38A10.25,10.25,0,0,0,45,43.24a.2.2,0,0,0,0,.4Z"/><path class="cls-9" d="M51.47,42.26a3.65,3.65,0,0,0,1.73,1.15c.24.08.35-.3.11-.38a3.31,3.31,0,0,1-1.55-1c-.16-.2-.44.07-.29.27Z"/><path class="cls-9" d="M49.82,46.24a4.24,4.24,0,0,0,.1,1.23.2.2,0,0,0,.38-.1,3.87,3.87,0,0,1-.09-1.13.2.2,0,0,0-.39,0Z"/><path class="cls-9" d="M49.3,43.37a1.4,1.4,0,0,0,.53.67.2.2,0,0,0,.2-.34,1.08,1.08,0,0,1-.39-.52c-.11-.23-.45,0-.34.19Z"/><path class="cls-9" d="M53.48,46.06a1.62,1.62,0,0,0,.26.69c.11.23.45,0,.34-.19a1.15,1.15,0,0,1-.2-.5.2.2,0,0,0-.4,0Z"/><path class="cls-9" d="M53.46,40.38a.85.85,0,0,0,.44.77.2.2,0,0,0,.2-.34.47.47,0,0,1-.25-.42.2.2,0,0,0-.39,0Z"/></svg>