<svg id="Graphic_Elements" data-name="Graphic Elements" xmlns="http://www.w3.org/2000/svg" viewBox="0 0 64 72"><defs><style>.cls-1{fill:#bd7e37;}.cls-2{fill:#9e3a0e;opacity:0.76;}.cls-3,.cls-7{fill:#8b2f0e;}.cls-3{opacity:0.87;}.cls-4{fill:#6d240f;}.cls-5,.cls-6{fill:#e4876f;}.cls-5{opacity:0.73;}.cls-6{opacity:0.78;}</style></defs><path class="cls-1" d="M6.48,43.15c0,.1.07.2.1.3a15.73,15.73,0,0,1-.52-3.19A11.28,11.28,0,0,0,6.48,43.15Z"/><path class="cls-1" d="M56.44,32l-.28-.24c.09.09.18.2.28.29Z"/><path class="cls-1" d="M39,62.6a4.68,4.68,0,0,0,.53.17,2.65,2.65,0,0,1-.5-.27Z"/><path class="cls-1" d="M36.74,65.27a2.65,2.65,0,0,0,1.71-1.46A3.27,3.27,0,0,1,36.74,65.27Z"/><polygon class="cls-1" points="55.02 31.27 55.02 31.27 55.02 31.27 55.02 31.27"/><path class="cls-1" d="M43.52,62.86a16.72,16.72,0,0,1-1.7.22A8.89,8.89,0,0,0,43.52,62.86Z"/><path class="cls-1" d="M55.8,51,55.23,52A5.72,5.72,0,0,0,55.8,51Z"/><path class="cls-1" d="M5.92,31.44c.25,1.47,3.33,2.21,4.51,1.95.8-.17.41.22-.22.52C6.31,35.73,6,40.78,7.09,44.32c.13.42.06.53-.07.37a29.42,29.42,0,0,0,8.41,11.49c1.93,1.66,12.25,8.3,18.51,9.19.05-.09.27-.18.59-.18A4.24,4.24,0,0,0,38.64,62c.12-.77.46-2,.49-2.53s.73-1.21.43-.62-.23,2.66-.37,3.18a5.7,5.7,0,0,0,3.94.47,2.57,2.57,0,0,1,1.23.08,12.94,12.94,0,0,0,5.45-3.89c-.22.14-.22,0,.2-.37a8.94,8.94,0,0,0,.85-1A14.59,14.59,0,0,0,51.73,56a10.32,10.32,0,0,0,1.14-4c.08-.67.37-.76.32,0,0,.3-.07,1.12-.1,1.42,1.22-.3,2.36-2.46,3-3.73a.92.92,0,0,1,.14-.21c0-.21.11-.43.16-.65V39.52l-.4-.43h0a32.13,32.13,0,0,0-4.3-3.86h0l-.09-.07-.07-.06c.2-.29.52-.82.82-1.3a3.7,3.7,0,0,1-1.18,1.32c1.82,2.18,5.73,5.06,4.68,6.31,0,0-.71-.36-.3,1.19.79,2.52.66,5.8-1.08,7.66a1,1,0,0,1-1.66-.7A11.37,11.37,0,0,0,52.3,46h0c-.39-1.2-.93-2.37-1.5-3.67l0,0a7.85,7.85,0,0,0-.38-.77c-.07-.13-.15-.26-.23-.39s-.15-.27-.24-.4-.24-.37-.37-.55L49.42,40c-.17-.23-.34-.45-.52-.66v0a6.11,6.11,0,0,0-2.17-1.77h0l-.15-.06c.49-.7,1.21-2.24,2-2.47-1,.29-1.35,1.6-2.08,2.3a5.16,5.16,0,0,0-2.37-.58,7,7,0,0,1,1.3.17c3.73,2.62,4.15,4.59,4.58,6.88.06.3.11.61.18.92l0,.15a9.66,9.66,0,0,0,.23,1h0c1.32,4.91,1.21,11.5-4.07,14.2a7.08,7.08,0,0,1-2.88.8,2.55,2.55,0,0,1-2.1,1.42c-.8,0-.63-1.17.05-1.17a2.94,2.94,0,0,0,1.39-.27,3.16,3.16,0,0,1-2.3-1.23c-.11-.15.17-5.47.19-8.11a13.27,13.27,0,0,0-.32-2.63c0-.11-.05-.21-.08-.32s-.08-.38-.13-.57-.07-.26-.1-.39-.09-.35-.14-.52l-.12-.43-.15-.52-.21-.74-.12-.41c-.06-.21-.11-.41-.17-.61s0-.21-.08-.31c-.16-.58-.29-1.14-.4-1.68,0-.08,0-.16,0-.24l-.09-.54a2.64,2.64,0,0,1,0-.28c0-.15,0-.31,0-.46V40.5c0-.14,0-.27,0-.41l0-.26c0-.13,0-.25.08-.37a2,2,0,0,1,.06-.23,2.21,2.21,0,0,1,.16-.35c0-.06.05-.12.08-.17a2.54,2.54,0,0,1,.36-.45s0-.06,0-.1a8.9,8.9,0,0,0-.69.84,6.58,6.58,0,0,0-1.21-3.26A7.87,7.87,0,0,1,38.45,39c-1,3,.33,6.81.61,10.58,0,.47,0,.94,0,1.41h0a43.86,43.86,0,0,1-.72,8.88c-.16,0,.13,0,0,.17-3.28,4.2-10.95.33-14.26-1.78-2.79-1.78-5-4.3-7.6-6.42a9.27,9.27,0,0,1-3.62-6.69l-.15,0c-.55,0-.34-1.77-.18-2.59-.6,1.5-1.09,3.13-1.71,4.73-.25.66-1.4.63-1.1-.14a35.54,35.54,0,0,1,2.75-5.48,12,12,0,0,0-1.42-4.22c-1.9-3.32,4.46-4.65,8-3.69a10.77,10.77,0,0,0,2.79.1c.85-.19,1.7-.35,2.52-.55h0l.53-.18L26,32.8A5.09,5.09,0,0,1,29.21,32l.13,0,.3.06c-.18-.12-.2-.28,0-.56a7.24,7.24,0,0,0,1.82-3.73c0,1.09-1.3,2.95-2,3.88-1.41-2.35-3.71,1-8.47,1.28-2.24.13-7.79-2.49-10.88-.29-1.58.07-3.48-.71-2.77-4.22,0-.54,1-1.46,1.27-2.05l-.07.06c-.49.44-1.95.6-1.42.14s1-.78,1.46-1.13c-.49-4.78,4.21-4.67,4.25-4.82a40,40,0,0,1,6.09-.31c.93,0,1.85.14,2.76.27a11.65,11.65,0,0,1,6,1l.66.11h0l-.47-.24c1.16-.51,1-1.33.83-3.16.1,1,.19,2.48-.76,3-2.79-1.43-7.11-1.77-10.81-1.78-1,0-3.39.43-4.37.37-.59,0-.74-.93-.75-.93-2,.76-.3-2.29-.06-2.82,1-2.12,3.91-4.29,6.28-4.26.13,0,1.52-.1,3.19-.05h.09c2,.08,4.43.39,5.49,1.4a3.55,3.55,0,0,1,1.25,2,4.25,4.25,0,0,0-1.45-2.58c.46-.1.42-.12.58-.57a1,1,0,0,1-.24.22,1.47,1.47,0,0,0-.11.21h0l0,0a16.51,16.51,0,0,0-8-1.56h0c-.64,0-1.29.07-1.94.14,0,0,0,.08,0,.13A39,39,0,0,0,13,13.92c-2.14,1.68-3.79,4-2.64,6.35a1.51,1.51,0,0,1,1.11-.13c.67.27.85.3.17.36A4.84,4.84,0,0,0,8.37,22c-.36.47-.63.56-.54.33A9.44,9.44,0,0,0,5.42,27,9.18,9.18,0,0,0,5.73,31C5.77,30.93,5.85,31,5.92,31.44Z"/><path class="cls-1" d="M51.06,35.17a.39.39,0,0,1-.24,0A.39.39,0,0,0,51.06,35.17Z"/><path class="cls-1" d="M8.31,34.2H8.19l.08,0Z"/><path class="cls-1" d="M39.9,37.63a4,4,0,0,0-.65.53,4.5,4.5,0,0,1,.61-.49A.08.08,0,0,1,39.9,37.63Z"/><path class="cls-1" d="M40.42,37.33a4.88,4.88,0,0,0-.51.29.91.91,0,0,0,.14-.07C40.17,37.48,40.28,37.4,40.42,37.33Z"/><path class="cls-1" d="M30.9,24.06a25.53,25.53,0,0,1,.6,3.72A25.53,25.53,0,0,0,30.9,24.06Z"/><path class="cls-1" d="M30.41,23l.11.13Z"/><path class="cls-1" d="M41.24,37l-.42.13h.06Z"/><path class="cls-1" d="M19.74,8.14C18,8.87,17.38,9.21,17.17,10a1.24,1.24,0,0,1,.1-.2A5,5,0,0,1,19.74,8.14Z"/><path class="cls-1" d="M41.5,36.94a7.72,7.72,0,0,1,1.08-.2A7.72,7.72,0,0,0,41.5,36.94Z"/><path class="cls-1" d="M30.7,23.38c0,.05.05.09.07.14S30.72,23.43,30.7,23.38Z"/><path class="cls-1" d="M29.19,22.11l.06,0Z"/><path class="cls-1" d="M49.83,34.93a6.54,6.54,0,0,1,1,.24A6.54,6.54,0,0,0,49.83,34.93Z"/><path class="cls-1" d="M52.84,33.07l.13-.2Z"/><path class="cls-1" d="M42.58,36.74a9.5,9.5,0,0,1,1.31-.06A9.5,9.5,0,0,0,42.58,36.74Z"/><path class="cls-1" d="M40.79,37.17l-.2.09.1,0Z"/><path class="cls-1" d="M29.63,22.34l.12.08Z"/><path class="cls-1" d="M30,22.61l.14.11Z"/><path class="cls-1" d="M35.94,34a9.07,9.07,0,0,0-5-1.69h0A10,10,0,0,1,35.94,34Z"/><path class="cls-2" d="M52.39,33.8l.45-.73Z"/><path class="cls-2" d="M53,32.87c.05-.06.09-.13.13-.17Z"/><path class="cls-2" d="M56.11,31.75A2.11,2.11,0,0,0,55,31.27a2.36,2.36,0,0,1,1.14.53A.12.12,0,0,1,56.11,31.75Z"/><path class="cls-2" d="M55,31.27a1.24,1.24,0,0,0-1.08.41A1.24,1.24,0,0,1,55,31.27Z"/><path class="cls-1" d="M51.64,35.16l-.07-.06a.51.51,0,0,0,.46-.28c.47-.83.93-2.1,1.81-2.57a1.84,1.84,0,0,1,2.07.35,1.87,1.87,0,0,1,.53.6V32.09c-.1-.09-.19-.2-.28-.29A2.36,2.36,0,0,0,55,31.27h0a1.24,1.24,0,0,0-1.08.41c-.28.27-.52.65-.84,1,0,0-.08.11-.13.17l-.13.2-.45.73c-.3.48-.62,1-.82,1.3Z"/><path class="cls-2" d="M51.64,35.16l-.07-.06a.51.51,0,0,0,.46-.28c.47-.83.93-2.1,1.81-2.57a1.84,1.84,0,0,1,2.07.35,1.87,1.87,0,0,1,.53.6V32.09c-.1-.09-.19-.2-.28-.29A2.36,2.36,0,0,0,55,31.27h0a1.24,1.24,0,0,0-1.08.41c-.28.27-.52.65-.84,1,0,0-.08.11-.13.17l-.13.2-.45.73c-.3.48-.62,1-.82,1.3Z"/><path class="cls-1" d="M56.41,36.47a9.13,9.13,0,0,0-.13,1.76c-.08.29-.16.58-.24.85h0l.4.43V36.29Z"/><path class="cls-2" d="M56.41,36.47a9.13,9.13,0,0,0-.13,1.76c-.08.29-.16.58-.24.85h0l.4.43V36.29Z"/><path class="cls-2" d="M51.21,35.12l-.15.05a.44.44,0,0,0,.15-.05Z"/><path class="cls-2" d="M49.12,34.88a4.17,4.17,0,0,1,.71,0A4.17,4.17,0,0,0,49.12,34.88Z"/><path class="cls-1" d="M49.56,40.14,49.42,40Z"/><path class="cls-2" d="M49.56,40.14,49.42,40Z"/><path class="cls-1" d="M48.9,39.29v0Z"/><path class="cls-2" d="M48.9,39.29v0Z"/><path class="cls-1" d="M50.17,41.09c-.08-.13-.15-.27-.24-.4C50,40.82,50.09,41,50.17,41.09Z"/><path class="cls-2" d="M50.17,41.09c-.08-.13-.15-.27-.24-.4C50,40.82,50.09,41,50.17,41.09Z"/><path class="cls-1" d="M50.78,42.25a7.85,7.85,0,0,0-.38-.77A7.85,7.85,0,0,1,50.78,42.25Z"/><path class="cls-2" d="M50.78,42.25a7.85,7.85,0,0,0-.38-.77A7.85,7.85,0,0,1,50.78,42.25Z"/><path class="cls-1" d="M46.57,37.44l.15.06a.65.65,0,0,0,.39-.19.35.35,0,0,1,.22-.26,5.45,5.45,0,0,1,1.46-1.49,2.85,2.85,0,0,1,2.2.07.65.65,0,0,0,.24,0c4.75,3.6,4,4.71,3.48,5.46s-1.72.51-2.25,1.4c-.62,1,.13,2.35-.16,3.46a11.37,11.37,0,0,1,.55,3.63,1,1,0,0,0,1.66.7c1.74-1.86,1.87-5.14,1.08-7.66-.41-1.55.29-1.18.3-1.19,1-1.25-2.86-4.13-4.68-6.31a.44.44,0,0,1-.15.05.39.39,0,0,1-.24,0,6.54,6.54,0,0,0-1-.24,4.17,4.17,0,0,0-.71,0,2.12,2.12,0,0,0-.57.09C47.78,35.2,47.06,36.74,46.57,37.44Z"/><path class="cls-2" d="M46.57,37.44l.15.06a.65.65,0,0,0,.39-.19.35.35,0,0,1,.22-.26,5.45,5.45,0,0,1,1.46-1.49,2.85,2.85,0,0,1,2.2.07.65.65,0,0,0,.24,0c4.75,3.6,4,4.71,3.48,5.46s-1.72.51-2.25,1.4c-.62,1,.13,2.35-.16,3.46a11.37,11.37,0,0,1,.55,3.63,1,1,0,0,0,1.66.7c1.74-1.86,1.87-5.14,1.08-7.66-.41-1.55.29-1.18.3-1.19,1-1.25-2.86-4.13-4.68-6.31a.44.44,0,0,1-.15.05.39.39,0,0,1-.24,0,6.54,6.54,0,0,0-1-.24,4.17,4.17,0,0,0-.71,0,2.12,2.12,0,0,0-.57.09C47.78,35.2,47.06,36.74,46.57,37.44Z"/><path class="cls-2" d="M40.42,37.33l.17-.07Z"/><polygon class="cls-2" points="39.25 38.16 39.25 38.16 39.25 38.16 39.25 38.16"/><path class="cls-2" d="M43.89,36.68h0Z"/><path class="cls-2" d="M41.24,37l.26-.08Z"/><path class="cls-1" d="M38.5,40.09l0-.26Z"/><path class="cls-2" d="M38.5,40.09l0-.26Z"/><path class="cls-1" d="M39.86,37.67a4.5,4.5,0,0,0-.61.49h0A4,4,0,0,1,39.86,37.67Z"/><path class="cls-2" d="M39.86,37.67a4.5,4.5,0,0,0-.61.49h0A4,4,0,0,1,39.86,37.67Z"/><path class="cls-1" d="M38.68,42.3c0-.08,0-.16,0-.24C38.65,42.14,38.67,42.22,38.68,42.3Z"/><path class="cls-2" d="M38.68,42.3c0-.08,0-.16,0-.24C38.65,42.14,38.67,42.22,38.68,42.3Z"/><path class="cls-1" d="M38.61,39.46a2,2,0,0,1,.06-.23A2,2,0,0,0,38.61,39.46Z"/><path class="cls-2" d="M38.61,39.46a2,2,0,0,1,.06-.23A2,2,0,0,0,38.61,39.46Z"/><path class="cls-1" d="M39.16,44.29c0-.1,0-.21-.08-.31C39.11,44.08,39.13,44.19,39.16,44.29Z"/><path class="cls-2" d="M39.16,44.29c0-.1,0-.21-.08-.31C39.11,44.08,39.13,44.19,39.16,44.29Z"/><path class="cls-1" d="M39.45,45.31l-.12-.41Z"/><path class="cls-2" d="M39.45,45.31l-.12-.41Z"/><path class="cls-1" d="M39.81,46.57l-.15-.52Z"/><path class="cls-2" d="M39.81,46.57l-.15-.52Z"/><path class="cls-1" d="M50.16,44.66l0,.15Z"/><path class="cls-2" d="M50.16,44.66l0,.15Z"/><path class="cls-1" d="M38.83,38.88c0-.06.05-.12.08-.17S38.86,38.82,38.83,38.88Z"/><path class="cls-2" d="M38.83,38.88c0-.06.05-.12.08-.17S38.86,38.82,38.83,38.88Z"/><path class="cls-1" d="M40.3,48.48c0-.19-.08-.38-.13-.57C40.22,48.1,40.26,48.29,40.3,48.48Z"/><path class="cls-2" d="M40.3,48.48c0-.19-.08-.38-.13-.57C40.22,48.1,40.26,48.29,40.3,48.48Z"/><path class="cls-1" d="M50,43.69l0,.05h0c-.43-2.29-.85-4.26-4.58-6.88a7,7,0,0,0-1.3-.17h-.21a9.5,9.5,0,0,0-1.31.06,7.72,7.72,0,0,0-1.08.2l-.26.08-.36.13C45,36.73,48.45,39.94,50,43.69Z"/><path class="cls-2" d="M50,43.69l0,.05h0c-.43-2.29-.85-4.26-4.58-6.88a7,7,0,0,0-1.3-.17h-.21a9.5,9.5,0,0,0-1.31.06,7.72,7.72,0,0,0-1.08.2l-.26.08-.36.13C45,36.73,48.45,39.94,50,43.69Z"/><path class="cls-1" d="M40.69,37.22l-.1,0-.17.07c-.14.07-.25.15-.37.22A4.25,4.25,0,0,1,40.69,37.22Z"/><path class="cls-2" d="M40.69,37.22l-.1,0-.17.07c-.14.07-.25.15-.37.22A4.25,4.25,0,0,1,40.69,37.22Z"/><path class="cls-1" d="M40.07,47.52c0-.18-.09-.35-.14-.52C40,47.17,40,47.34,40.07,47.52Z"/><path class="cls-2" d="M40.07,47.52c0-.18-.09-.35-.14-.52C40,47.17,40,47.34,40.07,47.52Z"/><path class="cls-1" d="M38.49,40.78v0Z"/><path class="cls-2" d="M38.49,40.78v0Z"/><path class="cls-1" d="M50.63,46.66c-.12.05-.35-.06-.75-.28s-1-.66-1.54-1a2.82,2.82,0,0,0-2.42-.49c-2.36.76-2.83,4.76-5.38,4.74,0-.29-.1-.58-.16-.87a13.27,13.27,0,0,1,.32,2.63c0,2.64-.3,8-.19,8.11a3.16,3.16,0,0,0,2.3,1.23c2.38-1.2.47-6,.51-7.56,0-1.05.8-1.55.71-.76-.25,2.27.59,4.14.17,6.39a6,6,0,0,1-.73,1.95,7.08,7.08,0,0,0,2.88-.8c5.28-2.7,5.39-9.29,4.07-14.2h0Z"/><path class="cls-2" d="M50.63,46.66c-.12.05-.35-.06-.75-.28s-1-.66-1.54-1a2.82,2.82,0,0,0-2.42-.49c-2.36.76-2.83,4.76-5.38,4.74,0-.29-.1-.58-.16-.87a13.27,13.27,0,0,1,.32,2.63c0,2.64-.3,8-.19,8.11a3.16,3.16,0,0,0,2.3,1.23c2.38-1.2.47-6,.51-7.56,0-1.05.8-1.55.71-.76-.25,2.27.59,4.14.17,6.39a6,6,0,0,1-.73,1.95,7.08,7.08,0,0,0,2.88-.8c5.28-2.7,5.39-9.29,4.07-14.2h0Z"/><path class="cls-1" d="M38.55,41.52a2.64,2.64,0,0,1,0-.28A2.64,2.64,0,0,0,38.55,41.52Z"/><path class="cls-2" d="M38.55,41.52a2.64,2.64,0,0,1,0-.28A2.64,2.64,0,0,0,38.55,41.52Z"/><path class="cls-2" d="M29.64,32.07a4,4,0,0,0,1.31.28Z"/><path class="cls-2" d="M37.35,35.74A5.9,5.9,0,0,0,35.94,34,8.42,8.42,0,0,1,37.35,35.74Z"/><polygon class="cls-1" points="24.4 33.34 24.39 33.34 24.39 33.34 24.4 33.34"/><polygon class="cls-2" points="24.4 33.34 24.39 33.34 24.39 33.34 24.4 33.34"/><path class="cls-1" d="M25.76,32.9l.24-.1-1.07.36.76-.26Z"/><path class="cls-2" d="M25.76,32.9l.24-.1-1.07.36.76-.26Z"/><path class="cls-1" d="M29.21,32a1.5,1.5,0,0,1,.29.06c.61.18-.72.37-1.28.42-.16.09-.28.18-.43.26.65,0,1.3,0,2,0a.41.41,0,0,0,.19,0c.74,0,1.48.07,2.22.13,2.69.6,5,1.71,5.77,5a.66.66,0,0,0,.43.46,2.37,2.37,0,0,1,.09.68,7.87,7.87,0,0,0-1.1-3.27A8.42,8.42,0,0,0,35.94,34a10,10,0,0,0-5-1.69h0a4,4,0,0,1-1.31-.28l-.3-.06Z"/><path class="cls-2" d="M29.21,32a1.5,1.5,0,0,1,.29.06c.61.18-.72.37-1.28.42-.16.09-.28.18-.43.26.65,0,1.3,0,2,0a.41.41,0,0,0,.19,0c.74,0,1.48.07,2.22.13,2.69.6,5,1.71,5.77,5a.66.66,0,0,0,.43.46,2.37,2.37,0,0,1,.09.68,7.87,7.87,0,0,0-1.1-3.27A8.42,8.42,0,0,0,35.94,34a10,10,0,0,0-5-1.69h0a4,4,0,0,1-1.31-.28l-.3-.06Z"/><path class="cls-1" d="M31.57,43.84c-.69-2.38-2-5.23-4.31-6.49a5.25,5.25,0,0,0-2.61-.57c-.45,0-1,.11-1.6.17a1.93,1.93,0,0,1-.59.26c-1.47.36-2.31-.17-1.11-.49-1.32-.79-1.11-1.43-.5-1.94a6.32,6.32,0,0,0-1.94.63c-.71.4-.63-.1,0-.48a10.34,10.34,0,0,1,2.93-1,10.77,10.77,0,0,1-2.79-.1c-3.51-1-9.87.37-8,3.69a12,12,0,0,1,1.42,4.22,20.05,20.05,0,0,1,4.32-5.38c.66-.48.14.81-.5,1.21a9.44,9.44,0,0,0-3.66,4.81c-.12,1.52,1.48,2.61,3.66.23.54-.59,1.77-2.26,2-1.61s-3.42,3.95-5.41,4.2a9.27,9.27,0,0,0,3.62,6.69c2.56,2.12,4.81,4.64,7.6,6.42,3.31,2.11,11,6,14.26,1.78.12-.15-.17-.15,0-.17A43.86,43.86,0,0,0,39.11,51a.67.67,0,0,0-.21.1C34.9,54.25,32.24,46.15,31.57,43.84Z"/><path class="cls-2" d="M31.57,43.84c-.69-2.38-2-5.23-4.31-6.49a5.25,5.25,0,0,0-2.61-.57c-.45,0-1,.11-1.6.17a1.93,1.93,0,0,1-.59.26c-1.47.36-2.31-.17-1.11-.49-1.32-.79-1.11-1.43-.5-1.94a6.32,6.32,0,0,0-1.94.63c-.71.4-.63-.1,0-.48a10.34,10.34,0,0,1,2.93-1,10.77,10.77,0,0,1-2.79-.1c-3.51-1-9.87.37-8,3.69a12,12,0,0,1,1.42,4.22,20.05,20.05,0,0,1,4.32-5.38c.66-.48.14.81-.5,1.21a9.44,9.44,0,0,0-3.66,4.81c-.12,1.52,1.48,2.61,3.66.23.54-.59,1.77-2.26,2-1.61s-3.42,3.95-5.41,4.2a9.27,9.27,0,0,0,3.62,6.69c2.56,2.12,4.81,4.64,7.6,6.42,3.31,2.11,11,6,14.26,1.78.12-.15-.17-.15,0-.17A43.86,43.86,0,0,0,39.11,51a.67.67,0,0,0-.21.1C34.9,54.25,32.24,46.15,31.57,43.84Z"/><path class="cls-1" d="M26.84,12.42c-.85-.44-1.31-.88-2.14-1.29a8.38,8.38,0,0,0-4.5-.51,3.93,3.93,0,0,0-1.2.43,16.51,16.51,0,0,1,8.05,1.56l0,0-.21-.16Z"/><path class="cls-2" d="M26.84,12.42c-.85-.44-1.31-.88-2.14-1.29a8.38,8.38,0,0,0-4.5-.51,3.93,3.93,0,0,0-1.2.43,16.51,16.51,0,0,1,8.05,1.56l0,0-.21-.16Z"/><path class="cls-2" d="M28.29,15.31a25,25,0,0,1,.45,3A21,21,0,0,0,28.29,15.31Z"/><path class="cls-1" d="M27,13.28c-1.06-1-3.46-1.32-5.49-1.4.39,0,.79,0,1.2.07s.79.18,1.06.26c3.49,1,5.39,4.31,4,7.58A10.27,10.27,0,0,1,23,19.38c1-.31,1.95-.79,1.83-2-.15-1.54-2-2.59-3.25-3.1-.4-.16-.81-.27-1.21-.43-.86-.35-1.49-.35-1.08-1.23a1.35,1.35,0,0,1,1.05-.72h1.12c-1.67,0-3.06.05-3.19.05-2.37,0-5.3,2.14-6.28,4.26-.24.53-1.91,3.58.06,2.82,0,0,.16.9.75.93,1,.06,3.39-.37,4.37-.37,3.7,0,8,.35,10.81,1.78.95-.51.86-2,.76-3a25,25,0,0,0-.45-3A3.55,3.55,0,0,0,27,13.28Z"/><path class="cls-2" d="M27,13.28c-1.06-1-3.46-1.32-5.49-1.4.39,0,.79,0,1.2.07s.79.18,1.06.26c3.49,1,5.39,4.31,4,7.58A10.27,10.27,0,0,1,23,19.38c1-.31,1.95-.79,1.83-2-.15-1.54-2-2.59-3.25-3.1-.4-.16-.81-.27-1.21-.43-.86-.35-1.49-.35-1.08-1.23a1.35,1.35,0,0,1,1.05-.72h1.12c-1.67,0-3.06.05-3.19.05-2.37,0-5.3,2.14-6.28,4.26-.24.53-1.91,3.58.06,2.82,0,0,.16.9.75.93,1,.06,3.39-.37,4.37-.37,3.7,0,8,.35,10.81,1.78.95-.51.86-2,.76-3a25,25,0,0,0-.45-3A3.55,3.55,0,0,0,27,13.28Z"/><path class="cls-2" d="M29.25,22.14l.38.2Z"/><path class="cls-2" d="M29.75,22.42a2.9,2.9,0,0,1,.29.19A2.9,2.9,0,0,0,29.75,22.42Z"/><path class="cls-2" d="M30.52,23.08a1.83,1.83,0,0,1,.18.3A1.83,1.83,0,0,0,30.52,23.08Z"/><path class="cls-2" d="M30.77,23.52a1.86,1.86,0,0,1,.13.54A1.86,1.86,0,0,0,30.77,23.52Z"/><path class="cls-2" d="M29.19,22.11h0l-.81-.36.46.21Z"/><path class="cls-2" d="M30.18,22.72c.08.07.15.15.23.23C30.33,22.87,30.26,22.79,30.18,22.72Z"/><path class="cls-1" d="M28.84,22l-.46-.21h0Z"/><path class="cls-2" d="M28.84,22l-.46-.21h0Z"/><path class="cls-1" d="M29.22,30.73c-2.37-1.21-5.73,1.32-8.25,1a.64.64,0,0,0-.32.05.79.79,0,0,1,.1-.76c.24-.46,1.64-.94,2.12-1.32a4.06,4.06,0,0,0,1.62-2.86,4.63,4.63,0,0,0-.89-3.07,21.41,21.41,0,0,1-2.21-2.24,27,27,0,0,0-2.87.59c-.77.19-.56-1,.09-1.09,1.11-.2,2.05-.34,2.93-.42a0,0,0,0,1,0,0l.13,0h0c-.91-.13-1.83-.23-2.76-.27a40,40,0,0,0-6.09.31c0,.15-4.74,0-4.25,4.82a22.34,22.34,0,0,1,5.21-2.74c.77-.28.49.58-.22.63-2.59.19-3.17,1.39-5,3-.23.59-1.22,1.51-1.27,2.05-.71,3.51,1.19,4.29,2.77,4.22,3.09-2.2,8.64.42,10.88.29,4.76-.27,7.06-3.63,8.47-1.28.74-.93,2-2.79,2-3.88a25.53,25.53,0,0,0-.6-3.72,1.86,1.86,0,0,0-.13-.54c0-.05-.05-.09-.07-.14a1.83,1.83,0,0,0-.18-.3L30.41,23c-.08-.08-.15-.16-.23-.23L30,22.61a2.9,2.9,0,0,0-.29-.19l-.12-.08-.38-.2-.06,0h0C31.75,24.4,31.71,28.08,29.22,30.73Z"/><path class="cls-2" d="M29.22,30.73c-2.37-1.21-5.73,1.32-8.25,1a.64.64,0,0,0-.32.05.79.79,0,0,1,.1-.76c.24-.46,1.64-.94,2.12-1.32a4.06,4.06,0,0,0,1.62-2.86,4.63,4.63,0,0,0-.89-3.07,21.41,21.41,0,0,1-2.21-2.24,27,27,0,0,0-2.87.59c-.77.19-.56-1,.09-1.09,1.11-.2,2.05-.34,2.93-.42a0,0,0,0,1,0,0l.13,0h0c-.91-.13-1.83-.23-2.76-.27a40,40,0,0,0-6.09.31c0,.15-4.74,0-4.25,4.82a22.34,22.34,0,0,1,5.21-2.74c.77-.28.49.58-.22.63-2.59.19-3.17,1.39-5,3-.23.59-1.22,1.51-1.27,2.05-.71,3.51,1.19,4.29,2.77,4.22,3.09-2.2,8.64.42,10.88.29,4.76-.27,7.06-3.63,8.47-1.28.74-.93,2-2.79,2-3.88a25.53,25.53,0,0,0-.6-3.72,1.86,1.86,0,0,0-.13-.54c0-.05-.05-.09-.07-.14a1.83,1.83,0,0,0-.18-.3L30.41,23c-.08-.08-.15-.16-.23-.23L30,22.61a2.9,2.9,0,0,0-.29-.19l-.12-.08-.38-.2-.06,0h0C31.75,24.4,31.71,28.08,29.22,30.73Z"/><path class="cls-1" d="M51.73,35.23h0A32.13,32.13,0,0,1,56,39.09h0A32.14,32.14,0,0,0,51.73,35.23Z"/><path class="cls-3" d="M51.73,35.23h0A32.13,32.13,0,0,1,56,39.09h0A32.14,32.14,0,0,0,51.73,35.23Z"/><path class="cls-1" d="M51.64,35.16l.09.07h0Z"/><path class="cls-3" d="M51.64,35.16l.09.07h0Z"/><path class="cls-1" d="M56.28,38.23a9.13,9.13,0,0,1,.13-1.76l0-.18V33.2a1.87,1.87,0,0,0-.53-.6,1.84,1.84,0,0,0-2.07-.35C53,32.72,52.5,34,52,34.82a.51.51,0,0,1-.46.28l.07.06.09.07c-.24-.15-.1-.23.37,0,0,0,.8-.17.83-.16,1-.44,1.23-1.31,2-1.58s.55.32-.12.57A16.35,16.35,0,0,0,53,35.39a12.22,12.22,0,0,1,2.85,1.9c.44.53-.06,1.3-.42.72A6.21,6.21,0,0,0,52.1,35.4a1.9,1.9,0,0,1-.37-.17A32.14,32.14,0,0,1,56,39.09h0C56.12,38.81,56.2,38.52,56.28,38.23ZM55,34.77c0-.05-.48.08-.12-.15.56-.37.59-1.3,1-.72l.12.16C56.43,34.59,55.43,35.35,55,34.77Z"/><path class="cls-2" d="M56.28,38.23a9.13,9.13,0,0,1,.13-1.76l0-.18V33.2a1.87,1.87,0,0,0-.53-.6,1.84,1.84,0,0,0-2.07-.35C53,32.72,52.5,34,52,34.82a.51.51,0,0,1-.46.28l.07.06.09.07c-.24-.15-.1-.23.37,0,0,0,.8-.17.83-.16,1-.44,1.23-1.31,2-1.58s.55.32-.12.57A16.35,16.35,0,0,0,53,35.39a12.22,12.22,0,0,1,2.85,1.9c.44.53-.06,1.3-.42.72A6.21,6.21,0,0,0,52.1,35.4a1.9,1.9,0,0,1-.37-.17A32.14,32.14,0,0,1,56,39.09h0C56.12,38.81,56.2,38.52,56.28,38.23ZM55,34.77c0-.05-.48.08-.12-.15.56-.37.59-1.3,1-.72l.12.16C56.43,34.59,55.43,35.35,55,34.77Z"/><path class="cls-3" d="M56.28,38.23a9.13,9.13,0,0,1,.13-1.76l0-.18V33.2a1.87,1.87,0,0,0-.53-.6,1.84,1.84,0,0,0-2.07-.35C53,32.72,52.5,34,52,34.82a.51.51,0,0,1-.46.28l.07.06.09.07c-.24-.15-.1-.23.37,0,0,0,.8-.17.83-.16,1-.44,1.23-1.31,2-1.58s.55.32-.12.57A16.35,16.35,0,0,0,53,35.39a12.22,12.22,0,0,1,2.85,1.9c.44.53-.06,1.3-.42.72A6.21,6.21,0,0,0,52.1,35.4a1.9,1.9,0,0,1-.37-.17A32.14,32.14,0,0,1,56,39.09h0C56.12,38.81,56.2,38.52,56.28,38.23ZM55,34.77c0-.05-.48.08-.12-.15.56-.37.59-1.3,1-.72l.12.16C56.43,34.59,55.43,35.35,55,34.77Z"/><path class="cls-1" d="M46.72,37.5h0a6.11,6.11,0,0,1,2.17,1.77A6,6,0,0,0,46.72,37.5Z"/><path class="cls-3" d="M46.72,37.5h0a6.11,6.11,0,0,1,2.17,1.77A6,6,0,0,0,46.72,37.5Z"/><path class="cls-1" d="M49.42,40c-.17-.23-.34-.45-.52-.66C49.08,39.5,49.25,39.72,49.42,40Z"/><path class="cls-3" d="M49.42,40c-.17-.23-.34-.45-.52-.66C49.08,39.5,49.25,39.72,49.42,40Z"/><path class="cls-1" d="M50.4,41.48c-.07-.13-.15-.26-.23-.39C50.25,41.22,50.33,41.35,50.4,41.48Z"/><path class="cls-3" d="M50.4,41.48c-.07-.13-.15-.26-.23-.39C50.25,41.22,50.33,41.35,50.4,41.48Z"/><path class="cls-1" d="M50.78,42.25l0,0c.57,1.3,1.11,2.47,1.5,3.67h0c-.39-1.2-.93-2.37-1.5-3.67Z"/><path class="cls-3" d="M50.78,42.25l0,0c.57,1.3,1.11,2.47,1.5,3.67h0c-.39-1.2-.93-2.37-1.5-3.67Z"/><path class="cls-1" d="M49.93,40.69c-.12-.19-.24-.37-.37-.55C49.69,40.32,49.81,40.5,49.93,40.69Z"/><path class="cls-3" d="M49.93,40.69c-.12-.19-.24-.37-.37-.55C49.69,40.32,49.81,40.5,49.93,40.69Z"/><path class="cls-1" d="M52.46,42.49c.53-.89,1.73-.61,2.25-1.4s1.27-1.86-3.48-5.46a.65.65,0,0,1-.24,0,2.85,2.85,0,0,0-2.2-.07,5.45,5.45,0,0,0-1.46,1.49.74.74,0,0,1,.6,0c1.67.76,3.28,3.77,4,5.43.26.62,0,1.45-.83-1a7.62,7.62,0,0,0-3.67-3.86c-.23-.1-.3-.24-.28-.36a.65.65,0,0,1-.39.19,6,6,0,0,1,2.17,1.77v0c.18.21.35.43.52.66l.14.19c.13.18.25.36.37.55s.16.27.24.4.16.26.23.39a7.85,7.85,0,0,1,.38.77l0,0c.57,1.3,1.11,2.47,1.5,3.67C52.59,44.84,51.84,43.54,52.46,42.49ZM50.64,37.3c-.54-.44.86-.51,1.4-.07A7.08,7.08,0,0,1,53.6,39c.36.57.47,1.23.07.62C52.61,38,51.19,37.75,50.64,37.3Z"/><path class="cls-2" d="M52.46,42.49c.53-.89,1.73-.61,2.25-1.4s1.27-1.86-3.48-5.46a.65.65,0,0,1-.24,0,2.85,2.85,0,0,0-2.2-.07,5.45,5.45,0,0,0-1.46,1.49.74.74,0,0,1,.6,0c1.67.76,3.28,3.77,4,5.43.26.62,0,1.45-.83-1a7.62,7.62,0,0,0-3.67-3.86c-.23-.1-.3-.24-.28-.36a.65.65,0,0,1-.39.19,6,6,0,0,1,2.17,1.77v0c.18.21.35.43.52.66l.14.19c.13.18.25.36.37.55s.16.27.24.4.16.26.23.39a7.85,7.85,0,0,1,.38.77l0,0c.57,1.3,1.11,2.47,1.5,3.67C52.59,44.84,51.84,43.54,52.46,42.49ZM50.64,37.3c-.54-.44.86-.51,1.4-.07A7.08,7.08,0,0,1,53.6,39c.36.57.47,1.23.07.62C52.61,38,51.19,37.75,50.64,37.3Z"/><path class="cls-3" d="M52.46,42.49c.53-.89,1.73-.61,2.25-1.4s1.27-1.86-3.48-5.46a.65.65,0,0,1-.24,0,2.85,2.85,0,0,0-2.2-.07,5.45,5.45,0,0,0-1.46,1.49.74.74,0,0,1,.6,0c1.67.76,3.28,3.77,4,5.43.26.62,0,1.45-.83-1a7.62,7.62,0,0,0-3.67-3.86c-.23-.1-.3-.24-.28-.36a.65.65,0,0,1-.39.19,6,6,0,0,1,2.17,1.77v0c.18.21.35.43.52.66l.14.19c.13.18.25.36.37.55s.16.27.24.4.16.26.23.39a7.85,7.85,0,0,1,.38.77l0,0c.57,1.3,1.11,2.47,1.5,3.67C52.59,44.84,51.84,43.54,52.46,42.49ZM50.64,37.3c-.54-.44.86-.51,1.4-.07A7.08,7.08,0,0,1,53.6,39c.36.57.47,1.23.07.62C52.61,38,51.19,37.75,50.64,37.3Z"/><path class="cls-3" d="M40.82,37.15l0,0,0,0Z"/><path class="cls-3" d="M39.9,37.63h0Z"/><path class="cls-1" d="M38.67,39.23a2.21,2.21,0,0,1,.16-.35A2.21,2.21,0,0,0,38.67,39.23Z"/><path class="cls-3" d="M38.67,39.23a2.21,2.21,0,0,1,.16-.35A2.21,2.21,0,0,0,38.67,39.23Z"/><path class="cls-1" d="M40.38,48.8c0-.11-.05-.21-.08-.32C40.33,48.59,40.36,48.69,40.38,48.8Z"/><path class="cls-3" d="M40.38,48.8c0-.11-.05-.21-.08-.32C40.33,48.59,40.36,48.69,40.38,48.8Z"/><path class="cls-1" d="M50.19,44.81a9.66,9.66,0,0,0,.23,1A9.66,9.66,0,0,1,50.19,44.81Z"/><path class="cls-3" d="M50.19,44.81a9.66,9.66,0,0,0,.23,1A9.66,9.66,0,0,1,50.19,44.81Z"/><path class="cls-1" d="M39.93,47l-.12-.43Z"/><path class="cls-3" d="M39.93,47l-.12-.43Z"/><path class="cls-1" d="M50,43.74c.06.3.11.61.18.92C50.09,44.35,50,44,50,43.74Z"/><path class="cls-3" d="M50,43.74c.06.3.11.61.18.92C50.09,44.35,50,44,50,43.74Z"/><path class="cls-1" d="M40.17,47.91c0-.13-.07-.26-.1-.39C40.1,47.65,40.14,47.78,40.17,47.91Z"/><path class="cls-3" d="M40.17,47.91c0-.13-.07-.26-.1-.39C40.1,47.65,40.14,47.78,40.17,47.91Z"/><path class="cls-1" d="M38.91,38.71a2.54,2.54,0,0,1,.36-.45A2.54,2.54,0,0,0,38.91,38.71Z"/><path class="cls-3" d="M38.91,38.71a2.54,2.54,0,0,1,.36-.45A2.54,2.54,0,0,0,38.91,38.71Z"/><path class="cls-1" d="M40.05,37.55a.91.91,0,0,1-.14.07h0a.08.08,0,0,0,0,0Z"/><path class="cls-3" d="M40.05,37.55a.91.91,0,0,1-.14.07h0a.08.08,0,0,0,0,0Z"/><path class="cls-1" d="M38.53,39.83c0-.13,0-.25.08-.37C38.58,39.58,38.55,39.7,38.53,39.83Z"/><path class="cls-3" d="M38.53,39.83c0-.13,0-.25.08-.37C38.58,39.58,38.55,39.7,38.53,39.83Z"/><path class="cls-1" d="M40.88,37.15h-.06l0,0-.1,0Z"/><path class="cls-3" d="M40.88,37.15h-.06l0,0-.1,0Z"/><path class="cls-1" d="M38.49,40.5c0-.14,0-.27,0-.41C38.49,40.23,38.49,40.36,38.49,40.5Z"/><path class="cls-3" d="M38.49,40.5c0-.14,0-.27,0-.41C38.49,40.23,38.49,40.36,38.49,40.5Z"/><path class="cls-1" d="M38.64,42.06l-.09-.54Z"/><path class="cls-3" d="M38.64,42.06l-.09-.54Z"/><path class="cls-1" d="M39.33,44.9c-.06-.21-.11-.41-.17-.61C39.22,44.49,39.27,44.69,39.33,44.9Z"/><path class="cls-3" d="M39.33,44.9c-.06-.21-.11-.41-.17-.61C39.22,44.49,39.27,44.69,39.33,44.9Z"/><path class="cls-1" d="M39.08,44c-.16-.58-.29-1.14-.4-1.68C38.79,42.84,38.92,43.4,39.08,44Z"/><path class="cls-3" d="M39.08,44c-.16-.58-.29-1.14-.4-1.68C38.79,42.84,38.92,43.4,39.08,44Z"/><path class="cls-1" d="M39.66,46.05l-.21-.74Z"/><path class="cls-3" d="M39.66,46.05l-.21-.74Z"/><path class="cls-1" d="M38.53,41.24c0-.15,0-.31,0-.46C38.5,40.93,38.51,41.09,38.53,41.24Z"/><path class="cls-3" d="M38.53,41.24c0-.15,0-.31,0-.46C38.5,40.93,38.51,41.09,38.53,41.24Z"/><polygon class="cls-2" points="39.25 38.16 39.25 38.16 39.25 38.16 39.25 38.16"/><polygon class="cls-3" points="39.25 38.16 39.25 38.16 39.25 38.16 39.25 38.16"/><path class="cls-1" d="M39.27,38.26a2.54,2.54,0,0,0-.36.45s0,.11-.08.17a2.21,2.21,0,0,0-.16.35,2,2,0,0,0-.06.23c0,.12-.06.24-.08.37l0,.26c0,.14,0,.27,0,.41v.28c0,.15,0,.31,0,.46a2.64,2.64,0,0,0,0,.28l.09.54c0,.08,0,.16,0,.24.11.54.24,1.1.4,1.68,0,.1.05.21.08.31s.11.4.17.61l.12.41.21.74.15.52.12.43c0,.17.09.34.14.52s.07.26.1.39.09.38.13.57.06.21.08.32c.06.29.12.58.16.87,2.55,0,3-4,5.38-4.74a2.82,2.82,0,0,1,2.42.49c.53.3,1,.67,1.54,1s.63.33.75.28l-.21-.87h0a9.66,9.66,0,0,1-.23-1l0-.15c-.07-.31-.12-.62-.18-.92h0l0-.05c-1.5-3.75-5-7-9.07-6.54l-.19.07a4.25,4.25,0,0,0-.64.33l-.19.12a4,4,0,0,0-.61.49h0S39.3,38.24,39.27,38.26Zm6.79,1.57a8.54,8.54,0,0,1,2.42,3.22c.27.61.42,1.37.13.7a10.45,10.45,0,0,0-3.92-3.61C44.07,39.83,45.53,39.39,46.06,39.83Zm-1.88,4.5c.25.64-.56,1.55-.36.88.49-1.71-4.24-5-4.44-4.86-.59,1.3,2.32,5.18,1.89,7-.14.64-.24,0-.31-.74C40.69,44,38,42,38.86,39.1a.66.66,0,0,1,.23-.33c.06-.55.22-.35.39.32C40,41.19,43.47,42.51,44.18,44.33Z"/><path class="cls-2" d="M39.27,38.26a2.54,2.54,0,0,0-.36.45s0,.11-.08.17a2.21,2.21,0,0,0-.16.35,2,2,0,0,0-.06.23c0,.12-.06.24-.08.37l0,.26c0,.14,0,.27,0,.41v.28c0,.15,0,.31,0,.46a2.64,2.64,0,0,0,0,.28l.09.54c0,.08,0,.16,0,.24.11.54.24,1.1.4,1.68,0,.1.05.21.08.31s.11.4.17.61l.12.41.21.74.15.52.12.43c0,.17.09.34.14.52s.07.26.1.39.09.38.13.57.06.21.08.32c.06.29.12.58.16.87,2.55,0,3-4,5.38-4.74a2.82,2.82,0,0,1,2.42.49c.53.3,1,.67,1.54,1s.63.33.75.28l-.21-.87h0a9.66,9.66,0,0,1-.23-1l0-.15c-.07-.31-.12-.62-.18-.92h0l0-.05c-1.5-3.75-5-7-9.07-6.54l-.19.07a4.25,4.25,0,0,0-.64.33l-.19.12a4,4,0,0,0-.61.49h0S39.3,38.24,39.27,38.26Zm6.79,1.57a8.54,8.54,0,0,1,2.42,3.22c.27.61.42,1.37.13.7a10.45,10.45,0,0,0-3.92-3.61C44.07,39.83,45.53,39.39,46.06,39.83Zm-1.88,4.5c.25.64-.56,1.55-.36.88.49-1.71-4.24-5-4.44-4.86-.59,1.3,2.32,5.18,1.89,7-.14.64-.24,0-.31-.74C40.69,44,38,42,38.86,39.1a.66.66,0,0,1,.23-.33c.06-.55.22-.35.39.32C40,41.19,43.47,42.51,44.18,44.33Z"/><path class="cls-3" d="M39.27,38.26a2.54,2.54,0,0,0-.36.45s0,.11-.08.17a2.21,2.21,0,0,0-.16.35,2,2,0,0,0-.06.23c0,.12-.06.24-.08.37l0,.26c0,.14,0,.27,0,.41v.28c0,.15,0,.31,0,.46a2.64,2.64,0,0,0,0,.28l.09.54c0,.08,0,.16,0,.24.11.54.24,1.1.4,1.68,0,.1.05.21.08.31s.11.4.17.61l.12.41.21.74.15.52.12.43c0,.17.09.34.14.52s.07.26.1.39.09.38.13.57.06.21.08.32c.06.29.12.58.16.87,2.55,0,3-4,5.38-4.74a2.82,2.82,0,0,1,2.42.49c.53.3,1,.67,1.54,1s.63.33.75.28l-.21-.87h0a9.66,9.66,0,0,1-.23-1l0-.15c-.07-.31-.12-.62-.18-.92h0l0-.05c-1.5-3.75-5-7-9.07-6.54l-.19.07a4.25,4.25,0,0,0-.64.33l-.19.12a4,4,0,0,0-.61.49h0S39.3,38.24,39.27,38.26Zm6.79,1.57a8.54,8.54,0,0,1,2.42,3.22c.27.61.42,1.37.13.7a10.45,10.45,0,0,0-3.92-3.61C44.07,39.83,45.53,39.39,46.06,39.83Zm-1.88,4.5c.25.64-.56,1.55-.36.88.49-1.71-4.24-5-4.44-4.86-.59,1.3,2.32,5.18,1.89,7-.14.64-.24,0-.31-.74C40.69,44,38,42,38.86,39.1a.66.66,0,0,1,.23-.33c.06-.55.22-.35.39.32C40,41.19,43.47,42.51,44.18,44.33Z"/><path class="cls-1" d="M24.4,33.34l.53-.18Z"/><path class="cls-3" d="M24.4,33.34l.53-.18Z"/><path class="cls-1" d="M39.11,51c0-.47,0-.94,0-1.41,0,.47,0,.94,0,1.41Z"/><path class="cls-3" d="M39.11,51c0-.47,0-.94,0-1.41,0,.47,0,.94,0,1.41Z"/><path class="cls-1" d="M24.85,33.23a5.47,5.47,0,0,0,.91-.33h-.07l-.76.26-.53.18h0Z"/><path class="cls-2" d="M24.85,33.23a5.47,5.47,0,0,0,.91-.33h-.07l-.76.26-.53.18h0Z"/><path class="cls-3" d="M24.85,33.23a5.47,5.47,0,0,0,.91-.33h-.07l-.76.26-.53.18h0Z"/><path class="cls-1" d="M24.6,34.27c-1,.2-2.46.27-3.75.51-.61.51-.82,1.15.5,1.94l.19-.06C22.27,36.51,28.35,32.62,24.6,34.27Z"/><path class="cls-2" d="M24.6,34.27c-1,.2-2.46.27-3.75.51-.61.51-.82,1.15.5,1.94l.19-.06C22.27,36.51,28.35,32.62,24.6,34.27Z"/><path class="cls-3" d="M24.6,34.27c-1,.2-2.46.27-3.75.51-.61.51-.82,1.15.5,1.94l.19-.06C22.27,36.51,28.35,32.62,24.6,34.27Z"/><path class="cls-1" d="M37.93,37.87c-.76-3.25-3.08-4.36-5.77-5-.74-.06-1.48-.1-2.22-.13a.41.41,0,0,1-.19,0c-.66,0-1.31,0-2,0-2.71,1.6-3.61,3.46-4.74,4.18.57-.06,1.15-.16,1.6-.17a5.25,5.25,0,0,1,2.61.57c2.29,1.26,3.62,4.11,4.31,6.49S34.9,54.25,38.9,51.1a.67.67,0,0,1,.21-.1c0-.47,0-.94,0-1.41C38.78,45.82,37.42,42,38.45,39a2.37,2.37,0,0,0-.09-.68A.66.66,0,0,1,37.93,37.87ZM34.63,48c-.22.67-.28.17,0-.62.79-2.46-.14-4.48-.64-7-.13-.66,1.33-1.71,1.85.32C36.5,43.35,35.47,45.33,34.63,48Z"/><path class="cls-2" d="M37.93,37.87c-.76-3.25-3.08-4.36-5.77-5-.74-.06-1.48-.1-2.22-.13a.41.41,0,0,1-.19,0c-.66,0-1.31,0-2,0-2.71,1.6-3.61,3.46-4.74,4.18.57-.06,1.15-.16,1.6-.17a5.25,5.25,0,0,1,2.61.57c2.29,1.26,3.62,4.11,4.31,6.49S34.9,54.25,38.9,51.1a.67.67,0,0,1,.21-.1c0-.47,0-.94,0-1.41C38.78,45.82,37.42,42,38.45,39a2.37,2.37,0,0,0-.09-.68A.66.66,0,0,1,37.93,37.87ZM34.63,48c-.22.67-.28.17,0-.62.79-2.46-.14-4.48-.64-7-.13-.66,1.33-1.71,1.85.32C36.5,43.35,35.47,45.33,34.63,48Z"/><path class="cls-3" d="M37.93,37.87c-.76-3.25-3.08-4.36-5.77-5-.74-.06-1.48-.1-2.22-.13a.41.41,0,0,1-.19,0c-.66,0-1.31,0-2,0-2.71,1.6-3.61,3.46-4.74,4.18.57-.06,1.15-.16,1.6-.17a5.25,5.25,0,0,1,2.61.57c2.29,1.26,3.62,4.11,4.31,6.49S34.9,54.25,38.9,51.1a.67.67,0,0,1,.21-.1c0-.47,0-.94,0-1.41C38.78,45.82,37.42,42,38.45,39a2.37,2.37,0,0,0-.09-.68A.66.66,0,0,1,37.93,37.87ZM34.63,48c-.22.67-.28.17,0-.62.79-2.46-.14-4.48-.64-7-.13-.66,1.33-1.71,1.85.32C36.5,43.35,35.47,45.33,34.63,48Z"/><path class="cls-3" d="M17,11.2h0a3.18,3.18,0,0,1,0-.54A3.18,3.18,0,0,0,17,11.2Z"/><path class="cls-3" d="M17,11.2h0Z"/><path class="cls-3" d="M17.17,10a2.15,2.15,0,0,0-.2.68,2.15,2.15,0,0,1,.2-.68Z"/><path class="cls-1" d="M19,11.05c-.64,0-1.29.06-1.94.14h0c.65-.07,1.3-.12,1.94-.14Z"/><path class="cls-3" d="M19,11.05c-.64,0-1.29.06-1.94.14h0c.65-.07,1.3-.12,1.94-.14Z"/><path class="cls-1" d="M27.07,12.59h0a1.47,1.47,0,0,1,.11-.21h0A1.08,1.08,0,0,0,27.07,12.59Z"/><path class="cls-3" d="M27.07,12.59h0a1.47,1.47,0,0,1,.11-.21h0A1.08,1.08,0,0,0,27.07,12.59Z"/><path class="cls-1" d="M17.27,9.78a1.24,1.24,0,0,0-.1.2h0A1.24,1.24,0,0,1,17.27,9.78Z"/><path class="cls-3" d="M17.27,9.78a1.24,1.24,0,0,0-.1.2h0A1.24,1.24,0,0,1,17.27,9.78Z"/><path class="cls-2" d="M17.17,10a2.15,2.15,0,0,0-.2.68,3.18,3.18,0,0,0,0,.54h.1A4.52,4.52,0,0,1,17.17,10Z"/><path class="cls-3" d="M17.17,10a2.15,2.15,0,0,0-.2.68,3.18,3.18,0,0,0,0,.54h.1A4.52,4.52,0,0,1,17.17,10Z"/><path class="cls-1" d="M26.86,12.43l.21.16a1.08,1.08,0,0,1,.11-.21A.37.37,0,0,1,26.86,12.43Z"/><path class="cls-2" d="M26.86,12.43l.21.16a1.08,1.08,0,0,1,.11-.21A.37.37,0,0,1,26.86,12.43Z"/><path class="cls-3" d="M26.86,12.43l.21.16a1.08,1.08,0,0,1,.11-.21A.37.37,0,0,1,26.86,12.43Z"/><path class="cls-1" d="M17.27,9.78a1.24,1.24,0,0,0-.1.2,4.52,4.52,0,0,0-.11,1.21c.65-.08,1.3-.12,1.94-.14a3.93,3.93,0,0,1,1.2-.43,8.38,8.38,0,0,1,4.5.51,11.13,11.13,0,0,0-3-.89,2.69,2.69,0,0,1-2.2-1.36c-.37-.56.26-.86.65-.25.62,1,3.93,2.18,3.8,1.4A21.14,21.14,0,0,1,23,8c-.22-.63.15-1.16.4-.44a16.19,16.19,0,0,0,1.52,2.55C26,11.69,27,11.78,27.55,11.33c.13-.1.19-.08.2,0,.58-1.36.42-3.81-1.27-4.52-2.63-1.1-4.2.28-6.74,1.33A5,5,0,0,0,17.27,9.78ZM26.16,7.5c.68.24,0,1.31-.61,1.09S25.53,7.28,26.16,7.5Z"/><path class="cls-2" d="M17.27,9.78a1.24,1.24,0,0,0-.1.2,4.52,4.52,0,0,0-.11,1.21c.65-.08,1.3-.12,1.94-.14a3.93,3.93,0,0,1,1.2-.43,8.38,8.38,0,0,1,4.5.51,11.13,11.13,0,0,0-3-.89,2.69,2.69,0,0,1-2.2-1.36c-.37-.56.26-.86.65-.25.62,1,3.93,2.18,3.8,1.4A21.14,21.14,0,0,1,23,8c-.22-.63.15-1.16.4-.44a16.19,16.19,0,0,0,1.52,2.55C26,11.69,27,11.78,27.55,11.33c.13-.1.19-.08.2,0,.58-1.36.42-3.81-1.27-4.52-2.63-1.1-4.2.28-6.74,1.33A5,5,0,0,0,17.27,9.78ZM26.16,7.5c.68.24,0,1.31-.61,1.09S25.53,7.28,26.16,7.5Z"/><path class="cls-3" d="M17.27,9.78a1.24,1.24,0,0,0-.1.2,4.52,4.52,0,0,0-.11,1.21c.65-.08,1.3-.12,1.94-.14a3.93,3.93,0,0,1,1.2-.43,8.38,8.38,0,0,1,4.5.51,11.13,11.13,0,0,0-3-.89,2.69,2.69,0,0,1-2.2-1.36c-.37-.56.26-.86.65-.25.62,1,3.93,2.18,3.8,1.4A21.14,21.14,0,0,1,23,8c-.22-.63.15-1.16.4-.44a16.19,16.19,0,0,0,1.52,2.55C26,11.69,27,11.78,27.55,11.33c.13-.1.19-.08.2,0,.58-1.36.42-3.81-1.27-4.52-2.63-1.1-4.2.28-6.74,1.33A5,5,0,0,0,17.27,9.78ZM26.16,7.5c.68.24,0,1.31-.61,1.09S25.53,7.28,26.16,7.5Z"/><path class="cls-1" d="M21.46,11.87h0Z"/><path class="cls-3" d="M21.46,11.87h0Z"/><path class="cls-1" d="M19.29,12.58c-.41.88.22.88,1.08,1.23.4.16.81.27,1.21.43,1.26.51,3.1,1.56,3.25,3.1.12,1.25-.82,1.73-1.83,2a10.27,10.27,0,0,0,4.76.41c1.44-3.27-.46-6.56-4-7.58-.27-.08-.65-.17-1.06-.26s-.81-.06-1.2-.07H20.34A1.35,1.35,0,0,0,19.29,12.58Zm6.09,1.24c1.49.39,1.8,1.43,1.54,2a3.09,3.09,0,0,0-.12.29h0a.7.7,0,0,0-.26-.57,2.77,2.77,0,0,0-1.82-1C24.05,14.34,24.71,13.64,25.38,13.82Z"/><path class="cls-2" d="M19.29,12.58c-.41.88.22.88,1.08,1.23.4.16.81.27,1.21.43,1.26.51,3.1,1.56,3.25,3.1.12,1.25-.82,1.73-1.83,2a10.27,10.27,0,0,0,4.76.41c1.44-3.27-.46-6.56-4-7.58-.27-.08-.65-.17-1.06-.26s-.81-.06-1.2-.07H20.34A1.35,1.35,0,0,0,19.29,12.58Zm6.09,1.24c1.49.39,1.8,1.43,1.54,2a3.09,3.09,0,0,0-.12.29h0a.7.7,0,0,0-.26-.57,2.77,2.77,0,0,0-1.82-1C24.05,14.34,24.71,13.64,25.38,13.82Z"/><path class="cls-3" d="M19.29,12.58c-.41.88.22.88,1.08,1.23.4.16.81.27,1.21.43,1.26.51,3.1,1.56,3.25,3.1.12,1.25-.82,1.73-1.83,2a10.27,10.27,0,0,0,4.76.41c1.44-3.27-.46-6.56-4-7.58-.27-.08-.65-.17-1.06-.26s-.81-.06-1.2-.07H20.34A1.35,1.35,0,0,0,19.29,12.58Zm6.09,1.24c1.49.39,1.8,1.43,1.54,2a3.09,3.09,0,0,0-.12.29h0a.7.7,0,0,0-.26-.57,2.77,2.77,0,0,0-1.82-1C24.05,14.34,24.71,13.64,25.38,13.82Z"/><path class="cls-1" d="M28.36,21.74l-.66-.11h0Z"/><path class="cls-3" d="M28.36,21.74l-.66-.11h0Z"/><path class="cls-2" d="M29.19,22.11,28.84,22l.35.15Z"/><path class="cls-3" d="M29.19,22.11,28.84,22l.35.15Z"/><path class="cls-1" d="M27.76,21.65c.66.29,1.31.68.69.41a13.35,13.35,0,0,0-7.06-.54,21.41,21.41,0,0,0,2.21,2.24,4.63,4.63,0,0,1,.89,3.07,4.06,4.06,0,0,1-1.62,2.86c-.48.38-1.88.86-2.12,1.32a.79.79,0,0,0-.1.76.64.64,0,0,1,.32-.05c2.52.33,5.88-2.2,8.25-1,2.49-2.65,2.53-6.33,0-8.62L28.84,22l-.48-.22-.65-.11ZM28.58,28c-.12.29,0,.54-.3.48s.67-2.12-1.7-3.75c-.88-.6.56-.92,1.08-.46A3.34,3.34,0,0,1,28.58,28Z"/><path class="cls-2" d="M27.76,21.65c.66.29,1.31.68.69.41a13.35,13.35,0,0,0-7.06-.54,21.41,21.41,0,0,0,2.21,2.24,4.63,4.63,0,0,1,.89,3.07,4.06,4.06,0,0,1-1.62,2.86c-.48.38-1.88.86-2.12,1.32a.79.79,0,0,0-.1.76.64.64,0,0,1,.32-.05c2.52.33,5.88-2.2,8.25-1,2.49-2.65,2.53-6.33,0-8.62L28.84,22l-.48-.22-.65-.11ZM28.58,28c-.12.29,0,.54-.3.48s.67-2.12-1.7-3.75c-.88-.6.56-.92,1.08-.46A3.34,3.34,0,0,1,28.58,28Z"/><path class="cls-3" d="M27.76,21.65c.66.29,1.31.68.69.41a13.35,13.35,0,0,0-7.06-.54,21.41,21.41,0,0,0,2.21,2.24,4.63,4.63,0,0,1,.89,3.07,4.06,4.06,0,0,1-1.62,2.86c-.48.38-1.88.86-2.12,1.32a.79.79,0,0,0-.1.76.64.64,0,0,1,.32-.05c2.52.33,5.88-2.2,8.25-1,2.49-2.65,2.53-6.33,0-8.62L28.84,22l-.48-.22-.65-.11ZM28.58,28c-.12.29,0,.54-.3.48s.67-2.12-1.7-3.75c-.88-.6.56-.92,1.08-.46A3.34,3.34,0,0,1,28.58,28Z"/><path class="cls-1" d="M21.55,20.57a0,0,0,0,0,0,0h.14Z"/><path class="cls-2" d="M21.55,20.57a0,0,0,0,0,0,0h.14Z"/><path class="cls-3" d="M21.55,20.57a0,0,0,0,0,0,0h.14Z"/><path class="cls-4" d="M18.91,35.41a6.32,6.32,0,0,1,1.94-.63c1.29-.24,2.74-.31,3.75-.51,3.75-1.65-2.33,2.24-3.06,2.39l-.19.06c-1.2.32-.36.85,1.11.49a1.93,1.93,0,0,0,.59-.26c1.13-.72,2-2.58,4.74-4.18.15-.08.27-.17.43-.26.56,0,1.89-.24,1.28-.42a1.5,1.5,0,0,0-.29-.06A5.09,5.09,0,0,0,26,32.8l-.24.1a5.47,5.47,0,0,1-.91.33l-.46.11h0c-.82.2-1.67.36-2.52.55a10.34,10.34,0,0,0-2.93,1C18.28,35.31,18.2,35.81,18.91,35.41Z"/><path class="cls-4" d="M21.54,20.6c-.88.08-1.82.22-2.93.42-.65.12-.86,1.28-.09,1.09a27,27,0,0,1,2.87-.59,13.35,13.35,0,0,1,7.06.54c.62.27,0-.12-.69-.41l-.05,0h0a11.65,11.65,0,0,0-6-1h-.14Z"/><path class="cls-4" d="M27.55,11.33c-.54.45-1.52.36-2.67-1.27a16.19,16.19,0,0,1-1.52-2.55c-.25-.72-.62-.19-.4.44A21.14,21.14,0,0,0,24,10c.13.78-3.18-.42-3.8-1.4-.39-.61-1-.31-.65.25a2.69,2.69,0,0,0,2.2,1.36,11.13,11.13,0,0,1,3,.89c.83.41,1.29.85,2.14,1.29h0a.37.37,0,0,0,.32,0h0a1,1,0,0,0,.24-.22,1.43,1.43,0,0,0,.33-.83C27.74,11.25,27.68,11.23,27.55,11.33Z"/><path class="cls-4" d="M39.09,38.77a.66.66,0,0,0-.23.33C38,42,40.69,44,41,46.66c.07.75.17,1.38.31.74.43-1.87-2.48-5.75-1.89-7,.2-.1,4.93,3.15,4.44,4.86-.2.67.61-.24.36-.88-.71-1.82-4.19-3.14-4.7-5.24C39.31,38.42,39.15,38.22,39.09,38.77Z"/><path class="cls-4" d="M47.39,37.67a7.62,7.62,0,0,1,3.67,3.86c.83,2.42,1.09,1.59.83,1-.68-1.66-2.29-4.67-4-5.43a.74.74,0,0,0-.6,0,.35.35,0,0,0-.22.26C47.09,37.43,47.16,37.57,47.39,37.67Z"/><path class="cls-4" d="M52.1,35.4A6.21,6.21,0,0,1,55.46,38c.36.58.86-.19.42-.72A12.22,12.22,0,0,0,53,35.39,16.35,16.35,0,0,1,54.76,34c.67-.25.89-.85.12-.57s-1,1.14-2,1.58c0,0-.8.17-.83.16-.47-.18-.61-.1-.37,0h0A1.9,1.9,0,0,0,52.1,35.4Z"/><path class="cls-1" d="M34,40.34c.5,2.53,1.43,4.55.64,7-.25.79-.19,1.29,0,.62.84-2.64,1.87-4.62,1.18-7.31C35.29,38.63,33.83,39.68,34,40.34Z"/><path class="cls-2" d="M34,40.34c.5,2.53,1.43,4.55.64,7-.25.79-.19,1.29,0,.62.84-2.64,1.87-4.62,1.18-7.31C35.29,38.63,33.83,39.68,34,40.34Z"/><path class="cls-3" d="M34,40.34c.5,2.53,1.43,4.55.64,7-.25.79-.19,1.29,0,.62.84-2.64,1.87-4.62,1.18-7.31C35.29,38.63,33.83,39.68,34,40.34Z"/><path class="cls-5" d="M34,40.34c.5,2.53,1.43,4.55.64,7-.25.79-.19,1.29,0,.62.84-2.64,1.87-4.62,1.18-7.31C35.29,38.63,33.83,39.68,34,40.34Z"/><path class="cls-1" d="M48.61,43.75c.29.67.14-.09-.13-.7a8.54,8.54,0,0,0-2.42-3.22c-.53-.44-2,0-1.37.31A10.45,10.45,0,0,1,48.61,43.75Z"/><path class="cls-2" d="M48.61,43.75c.29.67.14-.09-.13-.7a8.54,8.54,0,0,0-2.42-3.22c-.53-.44-2,0-1.37.31A10.45,10.45,0,0,1,48.61,43.75Z"/><path class="cls-3" d="M48.61,43.75c.29.67.14-.09-.13-.7a8.54,8.54,0,0,0-2.42-3.22c-.53-.44-2,0-1.37.31A10.45,10.45,0,0,1,48.61,43.75Z"/><path class="cls-5" d="M48.61,43.75c.29.67.14-.09-.13-.7a8.54,8.54,0,0,0-2.42-3.22c-.53-.44-2,0-1.37.31A10.45,10.45,0,0,1,48.61,43.75Z"/><path class="cls-1" d="M53.67,39.65c.4.61.29,0-.07-.62A7.08,7.08,0,0,0,52,37.23c-.54-.44-1.94-.37-1.4.07S52.61,38,53.67,39.65Z"/><path class="cls-2" d="M53.67,39.65c.4.61.29,0-.07-.62A7.08,7.08,0,0,0,52,37.23c-.54-.44-1.94-.37-1.4.07S52.61,38,53.67,39.65Z"/><path class="cls-3" d="M53.67,39.65c.4.61.29,0-.07-.62A7.08,7.08,0,0,0,52,37.23c-.54-.44-1.94-.37-1.4.07S52.61,38,53.67,39.65Z"/><path class="cls-5" d="M53.67,39.65c.4.61.29,0-.07-.62A7.08,7.08,0,0,0,52,37.23c-.54-.44-1.94-.37-1.4.07S52.61,38,53.67,39.65Z"/><path class="cls-1" d="M56,34.06l-.12-.16c-.44-.58-.47.35-1,.72-.36.23.08.1.12.15C55.43,35.35,56.43,34.59,56,34.06Z"/><path class="cls-2" d="M56,34.06l-.12-.16c-.44-.58-.47.35-1,.72-.36.23.08.1.12.15C55.43,35.35,56.43,34.59,56,34.06Z"/><path class="cls-3" d="M56,34.06l-.12-.16c-.44-.58-.47.35-1,.72-.36.23.08.1.12.15C55.43,35.35,56.43,34.59,56,34.06Z"/><path class="cls-5" d="M56,34.06l-.12-.16c-.44-.58-.47.35-1,.72-.36.23.08.1.12.15C55.43,35.35,56.43,34.59,56,34.06Z"/><path class="cls-1" d="M26.58,24.69C29,26.32,28,28.4,28.28,28.44s.18-.19.3-.48a3.34,3.34,0,0,0-.92-3.73C27.14,23.77,25.7,24.09,26.58,24.69Z"/><path class="cls-2" d="M26.58,24.69C29,26.32,28,28.4,28.28,28.44s.18-.19.3-.48a3.34,3.34,0,0,0-.92-3.73C27.14,23.77,25.7,24.09,26.58,24.69Z"/><path class="cls-3" d="M26.58,24.69C29,26.32,28,28.4,28.28,28.44s.18-.19.3-.48a3.34,3.34,0,0,0-.92-3.73C27.14,23.77,25.7,24.09,26.58,24.69Z"/><path class="cls-5" d="M26.58,24.69C29,26.32,28,28.4,28.28,28.44s.18-.19.3-.48a3.34,3.34,0,0,0-.92-3.73C27.14,23.77,25.7,24.09,26.58,24.69Z"/><path class="cls-1" d="M24.72,14.51a2.77,2.77,0,0,1,1.82,1,.7.7,0,0,1,.26.57,3.09,3.09,0,0,1,.12-.29c.26-.56-.05-1.6-1.54-2C24.71,13.64,24.05,14.34,24.72,14.51Z"/><path class="cls-2" d="M24.72,14.51a2.77,2.77,0,0,1,1.82,1,.7.7,0,0,1,.26.57,3.09,3.09,0,0,1,.12-.29c.26-.56-.05-1.6-1.54-2C24.71,13.64,24.05,14.34,24.72,14.51Z"/><path class="cls-3" d="M24.72,14.51a2.77,2.77,0,0,1,1.82,1,.7.7,0,0,1,.26.57,3.09,3.09,0,0,1,.12-.29c.26-.56-.05-1.6-1.54-2C24.71,13.64,24.05,14.34,24.72,14.51Z"/><path class="cls-5" d="M24.72,14.51a2.77,2.77,0,0,1,1.82,1,.7.7,0,0,1,.26.57,3.09,3.09,0,0,1,.12-.29c.26-.56-.05-1.6-1.54-2C24.71,13.64,24.05,14.34,24.72,14.51Z"/><path class="cls-1" d="M26.8,16.1Z"/><path class="cls-2" d="M26.8,16.1Z"/><path class="cls-3" d="M26.8,16.1Z"/><path class="cls-5" d="M26.8,16.1Z"/><path class="cls-1" d="M25.55,8.59c.63.22,1.29-.85.61-1.09S24.87,8.35,25.55,8.59Z"/><path class="cls-2" d="M25.55,8.59c.63.22,1.29-.85.61-1.09S24.87,8.35,25.55,8.59Z"/><path class="cls-3" d="M25.55,8.59c.63.22,1.29-.85.61-1.09S24.87,8.35,25.55,8.59Z"/><path class="cls-6" d="M25.55,8.59c.63.22,1.29-.85.61-1.09S24.87,8.35,25.55,8.59Z"/><path class="cls-1" d="M12.68,42.29a.43.43,0,0,0,0,.05,9.44,9.44,0,0,1,3.66-4.81c.64-.4,1.16-1.69.5-1.21a20.05,20.05,0,0,0-4.32,5.38,35.54,35.54,0,0,0-2.75,5.48c-.3.77.85.8,1.1.14.62-1.6,1.11-3.23,1.71-4.73C12.65,42.23,12.71,42.05,12.68,42.29Z"/><path class="cls-1" d="M44,52.45c.09-.79-.68-.29-.71.76,0,1.58,1.87,6.36-.51,7.56a2.94,2.94,0,0,1-1.39.27c-.68,0-.85,1.19-.05,1.17a2.55,2.55,0,0,0,2.1-1.42,6,6,0,0,0,.73-1.95C44.62,56.59,43.78,54.72,44,52.45Z"/><path class="cls-1" d="M18.33,41c-.21-.65-1.44,1-2,1.61-2.18,2.38-3.78,1.29-3.66-.23a.43.43,0,0,1,0-.05c0-.24,0-.06-.09.3-.16.82-.37,2.62.18,2.59l.15,0C14.91,44.91,18.59,41.74,18.33,41Z"/><path class="cls-1" d="M13.79,22.71a22.34,22.34,0,0,0-5.21,2.74c-.5.35-1,.73-1.46,1.13s.93.3,1.42-.14l.07-.06c1.79-1.65,2.37-2.85,5-3C14.28,23.29,14.56,22.43,13.79,22.71Z"/><path class="cls-7" d="M56.14,49.77c-.69,1.27-1.83,3.43-3,3.73,0-.3.07-1.12.1-1.42.05-.81-.24-.72-.32,0a10.32,10.32,0,0,1-1.14,4,9.85,9.85,0,0,1-.87,1.39,8.94,8.94,0,0,1-.85,1c-.42.38-.42.51-.2.37a2,2,0,0,0,.4-.3c1.22-1.14,2.68-2.59,2.72-4.15A4.16,4.16,0,0,0,55.23,52L55.8,51c.06-.12.12-.24.19-.36.33-.61.47-1.25.29-1A.92.92,0,0,0,56.14,49.77Z"/><path class="cls-7" d="M43.13,62.54a5.7,5.7,0,0,1-3.94-.47c.14-.52.13-2.69.37-3.18s-.39,0-.43.62-.37,1.76-.49,2.53a4.24,4.24,0,0,1-4.11,3.15c-.32,0-.54.09-.59.18s.07.21.45.22a6.32,6.32,0,0,0,2.35-.32,3.27,3.27,0,0,0,1.71-1.46A4.84,4.84,0,0,0,39,62.6l0-.1a2.65,2.65,0,0,0,.5.27,5.15,5.15,0,0,0,2.34.31,16.72,16.72,0,0,0,1.7-.22l.62-.12c.19,0,.24-.08.22-.12A2.57,2.57,0,0,0,43.13,62.54Z"/><path class="cls-7" d="M8.27,34.24c-1.76,1.37-2.32,3.64-2.21,6a15.73,15.73,0,0,0,.52,3.19c.07.26.13.52.21.77a1.33,1.33,0,0,0,.23.47c.13.16.2.05.07-.37C6,40.78,6.31,35.73,10.21,33.91c.63-.3,1-.69.22-.52-1.18.26-4.26-.48-4.51-1.95-.07-.42-.15-.51-.19-.4a1.17,1.17,0,0,0,0,.58C6,33,6.9,34.27,8.19,34.2h.12Z"/><path class="cls-7" d="M8.37,22a4.84,4.84,0,0,1,3.24-1.5c.68-.06.5-.09-.17-.36a1.51,1.51,0,0,0-1.11.13A6.87,6.87,0,0,0,8.08,22a1.46,1.46,0,0,0-.25.34C7.74,22.56,8,22.47,8.37,22Z"/><path class="cls-1" d="M57.48,39.06a2.2,2.2,0,0,1-.33.35s-.41.41-.42.44l-.29-.33v9.39A36.55,36.55,0,0,0,57,42.52a.48.48,0,0,0-.1-.31,9.15,9.15,0,0,0,1.74-5.83.34.34,0,0,0,0-.15A7.87,7.87,0,0,0,56.44,32v.05C58.15,33.86,59.19,37,57.48,39.06Z"/><path class="cls-1" d="M57.15,39.41a2.2,2.2,0,0,0,.33-.35c1.71-2.09.67-5.2-1-7V33.2c.46.84.16,2,0,3.09v3.23l.29.33S57.13,39.43,57.15,39.41Z"/><path class="cls-2" d="M57.15,39.41a2.2,2.2,0,0,0,.33-.35c1.71-2.09.67-5.2-1-7V33.2c.46.84.16,2,0,3.09v3.23l.29.33S57.13,39.43,57.15,39.41Z"/><path class="cls-1" d="M56.44,33.2v3.09C56.6,35.17,56.9,34,56.44,33.2Z"/><path class="cls-2" d="M56.44,33.2v3.09C56.6,35.17,56.9,34,56.44,33.2Z"/><path class="cls-3" d="M56.44,33.2v3.09C56.6,35.17,56.9,34,56.44,33.2Z"/></svg>