<svg id="Graphic_Elements" data-name="Graphic Elements" xmlns="http://www.w3.org/2000/svg" viewBox="0 0 64 72"><defs><style>.cls-1{fill:#916741;}.cls-2{fill:#d1a36d;}.cls-3{fill:#ecaeab;}.cls-4{fill:#e68a8b;}.cls-5{fill:#d2595c;}.cls-6{fill:none;}.cls-7{fill:#f3cfcd;}.cls-8{fill:#4a9aed;}.cls-9{fill:#3a5aaa;}.cls-10{fill:#ededed;}.cls-11{fill:#c6c8cc;}.cls-12{fill:#ff5c97;}.cls-13{fill:#cc3352;}.cls-14{fill:#006636;}.cls-15{fill:#004430;}.cls-16{fill:#ffcb59;}.cls-17{fill:#db9a37;}</style></defs><path class="cls-1" d="M60.57,35.45c0-.18,0-.36-.07-.53l-.81-6.35A18.76,18.76,0,0,0,55.4,18.41a39.63,39.63,0,0,0-8.9-7.32A25.44,25.44,0,0,0,32.65,7.15a30.06,30.06,0,0,0-3.28.19,34.31,34.31,0,0,0-7.58,2c-7.1,2.51-12.19,9.4-15.24,16a20.47,20.47,0,0,0-1.74,6.49h0a29,29,0,0,0,.79,9.92c.27,1.07.54,2.15.89,3.2a22.88,22.88,0,0,0,4.26,7.62c2,2.3,3.5,4.46,6.06,6.2a24.73,24.73,0,0,0,5.56,3.25c2.26.73,4.49.65,6.78,1.06a22.45,22.45,0,0,0,5.63.48,30.76,30.76,0,0,0,13.07-3.82C52.48,57.13,55.66,52.64,58,47.9c.38-.77.74-1.6,1.07-2.45a22.31,22.31,0,0,0,1.65-8.13C60.71,36.69,60.64,36.07,60.57,35.45ZM40.9,36.72a6.49,6.49,0,0,1-2.54,4.15A13,13,0,0,1,33.88,43a10.31,10.31,0,0,1-2.58.48,6.75,6.75,0,0,1-5.12-2.16c-2.11-2.32-2.55-7-.43-9.43a10.79,10.79,0,0,1,2.05-1.69l2.44-1.7a7.56,7.56,0,0,1,1.45-.79,4.16,4.16,0,0,1,3-.11A10.94,10.94,0,0,1,39.56,32,6.93,6.93,0,0,1,40.9,36.72Z"/><path class="cls-2" d="M59,31.81a2.29,2.29,0,0,1-.08-.28c-.6-2.21-.32-4.37-1-6.6a18.76,18.76,0,0,0-6-9.24c-3.68-2.85-8.18-5.53-12.8-6.43a41.92,41.92,0,0,0-5.25-.57,28.93,28.93,0,0,0-4.56,0,23.92,23.92,0,0,0-6.08,1.59c-4.9,1.84-9,3.78-12.22,8A36.4,36.4,0,0,0,5,31.14c-.06.24-.12.47-.17.71h0a29,29,0,0,0,.79,9.92c.27,1.07.54,2.15.89,3.2a22.88,22.88,0,0,0,4.26,7.62c2,2.3,3.5,4.46,6.06,6.2a24.73,24.73,0,0,0,5.56,3.25c2.26.73,4.49.65,6.78,1.06a22.45,22.45,0,0,0,5.63.48,30.76,30.76,0,0,0,13.07-3.82C52.48,57.13,55.66,52.64,58,47.9c.38-.77.74-1.6,1.07-2.45C60,41,60.3,36.19,59,31.81ZM40.9,36.72a6.49,6.49,0,0,1-2.54,4.15A13,13,0,0,1,33.88,43a10.31,10.31,0,0,1-2.58.48,6.75,6.75,0,0,1-5.12-2.16c-2.11-2.32-2.55-7-.43-9.43a10.79,10.79,0,0,1,2.05-1.69l2.44-1.7a7.56,7.56,0,0,1,1.45-.79,4.16,4.16,0,0,1,3-.11A10.94,10.94,0,0,1,39.56,32,6.93,6.93,0,0,1,40.9,36.72Z"/><path class="cls-1" d="M39.56,32a10.94,10.94,0,0,0-4.86-4.4,4.16,4.16,0,0,0-3,.11,7.56,7.56,0,0,0-1.45.79l-2.44,1.7a10.79,10.79,0,0,0-2.05,1.69c-2.12,2.47-1.68,7.11.43,9.43a6.75,6.75,0,0,0,5.12,2.16A10.31,10.31,0,0,0,33.88,43a13,13,0,0,0,4.48-2.12,6.49,6.49,0,0,0,2.54-4.15A6.93,6.93,0,0,0,39.56,32Zm-1.21,7.1a11.12,11.12,0,0,1-3.43,2.52,9.36,9.36,0,0,1-2.09.82,6.82,6.82,0,0,1-4.71-.84A5,5,0,0,1,26,39.65a6.92,6.92,0,0,1-.29-3,5.68,5.68,0,0,1,.59-3.09,15.92,15.92,0,0,1,2.91-3.28,9.67,9.67,0,0,1,2.06-1.67,3.21,3.21,0,0,1,2.56-.31A7.22,7.22,0,0,1,35.94,30c1,.86,2.12,1.47,3,2.41C40.6,34.29,39.85,37.36,38.35,39.09Z"/><path class="cls-3" d="M58.64,35.69c-.28-1.91-.88-3.75-1.2-5.65-.27-1.56-.32-3.16-.69-4.7C55.66,20.82,52,17.48,48,15.08c-.49-.3-1-.58-1.5-.85a6.64,6.64,0,0,1-1.36-.86c-.55-.49-.92-1.17-1.49-1.63a3.65,3.65,0,0,0-1.39-.63l-.83-.2-.4-.09c-1.51-.31-2.5-.24-4-1.19-2-1.24-4.22-2.24-6.51-2A10.08,10.08,0,0,0,27,9l-1.41.75a24,24,0,0,1-4.5,1.5c-3.45,1.06-6.95,4-9.48,6.49a10.33,10.33,0,0,0-1.09,1.19c-.13.18-.26.35-.38.53A4.19,4.19,0,0,0,9.52,21a10.25,10.25,0,0,1-.31,1.84c0,.1-.07.2-.11.3a9.31,9.31,0,0,1-2.6,2.8l-.4.33A6.62,6.62,0,0,0,5,27.31a5.7,5.7,0,0,0-.77,1.83,30.73,30.73,0,0,0-.86,4,6,6,0,0,0-.07,1.47,3.57,3.57,0,0,0,.57,1.54,26.79,26.79,0,0,0,1.69,2.1c1,1.35.62,2.53.73,4.2a13.29,13.29,0,0,0,1.15,3.83A11.84,11.84,0,0,1,8.26,49a22.29,22.29,0,0,0,2.28,3.33c.39.16.79.31,1.16.48A11.27,11.27,0,0,1,16,57.3c1,1.81,1.83,4.72,4,5.46a17.52,17.52,0,0,0,2.17.35c1.77.36,3.28,1.75,5.08,1.74A12,12,0,0,0,30.5,64a38.1,38.1,0,0,1,7.14-1.06,19.08,19.08,0,0,0,11.82-5.56c1.6-1.62,5.69-4.75,5.39-7.31,0-.35-.14-.75.08-1a1.34,1.34,0,0,1,.69-.38,4,4,0,0,0,2.22-2.83c.45-1.75-.05-3.68.73-5.29S58.89,37.37,58.64,35.69ZM41.77,39.85c-.4.22-.9.13-1.31.31-.74.32-.86,1.29-1.09,2.06C39,43.34,38.24,44.71,37,44.53s-2.87-.73-4.27-.4c-.66.15-1.27.48-1.94.62a4.53,4.53,0,0,1-3.81-1.28,13.33,13.33,0,0,1-2.41-3.38c-.84-1.47-1.71-3.17-1.21-4.79A10.73,10.73,0,0,0,24,33.53c.12-.89-.29-2,.39-2.56a2.74,2.74,0,0,1,1.24-.39,6.25,6.25,0,0,0,2.32-1.32c.59-.42,1.48-.58,1.89-1.19.12-.18.21-.39.34-.57a2.76,2.76,0,0,1,2.27-.74c1.34,0,2.34-1,3.56-.14A11.65,11.65,0,0,1,39.42,31c.64,1.26,2.29,1.86,2.69,3.21.28.92-.12,1.91,0,2.86,0,.5.22,1,.25,1.48a1.09,1.09,0,0,1,0,.18A1.32,1.32,0,0,1,41.77,39.85Z"/><path class="cls-4" d="M58.57,40.5c-.78,1.61-.28,3.54-.73,5.29a4,4,0,0,1-2.22,2.83,1.34,1.34,0,0,0-.69.38c-.22.28-.12.68-.08,1,.3,2.56-3.79,5.69-5.39,7.31A19.08,19.08,0,0,1,37.64,62.9,38.1,38.1,0,0,0,30.5,64a12,12,0,0,1-3.23.89c-1.8,0-3.31-1.38-5.08-1.74A17.52,17.52,0,0,1,20,62.76c-2.18-.74-3-3.65-4-5.46a11.27,11.27,0,0,0-4.31-4.48c-.37-.17-.77-.32-1.16-.48A22.29,22.29,0,0,1,8.26,49a11.84,11.84,0,0,0-.82-2.7,13.29,13.29,0,0,1-1.15-3.83c-.11-1.67.29-2.85-.73-4.2a26.79,26.79,0,0,1-1.69-2.1,7.48,7.48,0,0,1,3.61,2.3c1.45,1.6,2.44,3.57,3.87,5.2,2.11,2.38,5.09,3.9,7.07,6.4a31.73,31.73,0,0,0,2.06,2.68,9.76,9.76,0,0,0,3.23,2.05c6.16,2.63,13.95,1.81,18.7-2.89a9.71,9.71,0,0,0,2.47-3.73c.49-1.47.5-3.06.95-4.55,1.05-3.51,4.32-5.91,5.8-9.26a10.08,10.08,0,0,0-.86-9.55c-1.18-1.74-2.93-3.17-3.48-5.19A6.47,6.47,0,0,1,48,15.08c4,2.4,7.71,5.74,8.8,10.26.37,1.54.42,3.14.69,4.7.32,1.9.92,3.74,1.2,5.65C58.89,37.37,59.37,38.86,58.57,40.5Z"/><path class="cls-4" d="M42.21,11.11a6.66,6.66,0,0,1-1.4.49c-2.33.55-4.77.22-7.16.39A17,17,0,0,0,22.9,17c-1.19,1.21-2.2,2.61-3.46,3.74a6.5,6.5,0,0,1-4.59,1.92c-.69-.05-1.36-.26-2-.36-1.28-.21-2.45.41-3.59.53A10.25,10.25,0,0,0,9.52,21a4.19,4.19,0,0,1,.59-1.55c.12-.18.25-.35.38-.53a10.33,10.33,0,0,1,1.09-1.19c2.53-2.48,6-5.43,9.48-6.49a24,24,0,0,0,4.5-1.5L27,9a10.08,10.08,0,0,1,3.51-1.27c2.29-.29,4.56.71,6.51,2,1.49.95,2.48.88,4,1.19l.4.09Z"/><path class="cls-5" d="M58.57,40.5c-.78,1.61-.28,3.54-.73,5.29a4,4,0,0,1-2.22,2.83,1.34,1.34,0,0,0-.69.38c-.22.28-.12.68-.08,1,.3,2.56-3.79,5.69-5.39,7.31A19.08,19.08,0,0,1,37.64,62.9,38.1,38.1,0,0,0,30.5,64a12,12,0,0,1-3.23.89c-1.8,0-3.31-1.38-5.08-1.74A17.52,17.52,0,0,1,20,62.76c-2.18-.74-3-3.65-4-5.46a11.27,11.27,0,0,0-4.31-4.48c-.37-.17-.77-.32-1.16-.48A22.29,22.29,0,0,1,8.26,49a11.84,11.84,0,0,0-.82-2.7A23.41,23.41,0,0,1,11.84,50q3,3.28,6.32,6.31l.47.44c1.54,1.38,3.31,2.8,5.37,3.16a6.52,6.52,0,0,1,2.67.74,7.26,7.26,0,0,0,3.58,1.29,16.17,16.17,0,0,0,3.11-.68c2.58-.56,5.29.26,7.91-.06a12.48,12.48,0,0,0,8.24-5.37A20.72,20.72,0,0,0,52.2,51c.56-1.51.56-3.14,1.36-4.62s2.11-2.83,2.31-4.52a23.93,23.93,0,0,0,0-2.54c0-2,.88-3.87,1-5.88a18.27,18.27,0,0,0-.47-5,17.12,17.12,0,0,0-5.3-9c-1.14-1-2.41-1.78-3.63-2.65A35.54,35.54,0,0,1,41,10.82l.4.09a5.49,5.49,0,0,1,2.22.83c.57.46.94,1.14,1.49,1.63a6.64,6.64,0,0,0,1.36.86c4.59,2.44,9.08,6,10.3,11.11.37,1.54.42,3.14.69,4.7.32,1.9.92,3.74,1.2,5.65C58.89,37.37,59.37,38.86,58.57,40.5Z"/><path class="cls-5" d="M27,9a17.88,17.88,0,0,1-2.3,1.51l-8.91,5.19a9.83,9.83,0,0,0-3.35,2.66,23.81,23.81,0,0,0-1.59,3.48A8.52,8.52,0,0,1,6.5,25.9a9.31,9.31,0,0,0,2.6-2.8A8.12,8.12,0,0,0,9.52,21a4.19,4.19,0,0,1,.59-1.55c.12-.18.25-.35.38-.53a10.33,10.33,0,0,1,1.09-1.19c2.53-2.48,6-5.43,9.48-6.49a24,24,0,0,0,4.5-1.5Z"/><path class="cls-6" d="M42.33,38.71a1.32,1.32,0,0,1-.56,1.14c-.4.22-.9.13-1.31.31-.74.32-.86,1.29-1.09,2.06C39,43.34,38.24,44.71,37,44.53s-2.87-.73-4.27-.4c-.66.15-1.27.48-1.94.62a4.53,4.53,0,0,1-3.81-1.28,13.33,13.33,0,0,1-2.41-3.38c-.84-1.47-1.71-3.17-1.21-4.79A10.73,10.73,0,0,0,24,33.53c.12-.89-.29-2,.39-2.56a2.74,2.74,0,0,1,1.24-.39,6.25,6.25,0,0,0,2.32-1.32c.59-.42,1.48-.58,1.89-1.19.12-.18.21-.39.34-.57a2.76,2.76,0,0,1,2.27-.74c1.34,0,2.34-1,3.56-.14A11.65,11.65,0,0,1,39.42,31c.64,1.26,2.29,1.86,2.69,3.21.28.92-.12,1.91,0,2.86,0,.5.22,1,.25,1.48A1.09,1.09,0,0,1,42.33,38.71Z"/><path class="cls-4" d="M41.86,33.11a22.72,22.72,0,0,1-1.22-2l-.15-.38c-.25-.7-.38-1.45-.63-2.16a7.84,7.84,0,0,0-4.44-4.45,10.17,10.17,0,0,0-2.49-.66,13,13,0,0,0-3.88.08,7.59,7.59,0,0,0-2.64.86c-.72.41-1.32,1-2,1.47-1,.68-2.13,1.12-3.07,1.85a8.21,8.21,0,0,0-2.74,4.72A32,32,0,0,0,18,38a14.28,14.28,0,0,0,.07,3.46,7.86,7.86,0,0,0,4,5.07,10.1,10.1,0,0,0,1.74.79c3.19,1.1,7.29,1.83,10.55.63a25.82,25.82,0,0,0,4.52-2.19c1.24-.79.92-2.77,2-3.82.42-.38,1-.65,1.33-1.06a10.78,10.78,0,0,0,.52-2A8.82,8.82,0,0,0,41.86,33.11Zm-.09,6.74c-.4.22-.9.13-1.31.31-.74.32-.86,1.29-1.09,2.06C39,43.34,38.24,44.71,37,44.53s-2.87-.73-4.27-.4c-.66.15-1.27.48-1.94.62a4.53,4.53,0,0,1-3.81-1.28,13.33,13.33,0,0,1-2.41-3.38c-.84-1.47-1.71-3.17-1.21-4.79A10.73,10.73,0,0,0,24,33.53c.12-.89-.29-2,.39-2.56a2.74,2.74,0,0,1,1.24-.39,6.25,6.25,0,0,0,2.32-1.32c.59-.42,1.48-.58,1.89-1.19.12-.18.21-.39.34-.57a2.76,2.76,0,0,1,2.27-.74c1.34,0,2.34-1,3.56-.14A11.65,11.65,0,0,1,39.42,31c.64,1.26,2.29,1.86,2.69,3.21.28.92-.12,1.91,0,2.86,0,.5.22,1,.25,1.48a1.09,1.09,0,0,1,0,.18A1.32,1.32,0,0,1,41.77,39.85Z"/><path class="cls-7" d="M20.59,25.54c-1.16.13-2.52.6-2.84,1.81-.25.93.22,2-.28,2.85a4.47,4.47,0,0,1-.86.82c-1.59,1.45-.81,3.33-.23,5a10.41,10.41,0,0,1,.17,3.26,7.67,7.67,0,0,0,4.87,6.88c.22.08-.58-1.21-.63-1.29a10.15,10.15,0,0,1-.88-1.78,11.75,11.75,0,0,1-1-4,19,19,0,0,1,.46-4.5l.73-3.91a2.37,2.37,0,0,1,.26-.83A2.63,2.63,0,0,1,21.43,29c2.14-1.16,3.57-3.41,5.73-4.54,2-1,3.92-.2,5.89-.71C32,22.68,29.41,22.52,28,22.47a4.19,4.19,0,0,0-3.48,1.07A5.17,5.17,0,0,1,20.59,25.54Z"/><path class="cls-5" d="M40,30.21l-.26-.94A2.68,2.68,0,0,0,40,30.21Z"/><path class="cls-5" d="M43.22,34.56c-.45-1.68-2.22-2.84-3.06-4.35a13.55,13.55,0,0,0-3.59-4.62,3.76,3.76,0,0,0-2.08-.83,4.69,4.69,0,0,0-1.65.35l-3,1a1.65,1.65,0,0,0-1,.65,2.8,2.8,0,0,1-.27.58c-.27.29-.74.17-1.13.22-1.18.14-1.84,1.87-3,1.7a2,2,0,0,0-.8-.11c-.33.1-.46.48-.55.81-.72,2.63-1.44,5.37-1,8.06a8.41,8.41,0,0,1,.28,2.53c-.09.57-.34,1.11-.38,1.68a3.29,3.29,0,0,0,2,3,11.12,11.12,0,0,0,3.76.78,7.61,7.61,0,0,1,3.66,1.1,1.34,1.34,0,0,0,.75.35c.47,0,.72-.53,1-.9a3.18,3.18,0,0,1,2.64-1c1,0,2,.28,2.93.29a.87.87,0,0,0,.61-.16.89.89,0,0,0,.23-.5A6.16,6.16,0,0,1,41,41.91c.51-.47,1.2-.76,1.55-1.36a3.17,3.17,0,0,0,.32-1.15c.12-.86.24-1.72.37-2.58A5.73,5.73,0,0,0,43.22,34.56Zm-1.45,5.29c-.4.22-.9.13-1.31.31-.74.32-.86,1.29-1.09,2.06C39,43.34,38.24,44.71,37,44.53s-2.87-.73-4.27-.4c-.66.15-1.27.48-1.94.62a4.53,4.53,0,0,1-3.81-1.28,13.33,13.33,0,0,1-2.41-3.38c-.84-1.47-1.71-3.17-1.21-4.79A10.73,10.73,0,0,0,24,33.53c.12-.89-.29-2,.39-2.56a2.74,2.74,0,0,1,1.24-.39,6.25,6.25,0,0,0,2.32-1.32c.59-.42,1.48-.58,1.89-1.19.12-.18.21-.39.34-.57a2.76,2.76,0,0,1,2.27-.74c1.34,0,2.34-1,3.56-.14A11.65,11.65,0,0,1,39.42,31c.64,1.26,2.29,1.86,2.69,3.21.28.92-.12,1.91,0,2.86,0,.5.22,1,.25,1.48a1.09,1.09,0,0,1,0,.18A1.32,1.32,0,0,1,41.77,39.85Z"/><path class="cls-7" d="M42.21,43.21c-.15.33-.25.79,0,1s.55,0,.78-.21c.86-.65,3-2.54,1.74-3.79C43.65,39.1,42.55,42.46,42.21,43.21Z"/><path class="cls-8" d="M8.4,31.63a.76.76,0,0,1-.12.19.62.62,0,0,1-.87,0L6.6,31a.65.65,0,0,1,0-.88s.05-.05.08-.06a.65.65,0,0,1,.8.06l.8.81A.61.61,0,0,1,8.4,31.63Z"/><path class="cls-9" d="M8.4,31.63A1.79,1.79,0,0,1,8,31.32c-.1-.13-.18-.28-.29-.41a2,2,0,0,0-.6-.47s-.55-.31-.47-.36a.65.65,0,0,1,.8.06l.8.81A.61.61,0,0,1,8.4,31.63Z"/><path class="cls-8" d="M31.54,15.68a7.26,7.26,0,0,0-1.07,2.62.52.52,0,0,1-.6.44.66.66,0,0,1-.59-.77,8.38,8.38,0,0,1,1.19-2.92.61.61,0,0,1,.55-.28A.59.59,0,0,1,31.54,15.68Z"/><path class="cls-9" d="M31.54,15.68a7.26,7.26,0,0,0-1.07,2.62.52.52,0,0,1-.6.44c-.47-.62.15-1.62.47-2.16a4,4,0,0,0,.59-1.35A2.17,2.17,0,0,1,31,14.8a0,0,0,0,1,0,0A.59.59,0,0,1,31.54,15.68Z"/><path class="cls-8" d="M19.11,39.85a.58.58,0,0,1-.91-.15,4.09,4.09,0,0,0-1.33-1.5.64.64,0,0,1-.16-.89.54.54,0,0,1,.79-.18,5.58,5.58,0,0,1,1.77,1.94A.62.62,0,0,1,19.11,39.85Z"/><path class="cls-9" d="M19.11,39.85c-.16-.2-.3-.41-.45-.61a5.73,5.73,0,0,0-1.35-1.34,2.71,2.71,0,0,1-.46-.36.71.71,0,0,1-.14-.23.54.54,0,0,1,.79-.18,5.58,5.58,0,0,1,1.77,1.94A.62.62,0,0,1,19.11,39.85Z"/><path class="cls-8" d="M52.14,25.69a.57.57,0,0,1-.18.12.59.59,0,0,1-.69-.12l-1-1.15a.63.63,0,0,1,0-.87.7.7,0,0,1,.47-.18.52.52,0,0,1,.4.18l1,1.15A.63.63,0,0,1,52.14,25.69Z"/><path class="cls-9" d="M52.14,25.69a.57.57,0,0,1-.18.12,2.33,2.33,0,0,0-.5-1.23l-.59-.91a.51.51,0,0,1-.09-.18.52.52,0,0,1,.4.18l1,1.15A.63.63,0,0,1,52.14,25.69Z"/><path class="cls-8" d="M50.05,40.87a.58.58,0,0,1-.83.25,2.2,2.2,0,0,0-1.5-.07,3.87,3.87,0,0,1-1.44,0,.57.57,0,0,1-.31-.94.6.6,0,0,1,.64-.25,6.77,6.77,0,0,0,1.79-.14,2.48,2.48,0,0,1,1.44.33A.58.58,0,0,1,50.05,40.87Z"/><path class="cls-9" d="M50.05,40.87a5.37,5.37,0,0,0-1.42-.65,9.75,9.75,0,0,0-2.23-.06,1.27,1.27,0,0,1-.43,0,.6.6,0,0,1,.64-.25,6.77,6.77,0,0,0,1.79-.14,2.48,2.48,0,0,1,1.44.33A.58.58,0,0,1,50.05,40.87Z"/><path class="cls-8" d="M40.39,58.14a8.82,8.82,0,0,0-.51,1.58.58.58,0,0,1-.92.33.61.61,0,0,1-.27-.66,10.32,10.32,0,0,1,.64-1.87.61.61,0,0,1,.84-.22l0,0A.64.64,0,0,1,40.39,58.14Z"/><path class="cls-9" d="M40.39,58.14a8.82,8.82,0,0,0-.51,1.58.58.58,0,0,1-.92.33,3.75,3.75,0,0,1,.46-1.3,5.23,5.23,0,0,1,.8-1.42A.64.64,0,0,1,40.39,58.14Z"/><path class="cls-8" d="M33.25,54.71a.54.54,0,0,1-.72.4l-1.79-.61a.62.62,0,0,1-.37-.86.53.53,0,0,1,.69-.33l1.8.61A.62.62,0,0,1,33.25,54.71Z"/><path class="cls-9" d="M33.25,54.71a2.59,2.59,0,0,1-.38-.17A7.73,7.73,0,0,0,31.33,54a4.33,4.33,0,0,1-1-.32.53.53,0,0,1,.69-.33l1.8.61A.62.62,0,0,1,33.25,54.71Z"/><path class="cls-8" d="M26.18,61.64a.5.5,0,0,1-.44.5,9.4,9.4,0,0,0-2.26.7.65.65,0,0,1-.88-.34.5.5,0,0,1,.26-.72A10.43,10.43,0,0,1,25.41,61,.66.66,0,0,1,26.18,61.64Z"/><path class="cls-9" d="M26.18,61.64c-.79.21-1.64.13-2.42.39-.4.13-.77.34-1.16.47a.5.5,0,0,1,.26-.72A10.43,10.43,0,0,1,25.41,61,.66.66,0,0,1,26.18,61.64Z"/><path class="cls-8" d="M43.59,16.5c0,.74,0,1.48-.05,2.23a.57.57,0,0,1-.44.56.59.59,0,0,1-.8-.56c0-.75,0-1.49.05-2.23a.61.61,0,0,1,.8-.57A.56.56,0,0,1,43.59,16.5Z"/><path class="cls-9" d="M43.59,16.5c0,.74,0,1.48-.05,2.23a.57.57,0,0,1-.44.56c0-.11-.06-.23-.09-.34a8.85,8.85,0,0,1,0-2.12,3.35,3.35,0,0,1,.18-.9A.56.56,0,0,1,43.59,16.5Z"/><path class="cls-8" d="M21.23,19a.58.58,0,0,1-.77-.24,4,4,0,0,0-.94-1.06.62.62,0,0,1,0-.87.67.67,0,0,1,.14-.11.66.66,0,0,1,.73.11,4.57,4.57,0,0,1,1.13,1.31A.59.59,0,0,1,21.23,19Z"/><path class="cls-9" d="M21.23,19a1.91,1.91,0,0,1-.16-.32A5,5,0,0,0,19.93,17a1.53,1.53,0,0,1-.27-.3.66.66,0,0,1,.73.11,4.57,4.57,0,0,1,1.13,1.31A.59.59,0,0,1,21.23,19Z"/><path class="cls-10" d="M46.93,29.41a.76.76,0,0,1-.12.19.63.63,0,0,1-.87,0l-.81-.8a.65.65,0,0,1,0-.88l.08-.07a.65.65,0,0,1,.8.07l.8.8A.63.63,0,0,1,46.93,29.41Z"/><path class="cls-11" d="M46.93,29.41a2.11,2.11,0,0,1-.36-.31c-.1-.13-.18-.28-.29-.41a2,2,0,0,0-.6-.47s-.55-.31-.47-.37a.65.65,0,0,1,.8.07l.8.8A.63.63,0,0,1,46.93,29.41Z"/><path class="cls-10" d="M28.45,10.13a7.13,7.13,0,0,0-1.06,2.62.52.52,0,0,1-.61.44.64.64,0,0,1-.58-.77,8.14,8.14,0,0,1,1.19-2.91.56.56,0,0,1,.54-.28A.59.59,0,0,1,28.45,10.13Z"/><path class="cls-11" d="M28.45,10.13a7.13,7.13,0,0,0-1.06,2.62.52.52,0,0,1-.61.44c-.47-.62.15-1.62.47-2.16a3.57,3.57,0,0,0,.59-1.34c0-.15,0-.3.08-.44v0A.59.59,0,0,1,28.45,10.13Z"/><path class="cls-10" d="M41,14.34a.57.57,0,0,1-.91-.14,4,4,0,0,0-1.33-1.5.62.62,0,0,1-.16-.89.53.53,0,0,1,.78-.18,5.4,5.4,0,0,1,1.77,1.94A.6.6,0,0,1,41,14.34Z"/><path class="cls-11" d="M41,14.34a6.85,6.85,0,0,1-.45-.61,6.3,6.3,0,0,0-1.35-1.33,2.4,2.4,0,0,1-.47-.37.56.56,0,0,1-.13-.22.53.53,0,0,1,.78-.18,5.4,5.4,0,0,1,1.77,1.94A.6.6,0,0,1,41,14.34Z"/><path class="cls-10" d="M28,49.33a.52.52,0,0,1-.17.12.61.61,0,0,1-.7-.12c-.31-.39-.63-.77-.95-1.15a.63.63,0,0,1,0-.87.65.65,0,0,1,.46-.18.52.52,0,0,1,.41.18c.32.38.64.76,1,1.15A.62.62,0,0,1,28,49.33Z"/><path class="cls-11" d="M28,49.33a.52.52,0,0,1-.17.12,2.36,2.36,0,0,0-.5-1.24c-.2-.3-.4-.6-.59-.9a1.62,1.62,0,0,1-.1-.18.52.52,0,0,1,.41.18c.32.38.64.76,1,1.15A.62.62,0,0,1,28,49.33Z"/><path class="cls-10" d="M13.43,50.18a.59.59,0,0,1-.84.24,2.12,2.12,0,0,0-1.49-.06,4.1,4.1,0,0,1-1.44,0,.57.57,0,0,1-.31-.94.63.63,0,0,1,.64-.25A7.2,7.2,0,0,0,11.78,49a2.44,2.44,0,0,1,1.44.33A.59.59,0,0,1,13.43,50.18Z"/><path class="cls-11" d="M13.43,50.18A5.71,5.71,0,0,0,12,49.52a9.24,9.24,0,0,0-2.23-.05,1.21,1.21,0,0,1-.43-.06.63.63,0,0,1,.64-.25A7.2,7.2,0,0,0,11.78,49a2.44,2.44,0,0,1,1.44.33A.59.59,0,0,1,13.43,50.18Z"/><path class="cls-10" d="M57.33,35.58a8.44,8.44,0,0,0-.5,1.57.62.62,0,0,1-1.19-.32A9.35,9.35,0,0,1,56.27,35a.62.62,0,0,1,.84-.23l0,0A.64.64,0,0,1,57.33,35.58Z"/><path class="cls-11" d="M57.33,35.58a8.44,8.44,0,0,0-.5,1.57.59.59,0,0,1-.93.33,3.54,3.54,0,0,1,.47-1.29,5.08,5.08,0,0,1,.79-1.43A.64.64,0,0,1,57.33,35.58Z"/><path class="cls-10" d="M15,23.85a.55.55,0,0,1-.73.4l-1.79-.61a.63.63,0,0,1-.37-.86.54.54,0,0,1,.7-.33l1.79.61A.63.63,0,0,1,15,23.85Z"/><path class="cls-11" d="M15,23.85a2.59,2.59,0,0,1-.38-.17,7.73,7.73,0,0,0-1.54-.58,4.42,4.42,0,0,1-1-.32.54.54,0,0,1,.7-.33l1.79.61A.63.63,0,0,1,15,23.85Z"/><path class="cls-10" d="M15.34,38.25a.52.52,0,0,1-.45.49,9,9,0,0,0-2.26.71.66.66,0,0,1-.88-.35.51.51,0,0,1,.26-.72,10.8,10.8,0,0,1,2.56-.83A.67.67,0,0,1,15.34,38.25Z"/><path class="cls-11" d="M15.34,38.25c-.8.2-1.65.13-2.43.38-.4.13-.77.34-1.16.47a.51.51,0,0,1,.26-.72,10.8,10.8,0,0,1,2.56-.83A.67.67,0,0,1,15.34,38.25Z"/><path class="cls-10" d="M36.51,60.89a.56.56,0,0,1-.75.53,16.55,16.55,0,0,0-2.41-.57.52.52,0,0,1-.42-.69.65.65,0,0,1,.75-.5,16.55,16.55,0,0,1,2.41.57A.6.6,0,0,1,36.51,60.89Z"/><path class="cls-11" d="M36.51,60.89a10.63,10.63,0,0,0-3.13-.64,1.71,1.71,0,0,1-.45-.09.65.65,0,0,1,.75-.5,16.55,16.55,0,0,1,2.41.57A.6.6,0,0,1,36.51,60.89Z"/><path class="cls-10" d="M49.34,51.87c0,.74,0,1.48-.05,2.22a.57.57,0,0,1-.44.56.59.59,0,0,1-.8-.56c0-.74,0-1.48.05-2.22a.62.62,0,0,1,.8-.58A.56.56,0,0,1,49.34,51.87Z"/><path class="cls-11" d="M49.34,51.87c0,.74,0,1.48-.05,2.22a.57.57,0,0,1-.44.56,2.09,2.09,0,0,1-.08-.34,8.35,8.35,0,0,1-.05-2.12,3.42,3.42,0,0,1,.18-.9A.56.56,0,0,1,49.34,51.87Z"/><path class="cls-10" d="M41.37,52.43a.57.57,0,0,1-.64-.44,5.25,5.25,0,0,1-.17-1.58.64.64,0,0,1,.62-.62.62.62,0,0,1,.37.13.6.6,0,0,1,.24.49,4.13,4.13,0,0,0,.13,1.26A.6.6,0,0,1,41.37,52.43Z"/><path class="cls-11" d="M41.37,52.43a2.92,2.92,0,0,1-.2-1.46,3.38,3.38,0,0,1,.38-1,.6.6,0,0,1,.24.49,4.13,4.13,0,0,0,.13,1.26A.6.6,0,0,1,41.37,52.43Z"/><path class="cls-10" d="M38,57.5a.63.63,0,0,1-.08.29.57.57,0,0,1-.54.32l-1.79-.19a.61.61,0,0,1-.5-1,.53.53,0,0,1,.5-.27l1.79.19A.64.64,0,0,1,38,57.5Z"/><path class="cls-11" d="M38,57.5a.63.63,0,0,1-.08.29h0A5.14,5.14,0,0,0,35.66,57a3.19,3.19,0,0,1-.54-.06.53.53,0,0,1,.5-.27l1.79.19A.64.64,0,0,1,38,57.5Z"/><path class="cls-10" d="M37.27,50.91a.58.58,0,0,1-.77-.24,4,4,0,0,0-.94-1.06.62.62,0,0,1,0-.87.49.49,0,0,1,.14-.11.66.66,0,0,1,.73.11,4.57,4.57,0,0,1,1.13,1.31A.59.59,0,0,1,37.27,50.91Z"/><path class="cls-11" d="M37.27,50.91a1.91,1.91,0,0,1-.16-.32A5.29,5.29,0,0,0,36,48.93a1.53,1.53,0,0,1-.27-.3.66.66,0,0,1,.73.11,4.57,4.57,0,0,1,1.13,1.31A.59.59,0,0,1,37.27,50.91Z"/><path class="cls-12" d="M58.36,43.76a.55.55,0,0,1-.12.19.62.62,0,0,1-.87,0l-.8-.8a.64.64,0,0,1,0-.88l.08-.06a.63.63,0,0,1,.79.06l.8.81A.6.6,0,0,1,58.36,43.76Z"/><path class="cls-13" d="M58.36,43.76a2.11,2.11,0,0,1-.36-.31c-.1-.13-.18-.28-.28-.41a2.16,2.16,0,0,0-.61-.47s-.55-.3-.46-.36a.63.63,0,0,1,.79.06l.8.81A.6.6,0,0,1,58.36,43.76Z"/><path class="cls-12" d="M15,27.68a7.13,7.13,0,0,0-1.06,2.62.53.53,0,0,1-.61.44.64.64,0,0,1-.58-.77,7.89,7.89,0,0,1,1.19-2.91.58.58,0,0,1,.54-.29A.6.6,0,0,1,15,27.68Z"/><path class="cls-13" d="M15,27.68a7.13,7.13,0,0,0-1.06,2.62.53.53,0,0,1-.61.44c-.47-.62.15-1.62.47-2.16a3.92,3.92,0,0,0,.59-1.34,3.11,3.11,0,0,1,.08-.44s0,0,0,0A.6.6,0,0,1,15,27.68Z"/><path class="cls-12" d="M35.86,22.65a.56.56,0,0,1-.9-.15A4.15,4.15,0,0,0,33.63,21a.63.63,0,0,1-.17-.89.54.54,0,0,1,.79-.18A5.4,5.4,0,0,1,36,21.88.6.6,0,0,1,35.86,22.65Z"/><path class="cls-13" d="M35.86,22.65a6.76,6.76,0,0,1-.44-.61,6.13,6.13,0,0,0-1.36-1.33,2.33,2.33,0,0,1-.46-.37.74.74,0,0,1-.14-.22.54.54,0,0,1,.79-.18A5.4,5.4,0,0,1,36,21.88.6.6,0,0,1,35.86,22.65Z"/><path class="cls-12" d="M15.91,47.42a.57.57,0,0,1-.18.12.59.59,0,0,1-.69-.12c-.32-.38-.64-.76-.95-1.15a.62.62,0,0,1,0-.87.68.68,0,0,1,.46-.18.54.54,0,0,1,.41.18l.95,1.15A.63.63,0,0,1,15.91,47.42Z"/><path class="cls-13" d="M15.91,47.42a.57.57,0,0,1-.18.12,2.25,2.25,0,0,0-.5-1.23c-.19-.31-.39-.61-.59-.91a1.51,1.51,0,0,1-.09-.18.54.54,0,0,1,.41.18l.95,1.15A.63.63,0,0,1,15.91,47.42Z"/><path class="cls-12" d="M53.29,33.86a.57.57,0,0,1-.83.25,2.15,2.15,0,0,0-1.5-.06,4.1,4.1,0,0,1-1.44,0,.57.57,0,0,1-.31-.94.63.63,0,0,1,.64-.25,7.2,7.2,0,0,0,1.79-.13,2.51,2.51,0,0,1,1.44.32A.59.59,0,0,1,53.29,33.86Z"/><path class="cls-13" d="M53.29,33.86a5.52,5.52,0,0,0-1.42-.65,9.23,9.23,0,0,0-2.23-.05,1.21,1.21,0,0,1-.43-.06.63.63,0,0,1,.64-.25,7.2,7.2,0,0,0,1.79-.13,2.51,2.51,0,0,1,1.44.32A.59.59,0,0,1,53.29,33.86Z"/><path class="cls-12" d="M24,16.21a7.88,7.88,0,0,0-.51,1.58.57.57,0,0,1-.92.32.59.59,0,0,1-.27-.65,10,10,0,0,1,.63-1.87.63.63,0,0,1,.85-.23s0,0,0,0A.63.63,0,0,1,24,16.21Z"/><path class="cls-13" d="M24,16.21a7.88,7.88,0,0,0-.51,1.58.57.57,0,0,1-.92.32A3.7,3.7,0,0,1,23,16.82a5.17,5.17,0,0,1,.79-1.42A.63.63,0,0,1,24,16.21Z"/><path class="cls-12" d="M42.71,49a.54.54,0,0,1-.73.4l-1.79-.6a.63.63,0,0,1-.37-.87.54.54,0,0,1,.7-.32l1.79.61A.61.61,0,0,1,42.71,49Z"/><path class="cls-13" d="M42.71,49a2.54,2.54,0,0,1-.38-.16,7.77,7.77,0,0,0-1.54-.59,3.57,3.57,0,0,1-1-.32.54.54,0,0,1,.7-.32l1.79.61A.61.61,0,0,1,42.71,49Z"/><path class="cls-12" d="M10.28,41.33a.52.52,0,0,1-.45.5,9.4,9.4,0,0,0-2.26.7.65.65,0,0,1-.88-.34A.5.5,0,0,1,7,41.47a10.43,10.43,0,0,1,2.55-.83A.67.67,0,0,1,10.28,41.33Z"/><path class="cls-13" d="M10.28,41.33c-.8.21-1.65.13-2.43.39-.4.13-.77.34-1.16.47A.5.5,0,0,1,7,41.47a10.43,10.43,0,0,1,2.55-.83A.67.67,0,0,1,10.28,41.33Z"/><path class="cls-12" d="M17.14,18.57a.56.56,0,0,1-.75.53A16.58,16.58,0,0,0,14,18.52a.51.51,0,0,1-.42-.69.67.67,0,0,1,.74-.5,16.71,16.71,0,0,1,2.42.58A.61.61,0,0,1,17.14,18.57Z"/><path class="cls-13" d="M17.14,18.57A10.71,10.71,0,0,0,14,17.92a1.13,1.13,0,0,1-.45-.09.67.67,0,0,1,.74-.5,16.71,16.71,0,0,1,2.42.58A.61.61,0,0,1,17.14,18.57Z"/><path class="cls-12" d="M22.92,54.06l-.06,2.22a.57.57,0,0,1-.43.57.6.6,0,0,1-.8-.57c0-.74,0-1.48.05-2.22a.61.61,0,0,1,.8-.57A.56.56,0,0,1,22.92,54.06Z"/><path class="cls-13" d="M22.92,54.06l-.06,2.22a.57.57,0,0,1-.43.57,3.58,3.58,0,0,1-.09-.35,8.28,8.28,0,0,1,0-2.11,3.35,3.35,0,0,1,.18-.9A.56.56,0,0,1,22.92,54.06Z"/><path class="cls-12" d="M55.05,32.29a.55.55,0,0,1-.64-.43,5.26,5.26,0,0,1-.18-1.58.63.63,0,0,1,.62-.62.65.65,0,0,1,.38.13.59.59,0,0,1,.24.49,3.84,3.84,0,0,0,.13,1.26A.59.59,0,0,1,55.05,32.29Z"/><path class="cls-13" d="M55.05,32.29a2.76,2.76,0,0,1-.2-1.45,3.14,3.14,0,0,1,.38-1.05.59.59,0,0,1,.24.49,3.84,3.84,0,0,0,.13,1.26A.59.59,0,0,1,55.05,32.29Z"/><path class="cls-12" d="M49.68,58.07a.6.6,0,0,1-.08.29.58.58,0,0,1-.54.33l-1.78-.2a.62.62,0,0,1-.62-.61.66.66,0,0,1,.11-.35.56.56,0,0,1,.51-.27l1.78.19A.64.64,0,0,1,49.68,58.07Z"/><path class="cls-13" d="M49.68,58.07a.6.6,0,0,1-.08.29h0a5,5,0,0,0-2.28-.75,3.19,3.19,0,0,1-.54-.07.56.56,0,0,1,.51-.27l1.78.19A.64.64,0,0,1,49.68,58.07Z"/><path class="cls-12" d="M18.72,44.88a.58.58,0,0,1-.77-.23A3.82,3.82,0,0,0,17,43.59a.64.64,0,0,1,0-.88.61.61,0,0,1,.14-.1.66.66,0,0,1,.73.1A4.75,4.75,0,0,1,19,44,.58.58,0,0,1,18.72,44.88Z"/><path class="cls-13" d="M18.72,44.88a1.51,1.51,0,0,1-.16-.31,5,5,0,0,0-1.14-1.67,2.5,2.5,0,0,1-.27-.29.66.66,0,0,1,.73.1A4.75,4.75,0,0,1,19,44,.58.58,0,0,1,18.72,44.88Z"/><path class="cls-14" d="M41.9,26.92a.76.76,0,0,1-.12.19.62.62,0,0,1-.87,0l-.8-.8a.62.62,0,0,1,0-.87l.07-.07a.64.64,0,0,1,.8.07l.8.8A.6.6,0,0,1,41.9,26.92Z"/><path class="cls-15" d="M41.9,26.92a1.74,1.74,0,0,1-.36-.31c-.1-.13-.18-.28-.29-.4a2,2,0,0,0-.6-.48s-.55-.3-.47-.36a.64.64,0,0,1,.8.07l.8.8A.6.6,0,0,1,41.9,26.92Z"/><path class="cls-14" d="M47.31,14.39A7.38,7.38,0,0,0,46.24,17a.52.52,0,0,1-.6.44.66.66,0,0,1-.59-.77,8.38,8.38,0,0,1,1.19-2.92.61.61,0,0,1,.55-.28A.59.59,0,0,1,47.31,14.39Z"/><path class="cls-15" d="M47.31,14.39A7.38,7.38,0,0,0,46.24,17a.52.52,0,0,1-.6.44c-.47-.62.15-1.62.47-2.17A3.84,3.84,0,0,0,46.7,14a2.17,2.17,0,0,1,.08-.43,0,0,0,0,1,0,0A.59.59,0,0,1,47.31,14.39Z"/><path class="cls-14" d="M47.64,36.7a.58.58,0,0,1-.91-.15,4.15,4.15,0,0,0-1.32-1.5.63.63,0,0,1-.17-.89A.54.54,0,0,1,46,34a5.49,5.49,0,0,1,1.77,1.94A.62.62,0,0,1,47.64,36.7Z"/><path class="cls-15" d="M47.64,36.7c-.16-.2-.3-.41-.45-.62a5.88,5.88,0,0,0-1.35-1.33,2.71,2.71,0,0,1-.46-.36.71.71,0,0,1-.14-.23A.54.54,0,0,1,46,34a5.49,5.49,0,0,1,1.77,1.94A.62.62,0,0,1,47.64,36.7Z"/><path class="cls-14" d="M54.29,50a.57.57,0,0,1-.18.12.59.59,0,0,1-.69-.12l-1-1.15a.63.63,0,0,1,0-.87.7.7,0,0,1,.47-.18.52.52,0,0,1,.4.18l1,1.15A.63.63,0,0,1,54.29,50Z"/><path class="cls-15" d="M54.29,50a.57.57,0,0,1-.18.12,2.36,2.36,0,0,0-.5-1.24L53,48a.76.76,0,0,1-.09-.18.52.52,0,0,1,.4.18l1,1.15A.63.63,0,0,1,54.29,50Z"/><path class="cls-14" d="M38.16,12.68a.58.58,0,0,1-.83.24,2.2,2.2,0,0,0-1.5-.06,4.1,4.1,0,0,1-1.44,0,.57.57,0,0,1-.31-.94.6.6,0,0,1,.64-.25,6.73,6.73,0,0,0,1.79-.14,2.48,2.48,0,0,1,1.44.33A.58.58,0,0,1,38.16,12.68Z"/><path class="cls-15" d="M38.16,12.68A5.74,5.74,0,0,0,36.74,12a9.21,9.21,0,0,0-2.23,0,1.58,1.58,0,0,1-.43-.05.6.6,0,0,1,.64-.25,6.73,6.73,0,0,0,1.79-.14,2.48,2.48,0,0,1,1.44.33A.58.58,0,0,1,38.16,12.68Z"/><path class="cls-14" d="M22.44,13.8a7.79,7.79,0,0,0-.51,1.57.58.58,0,0,1-.93.33.61.61,0,0,1-.26-.66,10.55,10.55,0,0,1,.63-1.87.63.63,0,0,1,.84-.22l.05,0A.66.66,0,0,1,22.44,13.8Z"/><path class="cls-15" d="M22.44,13.8a7.79,7.79,0,0,0-.51,1.57.58.58,0,0,1-.93.33,3.86,3.86,0,0,1,.47-1.29A4.83,4.83,0,0,1,22.26,13,.66.66,0,0,1,22.44,13.8Z"/><path class="cls-14" d="M26.72,56.59A.54.54,0,0,1,26,57l-1.79-.6a.65.65,0,0,1-.38-.87.53.53,0,0,1,.7-.32l1.8.6A.62.62,0,0,1,26.72,56.59Z"/><path class="cls-15" d="M26.72,56.59a2.59,2.59,0,0,1-.38-.17,7.73,7.73,0,0,0-1.54-.58,4.6,4.6,0,0,1-1-.32.53.53,0,0,1,.7-.32l1.8.6A.62.62,0,0,1,26.72,56.59Z"/><path class="cls-14" d="M18.66,56.14a.52.52,0,0,1-.45.49,9,9,0,0,0-2.26.71.67.67,0,0,1-.88-.35.51.51,0,0,1,.26-.72,10.8,10.8,0,0,1,2.56-.83A.67.67,0,0,1,18.66,56.14Z"/><path class="cls-15" d="M18.66,56.14c-.79.2-1.65.13-2.43.38-.4.13-.77.34-1.16.47a.51.51,0,0,1,.26-.72,10.8,10.8,0,0,1,2.56-.83A.67.67,0,0,1,18.66,56.14Z"/><path class="cls-14" d="M60.22,39.85a.56.56,0,0,1-.75.53,18,18,0,0,0-2.41-.58.51.51,0,0,1-.42-.69.67.67,0,0,1,.75-.5,18.37,18.37,0,0,1,2.41.58A.61.61,0,0,1,60.22,39.85Z"/><path class="cls-15" d="M60.22,39.85a10.39,10.39,0,0,0-3.13-.64,1.34,1.34,0,0,1-.45-.1.67.67,0,0,1,.75-.5,18.37,18.37,0,0,1,2.41.58A.61.61,0,0,1,60.22,39.85Z"/><path class="cls-14" d="M29.2,48.49c0,.74,0,1.48-.05,2.22a.59.59,0,0,1-.44.57.6.6,0,0,1-.8-.57L28,48.49a.61.61,0,0,1,.8-.57A.54.54,0,0,1,29.2,48.49Z"/><path class="cls-15" d="M29.2,48.49c0,.74,0,1.48-.05,2.22a.59.59,0,0,1-.44.57,2.21,2.21,0,0,1-.08-.35,8.35,8.35,0,0,1,0-2.12,2.66,2.66,0,0,1,.18-.89A.54.54,0,0,1,29.2,48.49Z"/><path class="cls-14" d="M23.43,28.67a.56.56,0,0,1-.64-.43,5,5,0,0,1-.17-1.58.62.62,0,0,1,.61-.62.65.65,0,0,1,.38.13.59.59,0,0,1,.24.49A4,4,0,0,0,24,27.91.6.6,0,0,1,23.43,28.67Z"/><path class="cls-15" d="M23.43,28.67a2.76,2.76,0,0,1-.2-1.45,3.38,3.38,0,0,1,.38-1,.59.59,0,0,1,.24.49A4,4,0,0,0,24,27.91.6.6,0,0,1,23.43,28.67Z"/><path class="cls-14" d="M24.43,34.3a.63.63,0,0,1-.08.29.58.58,0,0,1-.54.32L22,34.72a.61.61,0,0,1-.5-1,.53.53,0,0,1,.5-.27l1.79.19A.64.64,0,0,1,24.43,34.3Z"/><path class="cls-15" d="M24.43,34.3a.63.63,0,0,1-.08.29h0a5.1,5.1,0,0,0-2.27-.76,3.19,3.19,0,0,1-.54-.06.53.53,0,0,1,.5-.27l1.79.19A.64.64,0,0,1,24.43,34.3Z"/><path class="cls-14" d="M47.52,46.36a.58.58,0,0,1-.77-.23,3.82,3.82,0,0,0-.94-1.06.64.64,0,0,1,0-.88l.14-.1a.66.66,0,0,1,.73.1,4.75,4.75,0,0,1,1.13,1.32A.58.58,0,0,1,47.52,46.36Z"/><path class="cls-15" d="M47.52,46.36a1.51,1.51,0,0,1-.16-.31,5.12,5.12,0,0,0-1.14-1.67,2.5,2.5,0,0,1-.27-.29.66.66,0,0,1,.73.1,4.75,4.75,0,0,1,1.13,1.32A.58.58,0,0,1,47.52,46.36Z"/><path class="cls-16" d="M48.07,19.07A7.15,7.15,0,0,0,47,21.69a.51.51,0,0,1-.6.44.65.65,0,0,1-.59-.76A8.12,8.12,0,0,1,47,18.45a.62.62,0,0,1,1.07.62Z"/><path class="cls-17" d="M48.07,19.07A7.15,7.15,0,0,0,47,21.69a.51.51,0,0,1-.6.44c-.47-.62.14-1.62.47-2.16a3.92,3.92,0,0,0,.59-1.34,3.11,3.11,0,0,1,.07-.44v0A.59.59,0,0,1,48.07,19.07Z"/><path class="cls-16" d="M42.08,23a.57.57,0,0,1-.9-.15,4.36,4.36,0,0,0-1.33-1.5.63.63,0,0,1-.17-.89.53.53,0,0,1,.79-.17,5.4,5.4,0,0,1,1.77,1.94A.6.6,0,0,1,42.08,23Z"/><path class="cls-17" d="M42.08,23c-.16-.19-.3-.41-.44-.61A5.92,5.92,0,0,0,40.28,21a2.76,2.76,0,0,1-.46-.37.79.79,0,0,1-.14-.23.53.53,0,0,1,.79-.17,5.4,5.4,0,0,1,1.77,1.94A.6.6,0,0,1,42.08,23Z"/><path class="cls-16" d="M29.47,45.94a.57.57,0,0,1-.18.12.59.59,0,0,1-.69-.12l-1-1.15a.63.63,0,0,1,0-.87.67.67,0,0,1,.47-.18.55.55,0,0,1,.41.18l.95,1.15A.63.63,0,0,1,29.47,45.94Z"/><path class="cls-17" d="M29.47,45.94a.57.57,0,0,1-.18.12,2.28,2.28,0,0,0-.5-1.24c-.19-.3-.39-.6-.59-.9a1.51,1.51,0,0,1-.09-.18.55.55,0,0,1,.41.18l.95,1.15A.63.63,0,0,1,29.47,45.94Z"/><path class="cls-16" d="M11.28,33.86a.58.58,0,0,1-.83.25A2.15,2.15,0,0,0,9,34.05a4.1,4.1,0,0,1-1.44,0,.57.57,0,0,1-.31-.94.63.63,0,0,1,.64-.25,7.2,7.2,0,0,0,1.79-.13,2.51,2.51,0,0,1,1.44.32A.6.6,0,0,1,11.28,33.86Z"/><path class="cls-17" d="M11.28,33.86a5.67,5.67,0,0,0-1.42-.65,9.24,9.24,0,0,0-2.23-.05,1.21,1.21,0,0,1-.43-.06.63.63,0,0,1,.64-.25,7.2,7.2,0,0,0,1.79-.13,2.51,2.51,0,0,1,1.44.32A.6.6,0,0,1,11.28,33.86Z"/><path class="cls-16" d="M18.79,49.64a8.57,8.57,0,0,0-.51,1.58.58.58,0,0,1-.92.32.6.6,0,0,1-.27-.65A10.06,10.06,0,0,1,17.73,49a.62.62,0,0,1,.84-.23l.05,0A.66.66,0,0,1,18.79,49.64Z"/><path class="cls-17" d="M18.79,49.64a8.57,8.57,0,0,0-.51,1.58.58.58,0,0,1-.92.32,3.7,3.7,0,0,1,.46-1.29,5.42,5.42,0,0,1,.8-1.43A.66.66,0,0,1,18.79,49.64Z"/><path class="cls-16" d="M22.3,24.48a.49.49,0,0,1-.44.49,9.43,9.43,0,0,0-2.26.71.66.66,0,0,1-.88-.34.52.52,0,0,1,.25-.73,11,11,0,0,1,2.56-.83A.66.66,0,0,1,22.3,24.48Z"/><path class="cls-17" d="M22.3,24.48c-.79.21-1.65.13-2.43.38-.39.13-.76.35-1.15.48a.52.52,0,0,1,.25-.73,11,11,0,0,1,2.56-.83A.66.66,0,0,1,22.3,24.48Z"/><path class="cls-16" d="M50.9,51.83a.57.57,0,0,1-.64-.44,5,5,0,0,1-.17-1.58.62.62,0,0,1,.61-.62.65.65,0,0,1,.38.13.59.59,0,0,1,.24.49,4.13,4.13,0,0,0,.13,1.26A.61.61,0,0,1,50.9,51.83Z"/><path class="cls-17" d="M50.9,51.83a2.82,2.82,0,0,1-.2-1.46,3.38,3.38,0,0,1,.38-1,.59.59,0,0,1,.24.49,4.13,4.13,0,0,0,.13,1.26A.61.61,0,0,1,50.9,51.83Z"/><path class="cls-16" d="M34.56,9.32a.6.6,0,0,1-.08.29.57.57,0,0,1-.53.33l-1.79-.19a.64.64,0,0,1-.62-.62.66.66,0,0,1,.11-.35.57.57,0,0,1,.51-.27l1.79.2A.62.62,0,0,1,34.56,9.32Z"/><path class="cls-17" d="M34.56,9.32a.6.6,0,0,1-.08.29h0a5.22,5.22,0,0,0-2.27-.75,2.51,2.51,0,0,1-.55-.07.57.57,0,0,1,.51-.27l1.79.2A.62.62,0,0,1,34.56,9.32Z"/><path class="cls-16" d="M32.19,59.15a.58.58,0,0,1-.77-.24,4,4,0,0,0-.94-1.06.62.62,0,0,1,0-.87.67.67,0,0,1,.14-.11.66.66,0,0,1,.74.11,4.7,4.7,0,0,1,1.12,1.31A.59.59,0,0,1,32.19,59.15Z"/><path class="cls-17" d="M32.19,59.15a1.91,1.91,0,0,1-.16-.32,5,5,0,0,0-1.14-1.66,3.85,3.85,0,0,1-.27-.3.66.66,0,0,1,.74.11,4.7,4.7,0,0,1,1.12,1.31A.59.59,0,0,1,32.19,59.15Z"/></svg>