<svg xmlns="http://www.w3.org/2000/svg" viewBox="0 0 456 78"><defs><style>.cls-1{fill:#5858a5;}.cls-2{fill:#40407c;}.cls-3{opacity:0.18;}.cls-4{fill:#fff;}</style></defs><g id="Ebene_2" data-name="Ebene 2"><g id="Ebene_1-2" data-name="Ebene 1"><rect class="cls-1" x="1.5" y="1.5" width="453" height="75" rx="11.5"/><path class="cls-2" d="M443,3a10,10,0,0,1,10,10V65a10,10,0,0,1-10,10H13A10,10,0,0,1,3,65V13A10,10,0,0,1,13,3H443m0-3H13A13,13,0,0,0,0,13V65A13,13,0,0,0,13,78H443a13,13,0,0,0,13-13V13A13,13,0,0,0,443,0Z"/><g class="cls-3"><path class="cls-4" d="M453,21.34S434.1,9.48,322.7,11.11C201.64,12.87,116.22,8,49.19,5.45,19.56,4.3,3,13,3,13A10,10,0,0,1,12.8,3H443a10,10,0,0,1,10,10Z"/></g></g></g></svg>