<svg id="Graphic_Elements" data-name="Graphic Elements" xmlns="http://www.w3.org/2000/svg" viewBox="0 0 64 72"><defs><style>.cls-1{fill:#3a2822;}.cls-2{fill:#634236;}.cls-3{fill:#d1b4a0;}.cls-4{fill:#fff;}</style></defs><path class="cls-1" d="M28.78,28.84S11.6,27.73,6,34.85C5.1,36,4.83,38.67,4.61,40.25c-1.14,7.88,13.51,17.07,27.56,17A77.94,77.94,0,0,0,56.68,53s4.62-14.11,1.94-22.1c-2.52-7.51-13.7-15-23.4-10.07C27.59,24.76,28.78,28.84,28.78,28.84Z"/><path class="cls-2" d="M28.7,24.29S6.86,25.13,5.27,36.15C4.14,44,18,52.76,32.09,52.73A77.94,77.94,0,0,0,56.6,48.48s4.62-14.12,1.94-22.11c-2.52-7.5-13.7-15-23.4-10.06C27.51,20.2,28.7,24.29,28.7,24.29Z"/><path class="cls-3" d="M39.86,33.23c-.75-1.4-4-1.85-4.71-.15a1.76,1.76,0,0,0,0,1.48,2,2,0,0,0,1.17,1.83C38.24,37.22,41,35.33,39.86,33.23Z"/><path class="cls-4" d="M36.7,32.61h0c-1.87.29-.26,2.92,1.12,1.56C38.72,33.3,37.54,32.52,36.7,32.61Z"/><path class="cls-3" d="M52.26,26.32c-1.08-3.8-5.49-6.5-10-6-2.18.24-5.38.46-6.78,2.18-1.19,1.45-3.53,3.87-2.87,5.87a1.44,1.44,0,0,0,2.31.8c.8-.54.79-1.57,1.19-2.3a7.13,7.13,0,0,1,4.68-3.21,8.1,8.1,0,0,1,9.89,7c.38,4.52-.83,9-1.09,13.47-7.51.41-16.18,1.44-23.53-.34-2.64-.64-6.56-1.51-7.75-4.31-.91-2.16-1-5.21,1.11-6.42C21.69,31.69,24.5,32,27,31.94c1,0,3.26.5,4-.3.49-.54.63-1.54.09-1.94-.15-1.18-4-.44-5.27-.57a10.81,10.81,0,0,0-8.15,2.14c-3.68,2.9-5.34,7.17-2,11,3,3.46,7.08,4.18,11.26,4.65,4.87.55,10.42.27,15.62.54,2.25.12,4.7.59,6.93-.31s2.75-3,3.13-5.17C53.38,37.35,53.33,30.07,52.26,26.32Z"/><path class="cls-4" d="M16.84,32.32A7.65,7.65,0,0,0,19.2,43.7a20.41,20.41,0,0,0,8,2.25c1.46.18,2.93.27,4.41.37s2.67.35,4,.37a.59.59,0,0,0,0-1.18c-2,0-4.16-.37-6.2-.52a30.76,30.76,0,0,1-7.43-1.33c-2.33-.8-4.4-2.19-5.24-4.6a6.36,6.36,0,0,1,1-5.91c.47-.58-.35-1.42-.83-.83Z"/><path class="cls-4" d="M19.56,32c2.5-1.57,6.09-1.6,8.9-1,.74.16,1.05-1,.31-1.13-3.11-.65-7-.61-9.8,1.13-.64.4,0,1.42.59,1Z"/><path class="cls-4" d="M34.28,28.06c.24-4.56,5.79-6.6,9.68-5.58a.59.59,0,0,0,.31-1.13c-4.67-1.22-10.88,1.36-11.17,6.71,0,.76,1.14.75,1.18,0Z"/><path class="cls-4" d="M47.32,46.55c4,.27,4.57-5,4.84-7.93.47-4.94.73-10.61-3-14.45-.52-.54-1.35.29-.83.83,3.25,3.38,3.05,8.42,2.69,12.77-.19,2.33-.33,7.83-3.74,7.61-.76-.05-.75,1.12,0,1.17Z"/></svg>