<svg id="Graphic_Elements" data-name="Graphic Elements" xmlns="http://www.w3.org/2000/svg" viewBox="0 0 64 72"><defs><style>.cls-1{fill:#dbf579;}.cls-2{fill:#d4e86a;}.cls-3{fill:#c9c62f;}.cls-4{fill:#d7db34;}.cls-5{fill:#a4e2f2;}.cls-6{fill:#ecff92;}.cls-7{fill:#f3ffb4;}.cls-8{fill:#c1f6ff;}.cls-9{fill:#fff;}.cls-10{fill:#ebf0f1;}</style></defs><path class="cls-1" d="M59.27,41.65c1.16,1.4.79,4.09.67,5.16-.56,4.91-7.62,13.77-28,13.54S5,51.11,4.3,43.2C4,40,5,38.39,6.7,37.2c3.52-2.45,11.26-6.06,26-5.76C48.81,31.76,56.4,38.19,59.27,41.65Z"/><path class="cls-2" d="M59.27,41.65l0,0a13.82,13.82,0,0,1-.1,3.09c-.56,4.91-7.62,13.77-28,13.54-15.92-.18-23.41-5.7-26.27-11.88,2.08,7,9.35,13.78,27.06,14,20.35.23,27.41-8.63,28-13.54C60.06,45.74,60.43,43.05,59.27,41.65Z"/><path class="cls-3" d="M56.4,36.07c1.16,1.39,3.49,5.44,3.37,6.51-.57,4.91-7.66,12.47-28,12.24S4.2,46.7,4.32,39.91a6.41,6.41,0,0,1,.33-.84s.45-5.35,2.1-6.5c3.52-2.44,11.26-6.06,26-5.76C48.86,27.14,53.53,32.61,56.4,36.07Z"/><path class="cls-4" d="M4.29,35a52.92,52.92,0,0,1,0,5.86S7.91,52.12,29.78,53.19c0,0,24.55,1.15,30-10.61l-.37-7.06Z"/><path class="cls-5" d="M60.14,34.75c.46,8.92-13.49,14.36-28.92,14S3.36,42.1,3.86,33.6C4.33,25.86,16.8,19.69,32.23,20S59.75,27,60.14,34.75Z"/><path class="cls-3" d="M4.3,28a35,35,0,0,1,0,4.82S6.69,44.42,30.74,45c9.3.21,26.75-2.48,28.84-12.45l-.36-4.41Z"/><path class="cls-4" d="M4.15,26.75c.2,2.42.19,6,.19,6S8.08,41.7,30,42.78c0,0,24.18,1.48,29.62-10.28l-.34-6Z"/><path class="cls-2" d="M5.37,29.88A4.79,4.79,0,0,1,4.46,25c1.59-4.3,6.43-12.89,26.41-13.35s27.42,9,28.37,14.81a6.1,6.1,0,0,1-2.37,5.74c-3.41,2.39-10.94,6-25.44,6.22C15.65,38.65,8.25,33,5.37,29.88Z"/><path class="cls-1" d="M30.87,11.66C10.89,12.12,6.05,20.71,4.46,25a5.16,5.16,0,0,0-.21.77,4.66,4.66,0,0,0,1.14,2.37c2.88,3.12,10.28,8.77,26.06,8.55,14.5-.21,22-3.83,25.44-6.22a6.1,6.1,0,0,0,2.36-3.94.15.15,0,0,0,0-.07C58.29,20.65,50.89,11.21,30.87,11.66Z"/><path class="cls-6" d="M55.48,23.33a7.12,7.12,0,0,0-.23-1.21c-.66-2.44-2.53-4-5.1-5a34.65,34.65,0,0,0-13.73-2.52C19.86,15,15.86,21.75,14.54,25.13c0,.06.09.22.24.4a7.14,7.14,0,0,0,2,1.76c3.2,1.82,7.53,3.08,15,3.58,12,.8,18.42-1.54,21.37-3.19A4.66,4.66,0,0,0,55.48,23.33Z"/><path class="cls-7" d="M8.58,24.35c.71,2.93,12.85,1.66,10.68-3.84S7.87,21.42,8.58,24.35Z"/><path class="cls-5" d="M9,42.19a48.14,48.14,0,0,0,22.35,6c7.16.1,16.21-.88,22.5-5.1.75-.51.7-2.7-.41-2.41-3.8,1-7.37,2.8-11.25,3.62a50.91,50.91,0,0,1-10.86,1.08A55.88,55.88,0,0,1,9.28,40.5c-.7-.31-.81,1.38-.25,1.69Z"/><path class="cls-8" d="M18.49,45.4a21.6,21.6,0,0,0,10.62,1.65c.48-.06.48-1.22,0-1.24a38.28,38.28,0,0,1-10.45-1.52c-.47-.15-.56,1-.16,1.11Z"/><path class="cls-8" d="M57.85,37.6c-5.18,6.21-12.54,7-19.59,8-.35.05-.35.94,0,.91,7.2-.47,14.78-1.84,19.82-8.23.18-.24,0-1-.24-.7Z"/><path class="cls-8" d="M5.27,37.88a15.48,15.48,0,0,0,5.81,4.72c.33.13.37-.62.12-.77a19.83,19.83,0,0,1-5.71-4.61c-.24-.29-.4.43-.22.66Z"/><path class="cls-7" d="M29.24,15.63c.13.8-1.58,1.84-3.81,2.31s-4.16.21-4.3-.59S22.71,15.52,25,15,29.11,14.83,29.24,15.63Z"/><path class="cls-3" d="M6.9,34.73c.39,0,.36-1,0-1s-.37,1,0,1Z"/><path class="cls-3" d="M6.37,33c.35,0,.32-.89,0-.89S6,33,6.37,33Z"/><path class="cls-3" d="M8.39,34.26l0-.07c-.09-.26-.32-.23-.41,0l0,.07c-.08.21,0,.7.25.69s.28-.5.21-.71Z"/><path class="cls-3" d="M8.7,36.31c.35,0,.33-.91,0-.91s-.33.91,0,.91Z"/><path class="cls-3" d="M9.46,35.9c.34,0,.32-.88,0-.87s-.32.87,0,.87Z"/><path class="cls-3" d="M9.73,37.35c.34,0,.32-.88,0-.88s-.32.89,0,.88Z"/><path class="cls-3" d="M10.4,36.66c.34,0,.32-.86,0-.86s-.31.86,0,.86Z"/><path class="cls-3" d="M12,36.72c.39,0,.37-1,0-1s-.37,1,0,1Z"/><path class="cls-3" d="M12.52,37.14l-.07.06c-.22.15-.3.71,0,.88l.08.05c.66.46.5-1.32,0-1Z"/><path class="cls-3" d="M13.65,37.33c.35,0,.33-.91,0-.91s-.33.91,0,.91Z"/><path class="cls-3" d="M14,38.65c.32,0,.3-.84,0-.84s-.3.84,0,.84Z"/><path class="cls-3" d="M14.93,38.23c.24,0,.22-.61,0-.6s-.22.61,0,.6Z"/><path class="cls-3" d="M14.86,39.37c.29,0,.27-.75,0-.75s-.27.76,0,.75Z"/><path class="cls-3" d="M15.54,39.14c.34,0,.32-.89,0-.88s-.32.89,0,.88Z"/><path class="cls-3" d="M16.47,38.72c.33,0,.31-.84,0-.83s-.31.83,0,.83Z"/><path class="cls-3" d="M18.11,40.44c.39,0,.37-1,0-1s-.38,1,0,1Z"/><path class="cls-3" d="M18.78,39.66c.31,0,.3-.82,0-.81s-.3.81,0,.81Z"/><path class="cls-3" d="M19.72,40.53c.33,0,.31-.83,0-.83s-.3.83,0,.83Z"/><path class="cls-3" d="M20.57,39.74c.32,0,.3-.82,0-.82s-.3.82,0,.82Z"/><path class="cls-3" d="M22.28,40.62c.34,0,.32-.87,0-.87s-.32.87,0,.87Z"/><path class="cls-3" d="M21.6,40.88c.31,0,.29-.79,0-.79s-.29.79,0,.79Z"/><path class="cls-3" d="M23.13,40c.23,0,.22-.61,0-.61s-.22.61,0,.61Z"/><path class="cls-3" d="M25,40.79c.41,0,.39-1.06,0-1.06s-.38,1.06,0,1.06Z"/><path class="cls-3" d="M23.74,41.55c.39,0,.37-1,0-1s-.36,1,0,1Z"/><path class="cls-3" d="M26.05,42a.53.53,0,0,0,.23-.19c.17-.22.21-.94-.18-.94a.39.39,0,0,0-.25.08c-.32.23-.25,1.27.2,1Z"/><path class="cls-3" d="M27.73,41.29l.08,0a.58.58,0,0,0,0-.86l-.08,0c-.46-.25-.46,1.22,0,.95Z"/><path class="cls-3" d="M26.55,40.78c.34,0,.32-.88,0-.88s-.32.88,0,.88Z"/><path class="cls-3" d="M28,40a.36.36,0,0,0,.18.07c.35.08.36-.6.16-.78a.87.87,0,0,0-.22-.17c-.35-.18-.41.71-.12.88Z"/><path class="cls-3" d="M29.1,40.67l.24-.05c.24-.08.21-.74,0-.81l-.23,0c-.35,0-.33.92,0,.9Z"/><path class="cls-3" d="M29.37,42c.34,0,.32-.89,0-.89s-.32.89,0,.89Z"/><path class="cls-3" d="M30.54,41l0-.09c-.07-.39-.4-.35-.47,0V41c0,.19,0,.57.26.56s.27-.39.24-.58Z"/><path class="cls-3" d="M30.81,40.51c.31,0,.29-.81,0-.81s-.29.82,0,.81Z"/><path class="cls-3" d="M31.92,41.61c.35,0,.33-.9,0-.9s-.33.9,0,.9Z"/><path class="cls-3" d="M32.9,41.44a1,1,0,0,0,.23.13c.34.11.37-.61.17-.78a1.42,1.42,0,0,0-.23-.14c-.33-.13-.38.63-.17.79Z"/><path class="cls-3" d="M32.94,40.21c.32,0,.3-.83,0-.83s-.3.84,0,.83Z"/><path class="cls-3" d="M34.46,40.41a.63.63,0,0,0,.22-.18c.13-.16.16-.78-.14-.74a.41.41,0,0,0-.24.08c-.28.17-.18,1,.16.84Z"/><path class="cls-3" d="M35.44,40.69l.06-.13c.09-.2.07-.88-.26-.71l-.1,0c-.51.26.06,1.33.3.8Z"/><path class="cls-3" d="M35,41.93c.39,0,.36-1,0-1s-.37,1,0,1Z"/><path class="cls-3" d="M36.44,41.2c.36,0,.34-.94,0-.94s-.34,1,0,.94Z"/><path class="cls-3" d="M37.69,40.07l.07,0a.49.49,0,0,0,0-.73l-.08,0c-.39-.24-.39,1.09,0,.83Z"/><path class="cls-3" d="M38.4,41.43a.76.76,0,0,0,.23-.21c.15-.21.2-.87-.17-.88a.45.45,0,0,0-.25.07c-.41.18-.15,1.27.19,1Z"/><path class="cls-3" d="M39.25,40.55c.33,0,.31-.85,0-.85s-.31.86,0,.85Z"/><path class="cls-3" d="M40.44,40c.33,0,.31-.85,0-.85s-.31.85,0,.85Z"/><path class="cls-3" d="M41.81,40.74c.34,0,.32-.89,0-.89s-.32.89,0,.89Z"/><path class="cls-3" d="M41,41.23c.34,0,.32-.88,0-.88s-.32.88,0,.88Z"/><path class="cls-3" d="M42.91,39.74a.2.2,0,0,0,.17,0c.26-.07.34-.75,0-.82a.65.65,0,0,0-.24,0c-.34,0-.3.82,0,.85Z"/><path class="cls-3" d="M45,40.41c.34,0,.32-.88,0-.87s-.32.88,0,.87Z"/><path class="cls-3" d="M45.63,39.25c.42,0,.4-1.08,0-1.08s-.39,1.08,0,1.08Z"/><path class="cls-3" d="M46.64,38.78l.08,0a.58.58,0,0,0,0-.87l-.08,0c-.46-.22-.45,1.19,0,.94Z"/><path class="cls-3" d="M47.6,39.6c.41,0,.38-1.05,0-1.05s-.39,1.06,0,1.05Z"/><path class="cls-3" d="M46.49,40.25c.3,0,.28-.78,0-.78s-.29.79,0,.78Z"/><path class="cls-3" d="M49.38,38.21c.39,0,.36-1,0-1s-.37,1,0,1Z"/><path class="cls-3" d="M51,38.82c.5,0,.47-1.29,0-1.29s-.47,1.29,0,1.29Z"/><path class="cls-3" d="M52,37.15c.34,0,.32-.88,0-.87s-.31.87,0,.87Z"/><path class="cls-3" d="M53,36.85c.34,0,.31-.88,0-.87s-.32.87,0,.87Z"/><path class="cls-3" d="M54.74,37.06c.36,0,.34-.94,0-.93s-.34.93,0,.93Z"/><path class="cls-3" d="M19.55,39.32c.43,0,.4-1.12,0-1.12s-.41,1.12,0,1.12Z"/><path class="cls-3" d="M55.44,35.39l.06-.14c.09-.21.08-.89-.27-.74l-.1,0c-.22.1-.23.54-.15.75s.34.37.46.09Z"/><path class="cls-3" d="M7,43.43c.37,0,.35-1,0-1s-.35,1,0,1Z"/><path class="cls-3" d="M8.06,44.35l0-.08c-.06-.27-.37-.46-.45-.09l0,.08c0,.21-.05.64.22.68s.32-.38.27-.59Z"/><path class="cls-3" d="M7.81,43.89c.37,0,.34-.94,0-.93s-.34.93,0,.93Z"/><path class="cls-3" d="M9.53,45.66c.32,0,.3-.83,0-.83s-.3.83,0,.83Z"/><path class="cls-3" d="M9.8,47.1c.39,0,.37-1,0-1s-.37,1,0,1Z"/><path class="cls-3" d="M8.76,45c.39,0,.36-1,0-1s-.36,1,0,1Z"/><path class="cls-3" d="M12.36,47.23c.36,0,.34-.93,0-.92s-.34.93,0,.92Z"/><path class="cls-3" d="M11.42,47.61c.35,0,.32-.89,0-.89s-.33.89,0,.89Z"/><path class="cls-3" d="M11.07,46.58c.37,0,.35-.95,0-.95s-.35.95,0,.95Z"/><path class="cls-3" d="M14.73,48.82l0-.07c-.11-.28-.33-.25-.43,0l0,.07c-.09.22,0,.75.27.74s.31-.54.22-.75Z"/><path class="cls-3" d="M16.29,48.94c.36,0,.34-.93,0-.93s-.34.94,0,.93Z"/><path class="cls-3" d="M14.58,48.19c.37,0,.34-.95,0-.94s-.34.94,0,.94Z"/><path class="cls-3" d="M13.39,49c.37,0,.35-1,0-.95s-.35.95,0,.95Z"/><path class="cls-3" d="M18.18,50.06s0-.05,0-.08c-.06-.29-.4-.5-.49-.09V50c-.05.22-.05.68.23.72s.34-.4.29-.63Z"/><path class="cls-3" d="M18.6,49.51c.37,0,.35-1,0-.95s-.35,1,0,.95Z"/><path class="cls-3" d="M19.89,50.83c.42,0,.39-1.09,0-1.09s-.4,1.09,0,1.09Z"/><path class="cls-3" d="M20.82,50h.08c.39,0,.37-1,0-1h-.08c-.39,0-.37,1,0,1Z"/><path class="cls-3" d="M19.7,49.32c.38,0,.36-1,0-1s-.36,1,0,1Z"/><path class="cls-3" d="M21.67,51.42l.06-.08a.66.66,0,0,0,0-.8l-.07-.08c-.26-.31-.47.28-.46.5s.24.78.49.46Z"/><path class="cls-3" d="M22.19,50.64c.37,0,.34-1,0-1s-.35,1,0,1Z"/><path class="cls-3" d="M23,51.66c.33,0,.31-.87,0-.87s-.31.87,0,.87Z"/><path class="cls-3" d="M23.37,50.81l.08,0c.27-.1.23-.8,0-.88l-.08,0c-.46-.16-.46,1.11,0,.93Z"/><path class="cls-3" d="M24,52h.08c.42,0,.39-1,0-1.07H24c-.42,0-.4,1.1,0,1.07Z"/><path class="cls-3" d="M24.4,50.78c.35,0,.33-.89,0-.89s-.33.9,0,.89Z"/><path class="cls-3" d="M26.16,51.07V51c-.06-.25-.35-.42-.42-.08l0,.08c0,.19,0,.59.2.63s.3-.35.25-.55Z"/><path class="cls-3" d="M27.71,51.57l.08,0c.22-.08.19-.65,0-.72l-.08,0c-.39-.13-.38.92,0,.78Z"/><path class="cls-3" d="M29.61,51.31c.34,0,.32-.88,0-.88s-.32.88,0,.88Z"/><path class="cls-3" d="M28.93,52.59c.35,0,.33-.91,0-.9s-.33.9,0,.9Z"/><path class="cls-3" d="M28.58,51c.34,0,.32-.87,0-.86s-.32.87,0,.86Z"/><path class="cls-3" d="M31.57,52.28c.36,0,.34-.92,0-.91s-.33.91,0,.91Z"/><path class="cls-3" d="M32.5,51a.34.34,0,0,0,.24,0c.28-.11.24-.79,0-.88a.42.42,0,0,0-.24,0c-.38,0-.35.92,0,1Z"/><path class="cls-3" d="M34.3,52.11c.32,0,.3-.82,0-.82s-.3.82,0,.82Z"/><path class="cls-3" d="M35.41,52c.29,0,.27-.76,0-.76s-.27.77,0,.76Z"/><path class="cls-3" d="M35.06,51.07c.34,0,.32-.89,0-.89s-.32.89,0,.89Z"/><path class="cls-3" d="M36.91,51.46v-.09c0-.38-.42-.35-.46,0v.1c0,.17,0,.53.26.52s.24-.36.22-.54Z"/><path class="cls-3" d="M36.32,50.94a.65.65,0,0,0,.31-.41c.08-.22,0-.72-.3-.61a.47.47,0,0,0-.28.29c-.09.19-.06.93.27.73Z"/><path class="cls-3" d="M36.1,52.84c.37,0,.35-1,0-1s-.35,1,0,1Z"/><path class="cls-3" d="M38,51c.29,0,.27-.73,0-.73s-.27.74,0,.73Z"/><path class="cls-3" d="M39.22,51.79a.76.76,0,0,0,.23-.17c.15-.14.15-.85-.15-.78a.6.6,0,0,0-.23.1c-.26.18-.21,1,.15.85Z"/><path class="cls-3" d="M39.41,50.57c.36,0,.34-.94,0-.94s-.35.95,0,.94Z"/><path class="cls-3" d="M41.2,51.69a.32.32,0,0,0,.17,0c.28-.06.35-.79,0-.85a.85.85,0,0,0-.23,0c-.35,0-.32.86,0,.89Z"/><path class="cls-3" d="M40.68,50.53c.35,0,.33-.89,0-.88s-.33.89,0,.88Z"/><path class="cls-3" d="M42.54,50.61a.48.48,0,0,0,.17-.1c.27-.19.22-1-.16-.88a.59.59,0,0,0-.17.1c-.28.18-.21,1.07.16.88Z"/><path class="cls-3" d="M43.33,51.43c.31,0,.29-.8,0-.79s-.29.79,0,.79Z"/><path class="cls-3" d="M43.83,50c.31,0,.29-.79,0-.79s-.29.79,0,.79Z"/><path class="cls-3" d="M43.15,49.59c.31,0,.29-.8,0-.79s-.29.8,0,.79Z"/><path class="cls-3" d="M41.1,49.92c.33,0,.31-.83,0-.83s-.3.83,0,.83Z"/><path class="cls-3" d="M47.15,49.64l.08,0a.59.59,0,0,0,0-.88l-.08,0c-.47-.27-.46,1.27,0,1Z"/><path class="cls-3" d="M45.53,48.94c.34,0,.32-.89,0-.89s-.33.89,0,.89Z"/><path class="cls-3" d="M45,50.8c.36,0,.34-.93,0-.92s-.34.92,0,.92Z"/><path class="cls-3" d="M49.28,49c.37,0,.34-.93,0-.93s-.34.94,0,.93Z"/><path class="cls-3" d="M48.59,48.15c.36,0,.34-.92,0-.92s-.34.92,0,.92Z"/><path class="cls-3" d="M52.35,48.32c.36,0,.34-.94,0-.94s-.34.94,0,.94Z"/><path class="cls-3" d="M51.23,47.69c.4,0,.38-1,0-1s-.38,1,0,1Z"/><path class="cls-3" d="M53,46.91a.48.48,0,0,0,.33,0c.29-.12.25-.84,0-1a.47.47,0,0,0-.33,0c-.41.08-.37,1,0,1Z"/><path class="cls-3" d="M54.72,47c.24,0,.22-.61,0-.61s-.22.61,0,.61Z"/><path class="cls-3" d="M54.8,45.81c.39,0,.37-1,0-1s-.36,1,0,1Z"/><path class="cls-3" d="M56.26,45c.27.12.46,0,.56-.33s0-.81-.33-.68c-.08,0-.1.06-.18.05-.36-.05-.33.85-.05,1Z"/><path class="cls-3" d="M57.43,43.81c.36,0,.34-.93,0-.92s-.33.92,0,.92Z"/><path class="cls-3" d="M58.53,42.94c.37,0,.35-1,0-.95s-.34,1,0,.95Z"/><path class="cls-3" d="M5.54,41.29l.06-.14c.09-.22.08-.92-.29-.77l-.09,0c-.24.1-.25.57-.17.78s.36.39.49.09Z"/><path class="cls-7" d="M26,34.78c3.48-.26,6.71,1,10.11.93,3.06,0,6.07-1.71,9-2.64,4.74-1.53,10.69-.27,11.56-7,.06-.43-.43-1.05-.59-.4C55,30.2,51.66,30,48.36,30.81a63,63,0,0,0-6.33,2c-3.17,1.17-5.56,1.86-8.86,1.3a22.59,22.59,0,0,0-7.2-.22c-.32,0-.3.88,0,.85Z"/><path class="cls-2" d="M16.17,31.93c.39,0,.36-1,0-1s-.36,1,0,1Z"/><path class="cls-2" d="M18.86,33.08c.4,0,.37-1,0-1s-.37,1,0,1Z"/><path class="cls-2" d="M18,30.92a1,1,0,0,0,.45-.1c.27-.12.23-.75,0-.86a1.05,1.05,0,0,0-.46-.09c-.4,0-.38,1,0,1.05Z"/><path class="cls-2" d="M19.88,32.22c.3,0,.28-.79,0-.78s-.28.78,0,.78Z"/><path class="cls-2" d="M22.13,32.58l.12,0a.58.58,0,0,0,0-.86l-.13-.06c-.47-.21-.47,1.2,0,1Z"/><path class="cls-2" d="M23.21,32.7c.36,0,.33-.93,0-.93s-.34.93,0,.93Z"/><path class="cls-2" d="M12.37,29.47c.19.11.32.2.53.1s.24-.6.1-.79a.65.65,0,0,0-.5-.31c-.46-.1-.45.81-.13,1Z"/><path class="cls-2" d="M11.41,28.44c.35,0,.33-.91,0-.91s-.33.91,0,.91Z"/><path class="cls-2" d="M8.85,27.71c.33,0,.31-.86,0-.85s-.31.85,0,.85Z"/><path class="cls-2" d="M17.41,15.91l.12,0c.27-.07.24-.81,0-.88l-.12,0c-.47-.13-.47,1.09,0,.95Z"/><path class="cls-2" d="M15.55,17.32a1.08,1.08,0,0,0,.44,0c.24-.08.21-.69,0-.76a.83.83,0,0,0-.44,0c-.33,0-.3.81,0,.83Z"/><path class="cls-2" d="M18.62,17c.35,0,.33-.91,0-.91s-.33.91,0,.91Z"/><path class="cls-2" d="M19.68,15a.64.64,0,0,0,.54,0c.29-.15.25-.83,0-1a.57.57,0,0,0-.46,0c-.33.09-.43.93-.05,1Z"/><path class="cls-2" d="M15.67,16c.32,0,.3-.84,0-.83s-.3.84,0,.83Z"/><path class="cls-2" d="M22.18,14.55c.36,0,.34-.94,0-.93s-.33.93,0,.93Z"/><path class="cls-2" d="M12.49,18.28c.37,0,.34-1,0-1s-.34,1,0,1Z"/><path class="cls-2" d="M21.59,56.13l.12,0c.37-.06.34-.88,0-.93l-.13,0c-.37,0-.36,1,0,1Z"/><path class="cls-2" d="M23.76,56.24c.36,0,.34-.94,0-.94s-.34.94,0,.94Z"/><path class="cls-2" d="M25.22,57.28a1,1,0,0,0,.33.13c.36.06.28-.74.12-.9a1.66,1.66,0,0,0-.32-.22c-.37-.21-.48.8-.13,1Z"/><path class="cls-2" d="M26.7,56.34c.35,0,.33-.9,0-.9s-.33.9,0,.9Z"/><path class="cls-2" d="M28.24,57a.54.54,0,0,0,.33,0c.3-.11.26-.87,0-1a.5.5,0,0,0-.34,0c-.41.07-.37,1,0,1Z"/><path class="cls-2" d="M29.77,56.47c.36,0,.34-.94,0-.93s-.34.93,0,.93Z"/><path class="cls-2" d="M17.87,55.4a.46.46,0,0,0,.26,0c.34-.06.31-.81,0-.87a.7.7,0,0,0-.25,0c-.36,0-.33.89,0,.9Z"/><path class="cls-2" d="M16.59,54.52c.33,0,.31-.86,0-.85s-.31.85,0,.85Z"/><path class="cls-2" d="M13.89,53.4c.24,0,.22-.61,0-.6s-.22.61,0,.6Z"/><path class="cls-9" d="M40.49,18.69a.57.57,0,0,1-.54.7.71.71,0,0,1-.41-.15c-.12-.09-.2-.25-.35-.29s-.27.11-.29.26a1,1,0,0,0,1.4,1,1.28,1.28,0,0,0,.45-1.72c-.13-.23-.28.11-.26.24Z"/><path class="cls-9" d="M43.22,17.29c.87.86.3,1.67-.62,2.09-.25.11-.29.74,0,.8,1.85.39,2.28-2.73.72-3.39-.25-.1-.23.39-.12.5Z"/><path class="cls-9" d="M35.09,19.58a2.74,2.74,0,0,0,.26,3.1c.6.55,1.95.61,2-.44,0-.13,0-.56-.27-.51s-.37.23-.59.28a1,1,0,0,1-.75-.17c-.61-.42-.41-1.43-.32-2,0-.25-.21-.55-.36-.22Z"/><path class="cls-9" d="M41.42,22.52a2,2,0,0,1-1,.54,1.28,1.28,0,0,0-1.09.49.7.7,0,0,0,0,.74c.83,1,2.13-.48,2.41-1.3.06-.19-.05-.69-.32-.47Z"/><path class="cls-9" d="M46.46,20.26c0,.93-1,1.52-1.77,1.61-.37,0-.36.74-.06.86a1.65,1.65,0,0,0,1.81-.56,2.56,2.56,0,0,0,.52-2c-.07-.44-.52-.27-.5.12Z"/><path class="cls-9" d="M30.66,25.52a3,3,0,0,1,.56-1.25l-.29.19a3.15,3.15,0,0,0,1.65-.54c.22-.2.21-.76-.09-.87a1.76,1.76,0,0,0-1,0c-.34.07-.73.08-.93.4a3.74,3.74,0,0,0-.49,2c0,.44.47.6.58.1Z"/><path class="cls-9" d="M33.11,26.22a1,1,0,0,1,.51.14,1.36,1.36,0,0,0,.45.26c.41.09.54-.44.47-.76-.06.49-.06.63,0,.4a.66.66,0,0,0,0-.24,1.16,1.16,0,0,0-.09-.41,1,1,0,0,0-.44-.49,1.09,1.09,0,0,0-1.05,0c-.34.18-.36,1.09.13,1.09Z"/><path class="cls-9" d="M36.63,18.75a1.9,1.9,0,0,1-.37.77,2.2,2.2,0,0,1-.26.27c-.14.12-.23.27-.36.4s-.18.71.15.71a.78.78,0,0,0,.59-.17,2,2,0,0,0,.45-.56,2.29,2.29,0,0,0,.26-1.43c-.05-.35-.39-.28-.46,0Z"/><path class="cls-9" d="M33.21,19.08a7.61,7.61,0,0,1-1,.28.64.64,0,0,0-.44.71c0,.54.27,1.32.91,1.37.33,0,.35-.57.26-.76a3,3,0,0,1-.28-.82c-.07.26-.13.52-.19.79a7.93,7.93,0,0,1,.93-.68c.31-.19.27-1-.18-.89Z"/><path class="cls-9" d="M28.26,20.71c.89.93,2.28-.19,2.2-1.27,0-.22-.1-.53-.36-.58s-.39.23-.42.44a.71.71,0,0,1-1.08.44c-.2-.17-.41,0-.49.21a.75.75,0,0,0,.15.76Z"/><path class="cls-9" d="M32.32,16.47c.17-.07.2,0,.33.1s0,.06,0,.08.1-.13,0,0a2.4,2.4,0,0,1-.9.38c-.35.08-.32.64,0,.8a1.19,1.19,0,0,0,1.77-1.1c0-.67-.81-1.63-1.4-.86-.13.17-.05.74.26.62Z"/><path class="cls-9" d="M35.27,16.16a1.28,1.28,0,0,1,1.23-.08,1.29,1.29,0,0,1,.48.39c.11.15.16.37.37.42a.26.26,0,0,0,.31-.21,1.34,1.34,0,0,0-1-1.52,1.56,1.56,0,0,0-1.68.37c-.2.2-.08.87.26.63Z"/><path class="cls-9" d="M25.84,21.93a2.13,2.13,0,0,0-.46,3.27,1.2,1.2,0,0,0,1.8-1.53c-.15-.25-.38-.1-.47.1-.18.41-.63.71-1,.26s.09-1.11.37-1.48c.12-.16,0-.81-.25-.62Z"/><path class="cls-9" d="M27.74,23.4c.22.36-.27.85-.55,1s-.36.86,0,.93c1.32.24,1.6-1.79.92-2.57-.37-.42-.57.33-.39.62Z"/><path class="cls-9" d="M36.92,24.67c-.49,1.07.82,2.75,2,2a.77.77,0,0,0,.28-.83c0-.23-.26-.6-.55-.45a.77.77,0,0,1-1.1-.53c0-.39-.4-.71-.61-.24Z"/><path class="cls-9" d="M45.38,23.7c.09-.12-.13.12-.12.11s-.1.17-.16.25a1.85,1.85,0,0,1-.38.36,3.37,3.37,0,0,1-1,.51c-.33.1-.31.87,0,.95a1.56,1.56,0,0,0,1.46-.34A2.05,2.05,0,0,0,45.89,24c0-.29-.28-.61-.51-.3Z"/><path class="cls-9" d="M29.89,28.12a1.84,1.84,0,0,0,.37.83c.17.2.49.53.77.48.66-.11.89-1,.79-1.57-.06-.33-.44-.48-.57-.1a.77.77,0,0,1-.4.51h.21a1.31,1.31,0,0,1-.71-.58c-.25-.4-.51.19-.46.43Z"/><path class="cls-9" d="M23.93,28.13c.59.86,1.85,1.64,2.85,1A1.74,1.74,0,0,0,27.54,28c.06-.42,0-1.07-.52-1.16-.13,0-.23.16-.27.25a5,5,0,0,1-.17.55.79.79,0,0,1-.65.33c-.65,0-1.1-.52-1.66-.74s-.5.7-.34.94Z"/><path class="cls-9" d="M22.36,20.76a1.82,1.82,0,0,0-.6,2.53,1.07,1.07,0,0,0,1,.43,1,1,0,0,0,.75-.86c0-.24-.18-.9-.52-.57a.51.51,0,0,1-.6,0s-.09-.13-.06-.06,0,0,0-.06a1.2,1.2,0,0,1,.29-.5.63.63,0,0,0,.12-.63c0-.14-.21-.4-.39-.28Z"/><path class="cls-9" d="M21,25.92a1.37,1.37,0,0,0,1.83-.15A.74.74,0,0,0,22.9,25c-.09-.2-.31-.36-.51-.18a1.59,1.59,0,0,1-1.33.4c-.31,0-.27.57-.11.7Z"/><path class="cls-9" d="M26.68,17.33a1.43,1.43,0,0,0-1.72,1c-.22.68-.09,1.93.72,2.17.39.12.5-.53.37-.78s-.36-.55-.28-.85a1,1,0,0,1,.85-.67c.34,0,.39-.78.06-.85Z"/><path class="cls-10" d="M39,16.66a1.42,1.42,0,0,0,2.22-1.39c-.07-.25-.38-.56-.56-.21s-.19.59-.53.8a1,1,0,0,1-1,.05c-.35-.18-.37.59-.18.75Z"/><path class="cls-10" d="M34.34,28a1.19,1.19,0,0,0,1.26.81,1.1,1.1,0,0,0,1-1.13c0-.16-.07-.36-.26-.38s-.53.25-.8.29a1,1,0,0,1-.46,0,1.68,1.68,0,0,1-.39-.16c-.37-.23-.46.37-.38.61Z"/><path class="cls-10" d="M31.88,18.42c-1,.29-1.39,2.18-.45,2.75.23.14.37-.3.36-.44a2.51,2.51,0,0,0,0-.27s-.06-.22,0-.09,0-.15,0-.2a1.09,1.09,0,0,1,0-.18,1.45,1.45,0,0,1,.39-.78c.19-.21.18-.91-.24-.79Z"/><path class="cls-10" d="M48.2,20.6c.16.31.44.82.12,1.12a1,1,0,0,1-.89.17c-.38-.08-.47.48-.35.74a1.07,1.07,0,0,0,1.94,0,2.19,2.19,0,0,0-.48-2.74c-.15-.13-.3,0-.38.12a.64.64,0,0,0,0,.6Z"/><path class="cls-10" d="M28.62,15.67c-1-.1-1.18,1.4-.77,2a.35.35,0,0,0,.43.16c.65-.18,1.39-.53,1.54-1.25,0-.18,0-.51-.23-.58s-.51.1-.75.23a3.43,3.43,0,0,1-.82.33l.42.16s0,.05,0,.05v.05l0,0s.05-.09.07-.11a.38.38,0,0,1,.18-.09c.37-.12.27-.91-.1-1Z"/><path class="cls-10" d="M20.94,20a9.06,9.06,0,0,1-1,.28c-.39.07-.51.57-.42.91a1.36,1.36,0,0,0,1.12,1.13c.35,0,.3-.58.19-.77a5.83,5.83,0,0,1-.48-.93c0,.33-.09.65-.14,1,.32-.27.67-.49,1-.73s.16-1-.26-.87Z"/><path class="cls-10" d="M16.84,26.45c-.47.89-.55,2.6.61,3a1.24,1.24,0,0,0,1.22-.25c.37-.33.65-1.26.14-1.61a.24.24,0,0,0-.27,0c-.33.19-.36.59-.85.48s-.36-.65-.26-1a.77.77,0,0,0-.11-.72.28.28,0,0,0-.48.06Z"/><path class="cls-5" d="M15.47,23.65a1.06,1.06,0,0,0,0-2.11,1.06,1.06,0,0,0,0,2.11Z"/><path class="cls-5" d="M23.72,20.84a1.06,1.06,0,0,0,0-2.11,1.06,1.06,0,0,0,0,2.11Z"/><path class="cls-5" d="M33.31,30.69a1.06,1.06,0,0,0,0-2.11,1.06,1.06,0,0,0,0,2.11Z"/><path class="cls-5" d="M34.87,19.43a1.06,1.06,0,0,0,0-2.11,1.06,1.06,0,0,0,0,2.11Z"/><path class="cls-5" d="M28.4,27.17a1.06,1.06,0,0,0,0-2.11,1.06,1.06,0,0,0,0,2.11Z"/><path class="cls-5" d="M47.59,26.94a1.06,1.06,0,0,0,0-2.11,1.06,1.06,0,0,0,0,2.11Z"/><path class="cls-5" d="M21.27,16.62a1.06,1.06,0,0,0,0-2.11,1.06,1.06,0,0,0,0,2.11Z"/><path class="cls-5" d="M45.36,19a1.06,1.06,0,0,0,0-2.11,1.06,1.06,0,0,0,0,2.11Z"/><path class="cls-5" d="M29.3,15.68h.22a1.06,1.06,0,1,0,0-2.11H29.3a1.06,1.06,0,1,0,0,2.11Z"/><path class="cls-8" d="M21.27,15.52a.43.43,0,0,0,0-.85.43.43,0,0,0,0,.85Z"/><path class="cls-8" d="M29.07,15.05a.43.43,0,0,0,0-.85.43.43,0,0,0,0,.85Z"/><path class="cls-8" d="M34.65,18.56a.42.42,0,0,0,0-.84.42.42,0,0,0,0,.84Z"/><path class="cls-8" d="M44.91,18.33a.42.42,0,0,0,0-.84.42.42,0,0,0,0,.84Z"/><path class="cls-8" d="M47.36,26.07a.43.43,0,0,0,0-.85.43.43,0,0,0,0,.85Z"/><path class="cls-8" d="M33.09,29.82a.42.42,0,0,0,0-.84.42.42,0,0,0,0,.84Z"/><path class="cls-8" d="M28,26.3a.42.42,0,0,0,0-.84.42.42,0,0,0,0,.84Z"/><path class="cls-8" d="M23.28,20a.42.42,0,0,0,0-.84.42.42,0,0,0,0,.84Z"/><path class="cls-8" d="M15.47,23a.42.42,0,0,0,0-.84.42.42,0,0,0,0,.84Z"/></svg>