<svg id="Graphic_Elements" data-name="Graphic Elements" xmlns="http://www.w3.org/2000/svg" viewBox="0 0 64 72"><defs><style>.cls-1{fill:#78483a;}.cls-2{fill:#e19e6c;}.cls-3{fill:#d26e4e;}.cls-4{fill:#e8a189;}.cls-5{fill:#ecb5a4;}.cls-6{fill:#603323;}.cls-7{fill:#d47866;}.cls-8{fill:#528a7e;}.cls-9{fill:#c4303b;}.cls-10{fill:#d34e5d;}.cls-11{fill:#b41e22;}.cls-12{fill:#925849;}</style></defs><path class="cls-1" d="M12.78,41l3.35,5.28s6.47,3.45,18.89.78,17.54-7.52,17.54-7.52l-.34-8.74-7.93-2-9.35,4.65L23,34l-7.08.87Z"/><path class="cls-2" d="M34.2,43.23l5.5,21.23L41,64.07c-.78-3.28-4.13-17.38-5.56-23.2C34.42,41.38,35.25,42.83,34.2,43.23Z"/><path class="cls-2" d="M40,40.25l4.48,22.6.77-.31-3.87-22A1.55,1.55,0,0,0,40,40.25Z"/><path class="cls-2" d="M31.38,41.59a1.53,1.53,0,0,0-.59.34l6.49,23.16.43-.11.69-.17L32,41.55A1.13,1.13,0,0,0,31.38,41.59Z"/><path class="cls-2" d="M38.8,42.69c-.56.17-1-.17-1.36-.6L42.2,63.67l1.09-.39L39.13,42.55A1.48,1.48,0,0,1,38.8,42.69Z"/><path class="cls-2" d="M25.2,45c-.92.2-1.21-1.53-1.92-2l8.3,22.82c.41,0,.83,0,1.28-.08l-7-21.44A.92.92,0,0,1,25.2,45Z"/><path class="cls-2" d="M29.36,44.51c-.95.16-1.05-1.07-1.71-1.43,1.86,6.22,5.75,19.2,6.74,22.54l1.31-.21c-.77-2.75-4.09-14.75-5.86-21.19A.69.69,0,0,1,29.36,44.51Z"/><path class="cls-2" d="M20.91,45.2c-1.26.16-.89-1.65-2-1.63h-.06l10,22.27c.43,0,.89,0,1.38.05-1.05-2.65-5.86-14.9-8.43-21.42A1.1,1.1,0,0,1,20.91,45.2Z"/><path class="cls-2" d="M16.39,45.31c-.78-.11-1.11-1.29-1.86-1.92.17.36,10.2,19.21,11.77,22.16.37.06.8.13,1.3.19-1.56-3.24-8-16.72-10.09-21A1.23,1.23,0,0,1,16.39,45.31Z"/><path class="cls-2" d="M43,41.3h0L46.41,62l1-.45L43.75,38.42C42.57,39.12,43.88,41,43,41.3Z"/><path class="cls-2" d="M50.68,37.87a1.13,1.13,0,0,1-.74-.13L50.5,60l.39-.22.52-24.12C51.25,36.8,51.65,37.66,50.68,37.87Z"/><path class="cls-2" d="M47,39.8c-.39.12-.76-.19-1.16-.57L48.71,61l.62-.31c-.23-3.37-1.32-19.55-1.6-23.33C47,38.1,47.9,39.5,47,39.8Z"/><path class="cls-3" d="M41.33,40.49l3.87,22L46.41,62,43,41.31C42.51,41.42,42,40.86,41.33,40.49Z"/><path class="cls-3" d="M43.82,38.37l-.07.05L47.4,61.58,48.71,61,45.83,39.23C45.24,38.67,44.6,38,43.82,38.37Z"/><path class="cls-3" d="M47.89,37.17a1.07,1.07,0,0,0-.16.14c.28,3.78,1.37,20,1.6,23.33L50.5,60l-.56-22.27C49.26,37.39,48.65,36.6,47.89,37.17Z"/><path class="cls-3" d="M51.44,59.08,53,35.65a.77.77,0,0,0-1.52-.26v0a2,2,0,0,0-.05.24l-.52,24.12.17-.1A.78.78,0,0,0,51.44,59.08Z"/><path class="cls-3" d="M13.36,44.36,24.63,64.9a.79.79,0,0,0,.47.37c.25.07.66.18,1.2.28-1.57-2.95-11.6-21.8-11.77-22.16A.77.77,0,0,0,13.36,44.36Z"/><path class="cls-3" d="M17.51,44.77C19.57,49,26,62.5,27.6,65.74c.37,0,.78.08,1.23.11L18.88,43.58C18.27,43.63,17.93,44.28,17.51,44.77Z"/><path class="cls-3" d="M22.86,42.94c-.68.08-.77.91-1.08,1.54C24.35,51,29.16,63.25,30.21,65.9l1.37,0-8.3-22.82A.62.62,0,0,0,22.86,42.94Z"/><path class="cls-3" d="M27,43c-.81.21-.89.83-1.08,1.33l7,21.44c.49,0,1-.1,1.53-.17-1-3.34-4.88-16.32-6.74-22.54A.92.92,0,0,0,27,43Z"/><path class="cls-3" d="M29.84,44.22c1.77,6.44,5.09,18.44,5.86,21.19.51-.09,1-.2,1.58-.32L30.79,41.93C30.11,42.56,30.24,43.68,29.84,44.22Z"/><path class="cls-3" d="M35.58,40.79l-.16.08c1.43,5.82,4.78,19.92,5.56,23.2l1.22-.4L37.44,42.09C36.86,41.42,36.37,40.53,35.58,40.79Z"/><path class="cls-3" d="M39.75,40.33c-1.22.65.15,1.71-.62,2.22l4.16,20.73,1.14-.43L40,40.25A.84.84,0,0,0,39.75,40.33Z"/><path class="cls-3" d="M34.07,43.28c-1.14.29-1.08-1.51-2.07-1.73l6.4,23.26,1.3-.35L34.2,43.23Z"/><path class="cls-4" d="M27.32,17.47C18.61,20,15.84,26.54,13.47,28.82s-6.8,10.72-2.39,12.63,7.17-5.37,7.17-5.37.73,6.4,4.82,5.64,6.31-5.66,6.31-5.66,1.33,5.34,5.1,3.43A6.54,6.54,0,0,0,38.24,34s3.28,4.44,6.54,2.2,1.89-6.58,1.89-6.58,3,6.84,7,3.11-4.36-7-7.63-10.91S33,16,30.43,16.57A12.89,12.89,0,0,0,27.32,17.47Z"/><path class="cls-5" d="M24.46,19S7.86,34,11,37.11s3.88-3.48,6.89-3.3,1.92,3.55,4.93,3.73S30,33,29.18,30.22s3.25-3.34,6.36-5S24.46,19,24.46,19Z"/><path class="cls-6" d="M26.48,15.2c-4.22.89-9.73,4.82-8,7.58s2-3.56,3.64-2.27c1,.78-.06,5.34,2.07,5s1.83-4.83,3.4-5.27S31.12,23.29,33,22c1.73-1.19-1.38-3.43-.5-3.85,3.15-1.51,3.28,2.66,5,2.39s2-4.3-1.07-5.78S26.48,15.2,26.48,15.2Z"/><path class="cls-6" d="M16.51,28.38s-4.1-4.69-5.22-2.21,5,7.46,6.4,7.16,4-8.41,1.6-8.41S16.51,28.38,16.51,28.38Z"/><path class="cls-7" d="M40.66,22.14a3.91,3.91,0,0,0-.76,6.44c2.66,2.39,4.75-1.69,7.06-.2s4,2.44,4.35,1S44.68,20.11,40.66,22.14Z"/><path class="cls-1" d="M16.7,29.34S14.2,26.45,13.54,28s3.05,4.6,3.88,4.42,2.38-5.16,1-5.17S16.7,29.34,16.7,29.34Z"/><path class="cls-6" d="M29.45,27.4s-1.51-1.92-3.17-.46,4.65,6.52,5.87,5.91,2.07-7.38.1-8.07S29.45,27.4,29.45,27.4Z"/><path class="cls-1" d="M29.86,28.29a1.44,1.44,0,0,0-2-.25c-1.08.89,2.93,3.86,3.71,3.48s1.4-4.44.14-4.83S29.86,28.29,29.86,28.29Z"/><path class="cls-6" d="M44.1,21.49s-3.65-3.12-3.79-1,3.7,8.8,4.83,7.59,3.49-9.84,1.5-10.15S44.1,21.49,44.1,21.49Z"/><path class="cls-1" d="M44.21,22.44s-2.56-2.18-2.66-.69,2.6,6.17,3.39,5.32S47.39,20.17,46,20,44.21,22.44,44.21,22.44Z"/><path class="cls-3" d="M26.28,17.63a2.75,2.75,0,0,0,1.63-.16c.08,0,.09-.36,0-.36a4.27,4.27,0,0,0-.8.1,4.4,4.4,0,0,1-.81,0c-.12,0-.12.37,0,.38Z"/><path class="cls-1" d="M23.58,17.23S20,18.71,19.66,19.72C18.5,22.78,22,18.23,23,19.17s0,3.8.94,3.59,1.23-2.91,2.23-3.45a3.27,3.27,0,0,1,4,.8c1.29,1.37,2.72,1.89,2.49.78s-2.42-2.78-.94-3.59a3.67,3.67,0,0,1,4.37.37c1.06,1.1,1.46,2.17,1.66.8S36.45,15.26,34.66,15C31.42,14.54,23.58,17.23,23.58,17.23Z"/><path class="cls-8" d="M18.58,6.21a3,3,0,0,0,0,2.32,3.39,3.39,0,0,0,1.63,2c.52.26.71-1.49.21-1.73a2.75,2.75,0,0,1-1.19-.94,3.05,3.05,0,0,1-.36-1.42c0-.08-.13-.47-.27-.25Z"/><path class="cls-8" d="M16.58,9.92A4.82,4.82,0,0,0,18.34,11c.55.17,1.37.38,1.83-.06.29-.27.47-1.37,0-1.58s-1.13.06-1.68.05A3.68,3.68,0,0,1,16.7,9c-.31-.17-.3.78-.12.94Z"/><path class="cls-8" d="M16.93,12.77A3.82,3.82,0,0,0,20.51,12a1.55,1.55,0,0,0,.29-1.4c0-.2-.35-1-.65-.5a3.62,3.62,0,0,1-3.22,1.87c-.27,0-.26.79,0,.85Z"/><path class="cls-8" d="M20.91,6.2a3.76,3.76,0,0,0-.78,2,3.08,3.08,0,0,0,.71,2.61c.61.47.62-1.46.56-1.67.07.67.09.77.05.27a2.73,2.73,0,0,0-.1-.48c-.06-.2-.14-.4-.21-.6a1.27,1.27,0,0,1,.13-1.1c.12-.23,0-1.49-.36-1Z"/><path class="cls-9" d="M20.25,10.05c-2,2.7-2.33,5.47,2.29,7.25s6.83,1.16,7.65-.47-.67-5.12-2.72-7.17S22.28,7.28,20.25,10.05Z"/><path class="cls-10" d="M21.51,9.16c-1.05,1.43-1.23,2.9,1.21,3.84s3.62.62,4.05-.25S26.42,10,25.33,9A2.39,2.39,0,0,0,21.51,9.16Z"/><path class="cls-11" d="M27.47,9.66a6,6,0,0,0-1.1-.86c1.5,2,2.4,4.64,1.73,6-.82,1.63-3,2.26-7.65.47a9.08,9.08,0,0,1-1.32-.61c.44,1,1.5,1.91,3.41,2.64,4.62,1.78,6.83,1.16,7.65-.47S29.52,11.71,27.47,9.66Z"/><path class="cls-2" d="M23.16,9.39c.26.18.6.49.94.48.12,0,.1-.3,0-.36A2,2,0,0,0,23.2,9c-.13,0-.12.29,0,.35Z"/><path class="cls-2" d="M22.62,10.89a4.87,4.87,0,0,0,.5.4.7.7,0,0,0,.47.19c.12,0,.08-.26,0-.33a2.07,2.07,0,0,0-1-.68c-.15-.07-.14.34-.05.42Z"/><path class="cls-2" d="M25.23,10.79a2.6,2.6,0,0,0,.68.86c.14.08.11-.31.09-.36a3.69,3.69,0,0,0-.67-.91c-.06-.08-.12,0-.14.08a.42.42,0,0,0,0,.33Z"/><path class="cls-2" d="M20.87,11.18a2.33,2.33,0,0,0,.11.74c.06.18.16.46.34.55s.12-.31.1-.37a4.77,4.77,0,0,1-.38-1c0-.22-.16-.13-.17,0Z"/><path class="cls-2" d="M22.53,14.16a1.62,1.62,0,0,0,1.41.23c.1-.06.09-.36,0-.4a4.51,4.51,0,0,0-.65-.05,3.41,3.41,0,0,1-.69-.15c-.13,0-.14.32,0,.37Z"/><path class="cls-2" d="M25.1,13.09l.48.48c.1.11.24.32.41.29s.07-.2.05-.26a1.21,1.21,0,0,0-.38-.46l-.49-.42c-.09-.08-.14.3-.07.37Z"/><path class="cls-2" d="M19.8,13.21a3.47,3.47,0,0,0,.74,1.07c.1.08.1-.29.08-.33a3.9,3.9,0,0,0-.72-1c-.11-.12-.14.23-.1.29Z"/><path class="cls-2" d="M27.38,11.52l.27.81a2.25,2.25,0,0,0,.25.64c.09.12.13-.17.12-.21a7.28,7.28,0,0,0-.52-1.44c-.07-.17-.15.13-.12.2Z"/><path class="cls-2" d="M25,15.64a3.29,3.29,0,0,0,1.17,0c.11,0,.11-.33,0-.36a3.07,3.07,0,0,0-1.17,0c-.12,0-.12.35,0,.36Z"/><path class="cls-3" d="M22.34,15.66a1.88,1.88,0,0,0,1.35.73c.11,0,.1-.31,0-.35s-.47-.19-.7-.3a2.37,2.37,0,0,1-.61-.42c-.08-.06-.12.27-.06.34Z"/><path class="cls-3" d="M25.89,17a1.8,1.8,0,0,0,1.4.55c.1,0,.12-.31,0-.35s-.49-.13-.72-.21a2.58,2.58,0,0,1-.66-.34c-.1-.06-.13.29,0,.35Z"/><path class="cls-3" d="M27.91,14.89a3.44,3.44,0,0,0,.41,1c.09.12.11-.19.1-.23a4.18,4.18,0,0,0-.38-1c-.09-.19-.16.15-.13.23Z"/><path class="cls-3" d="M29.54,14.66a2.46,2.46,0,0,0,.2.84c.07.11.12-.05.12-.11a3.87,3.87,0,0,0-.16-.89c-.08-.23-.18,0-.16.16Z"/><path class="cls-12" d="M24,19.08a5.8,5.8,0,0,0-.4,4.19c.1.35.36.8.72.43a2.08,2.08,0,0,0,.19-1.64c-.22,1.51-.22,1.91,0,1.21a3.08,3.08,0,0,0,.07-.61,4.56,4.56,0,0,0-.19-1,3.32,3.32,0,0,1,.07-1.74c.09-.27-.12-1.45-.46-.81Z"/><path class="cls-12" d="M20.48,18.67A3.33,3.33,0,0,0,19,20.27a1.74,1.74,0,0,0,0,1.38c.17.37.42.33.6,0A9.66,9.66,0,0,1,20.72,20c.19-.22.22-1.53-.24-1.3Z"/><path class="cls-12" d="M27.18,28.37a.51.51,0,0,1,.11-.83,1,1,0,0,1,.87,0c.13,0,.12-.29.06-.35a.8.8,0,0,0-1.25.17,1.16,1.16,0,0,0,.12,1.36c.12.11.16-.26.09-.34Z"/><path class="cls-12" d="M30.79,26.43a.84.84,0,0,1,.86-.76,1.31,1.31,0,0,1,.84.38c.09.07.09-.25.08-.29a.94.94,0,0,0-1.24-.5,1.21,1.21,0,0,0-.67,1.17c0,.17.12.17.13,0Z"/><path class="cls-12" d="M44.61,22.48c-.49-.58-2.29-2.33-2.82-1-.42,1,.3,2.49.84,3.34.08.13.13-.23.1-.29-.27-.58-1.35-2.65-.42-3,.67-.26,1.78.77,2.25,1.16.07.05.08-.19,0-.23Z"/><path class="cls-12" d="M17.92,26.9c.38-.34,1,0,1.26.35.07.1.13-.08.13-.12a.84.84,0,0,0-.53-.9.76.76,0,0,0-.92.37s0,.37.06.3Z"/><path class="cls-12" d="M13.35,26.47a.73.73,0,0,0-1.25.33,1.72,1.72,0,0,0,.64,1.89c.12.08.12-.28.09-.33-.2-.36-.72-.94-.43-1.34s.6-.55.9-.31c.07,0,.09-.2,0-.24Z"/><path class="cls-12" d="M30.24,19c-.25.8.36,2.21,1.37,1.9.13,0,.1-.45,0-.47-.54-.12-1.31-.5-1.16-1.19,0-.14-.09-.53-.18-.24Z"/><path class="cls-12" d="M16.31,40.68a4.64,4.64,0,0,0,1.38,2.42c.11.08.08-.26.06-.31a13.59,13.59,0,0,1-1.3-2.37c-.07-.2-.17.17-.14.26Z"/><path class="cls-12" d="M17.31,40c.34.79.65,1.6,1.06,2.36.09.17.14-.13.12-.21-.29-.85-.66-1.67-1-2.5-.1-.23-.2.23-.15.35Z"/><path class="cls-12" d="M27.37,40.67a2.12,2.12,0,0,0,.47,1.4c.13.12.13-.24.11-.3a2.91,2.91,0,0,1-.36-1.1c0-.07,0-.25-.11-.25s-.11.19-.11.25Z"/><path class="cls-12" d="M28.61,39.52A15.26,15.26,0,0,0,29,41.44c.06.17.14-.12.13-.18a18.21,18.21,0,0,0-.4-1.95c-.06-.28-.19.08-.16.21Z"/><path class="cls-12" d="M20.1,42.1a15.2,15.2,0,0,0,1,1.39c.09.1.11-.2.09-.25a15.28,15.28,0,0,0-1-1.53c-.09-.15-.17.29-.1.39Z"/><path class="cls-6" d="M37.48,38.37a8.41,8.41,0,0,0,.32,1.49c.05.14.11-.1.11-.15a9.17,9.17,0,0,0-.32-1.45c0-.17-.13,0-.11.11Z"/><path class="cls-6" d="M38.92,36.49a4.81,4.81,0,0,0,.24,2.1c.07.17.15-.1.14-.17a10,10,0,0,1-.23-1.88c0-.15-.13-.25-.15,0Z"/><path class="cls-6" d="M40.66,37.8a8.29,8.29,0,0,0,1,1.61c.1.11.1-.21.08-.26a10.57,10.57,0,0,0-1-1.64c-.07-.12-.12.22-.07.29Z"/><path class="cls-6" d="M46.5,36.24A1.45,1.45,0,0,0,46.65,38c.1.07.08-.27.06-.31a1.1,1.1,0,0,1-.11-1.19c0-.08,0-.41-.1-.29Z"/><path class="cls-6" d="M47.72,33.86a2.92,2.92,0,0,0,.53,1.65c.11.12.11-.22.09-.27a5.89,5.89,0,0,1-.45-1.48c0-.26-.18-.07-.17.1Z"/><path class="cls-6" d="M33.63,40.38a2,2,0,0,0,.4,1.83c.08.07.08-.23.07-.26a2.27,2.27,0,0,1-.31-1.41c0-.13-.11-.41-.16-.16Z"/></svg>