<svg id="Graphic_Elements" data-name="Graphic Elements" xmlns="http://www.w3.org/2000/svg" viewBox="0 0 64 72"><defs><style>.cls-1{fill:#993abe;}.cls-2{fill:#7a4b4b;}.cls-3{fill:#e19e6c;}.cls-4{fill:#d26e4e;}.cls-5{fill:#78469b;}.cls-6{fill:#c48bfa;}.cls-7{fill:#ae80c1;}.cls-8{fill:#eab4fb;}.cls-9{fill:#faf1bb;}.cls-10{fill:#5c3c80;}.cls-11{fill:#fff;}.cls-12{fill:#ecc3fc;}.cls-13{fill:#f0d0fc;}.cls-14{fill:#e0c5fc;}.cls-15{fill:#66b0b4;}.cls-16{fill:#e79e63;}</style></defs><path class="cls-1" d="M25.81,39.94l.66,1a.59.59,0,0,0,.79.21.58.58,0,0,0,.2-.79c-.21-.35-.43-.69-.65-1a.58.58,0,0,0-.79-.2.57.57,0,0,0-.21.78Z"/><path class="cls-2" d="M36.68,7.08c-1.35-.09,1.74,1.66,2.77,1.4S37.79,7.16,36.68,7.08Z"/><path class="cls-2" d="M44.7,48.41a8.2,8.2,0,0,0,3.41-.09l2.66-4.92-4-6.57L34.48,32.6l-8.89-2.22L15.24,25.92l-4.68,3s1.91,9,2,11.89Z"/><path class="cls-3" d="M12.22,36.86l1.84,22.83a.72.72,0,0,0,.27.52c.93.78,4.61,3.53,11.36,4.79a50.71,50.71,0,0,0,14,.62.78.78,0,0,0,.59-.4L51.05,44.94a.75.75,0,0,0-1.25-.83l0,0c-.75,1-.66,2.08-1.67,1.86s-1-2-2.22-1.74-.86,2.09-1.84,2-.82-2.61-2.26-2.54-1,2.38-1.86,2.29-1-2.28-2.55-2.17-.36,1.93-1.8,1.73-.76-2.86-2.11-3-1,1.84-2.35,1.61,0-2.38-1.72-2.58-1.82,2.1-3,1.8-.2-2-1.52-2.28-1.33,1.3-2.39,1.08-.27-2.49-1.26-2.81-1.44,1.6-2.64,1.24-.14-1.83-1.1-2.24-1.94,1.17-3,.53c-.65-.41-.48-1.6-.9-2.46A.76.76,0,0,0,12.22,36.86Z"/><path class="cls-3" d="M31.26,44.2,27.68,65.33l1.29.16c.62-3.23,3.27-17.15,4.32-22.92C32.2,42.63,32.36,44.26,31.26,44.2Z"/><path class="cls-3" d="M37.58,43.83l-5,22,.81,0L38.72,44.6A1.54,1.54,0,0,0,37.58,43.83Z"/><path class="cls-3" d="M29.4,41.6a1.4,1.4,0,0,0-.66.07L25.26,64.92l.43.08.68.12L30,41.81A1.2,1.2,0,0,0,29.4,41.6Z"/><path class="cls-3" d="M35.58,45.56c-.57-.08-.8-.55-1-1.09L30.22,65.62l1.13.09,4.58-20.15A1.36,1.36,0,0,1,35.58,45.56Z"/><path class="cls-3" d="M22.52,42.2c-.91-.2-.47-1.86-.92-2.54L19.86,63.34c.38.15.77.29,1.18.43l2.38-21.9A.94.94,0,0,1,22.52,42.2Z"/><path class="cls-3" d="M26.43,43.4c-.91-.24-.51-1.38-.95-2-.83,6.29-2.55,19.42-3,22.79.4.12.82.23,1.25.34C24.14,61.81,26,49.78,27,43.33A.73.73,0,0,1,26.43,43.4Z"/><path class="cls-3" d="M18.62,40.63c-1.19-.36-.14-1.83-1.1-2.24l-.06,0,0,23.85c.37.19.77.39,1.21.59.13-2.78.73-15.63,1.06-22.47A1.09,1.09,0,0,1,18.62,40.63Z"/><path class="cls-3" d="M14.55,38.92c-.65-.41-.48-1.6-.9-2.46,0,.39,1.42,21.22,1.64,24.47.3.21.66.45,1.08.7-.09-3.52-.48-18.13-.61-22.75A1.19,1.19,0,0,1,14.55,38.92Z"/><path class="cls-3" d="M39.93,46h-.06L34.63,65.84h1.06l6-22.12C40.37,43.87,40.79,46.08,39.93,46Z"/><path class="cls-3" d="M48.11,46a1.06,1.06,0,0,1-.61-.41L39.08,65.68l.45,0L49.64,44.33C49,45.28,49.06,46.2,48.11,46Z"/><path class="cls-3" d="M44.05,46.25c-.4,0-.61-.48-.81-1L37.11,65.8l.68,0c1.14-3.09,6.65-18,7.92-21.45C44.71,44.73,45,46.34,44.05,46.25Z"/><path class="cls-4" d="M38.72,44.6,33.35,65.82l1.28,0L39.87,46C39.4,45.9,39.13,45.18,38.72,44.6Z"/><path class="cls-4" d="M41.79,43.71H41.7l-6,22.12c.51,0,1,0,1.42,0l6.13-20.53C42.93,44.54,42.65,43.67,41.79,43.71Z"/><path class="cls-4" d="M45.89,44.26l-.18.06c-1.27,3.49-6.78,18.36-7.92,21.45l1.29-.09L47.5,45.59C47,45,46.8,44.06,45.89,44.26Z"/><path class="cls-4" d="M40.3,65.22,51.05,44.94a.75.75,0,0,0-1.25-.83l0,0-.14.19L39.53,65.64l.18,0A.78.78,0,0,0,40.3,65.22Z"/><path class="cls-4" d="M12.22,36.86l1.84,22.83a.72.72,0,0,0,.27.52,10.55,10.55,0,0,0,1,.72c-.22-3.25-1.63-24.08-1.64-24.47A.76.76,0,0,0,12.22,36.86Z"/><path class="cls-4" d="M15.76,38.88c.13,4.62.52,19.23.61,22.75.31.19.66.38,1.05.59l0-23.85C16.9,38.17,16.33,38.61,15.76,38.88Z"/><path class="cls-4" d="M21.26,39.39c-.63-.2-1,.5-1.57,1-.33,6.84-.93,19.69-1.06,22.47.39.18.8.35,1.23.53L21.6,39.66A.66.66,0,0,0,21.26,39.39Z"/><path class="cls-4" d="M24.91,41.12c-.81-.14-1.13.37-1.49.75L21,63.77c.45.16.93.32,1.43.46.46-3.37,2.18-16.5,3-22.79A.88.88,0,0,0,24.91,41.12Z"/><path class="cls-4" d="M27,43.33c-1,6.45-2.84,18.48-3.26,21.24.5.12,1,.24,1.54.35l3.48-23.25C27.88,42,27.55,43,27,43.33Z"/><path class="cls-4" d="M33.47,42.57h-.18c-1,5.77-3.7,19.69-4.32,22.92.42.05.84.1,1.25.13l4.39-21.15C34.36,43.64,34.28,42.65,33.47,42.57Z"/><path class="cls-4" d="M37.38,43.83c-1.36.09-.56,1.58-1.45,1.73L31.35,65.71c.41,0,.8.06,1.19.07l5-22Z"/><path class="cls-4" d="M31.12,44.18C30,44,30.77,42.41,30,41.81L26.37,65.12l1.31.21L31.26,44.2Z"/><path class="cls-5" d="M53.31,36.6,10.39,27.47a40.43,40.43,0,0,0,1,5.87c1.87-1.29,3.82-2.87,5-2,2.35,1.69-3.31,8-.65,8.77s4.74-4.88,6.4-3.36C23.33,37.8,21.31,45.29,25,46c5.12,1,4.47-9.36,6.38-9.26,3,.17.55,9.56,4.58,9.73,3.31.14,2.95-6.87,4.16-6.82,2.33.09,1.89,7.95,4.64,7.16,1.7-.49,2.26-3.44,2.44-5.61a.41.41,0,0,1,.8-.08,10.94,10.94,0,0,0,2.67,4.45C52.76,42.24,51.44,40,53.31,36.6Z"/><path class="cls-6" d="M36,22.12S20,16.94,12.2,25.3s-5.55,10.92-3,10.49,6.66-5.53,8.22-3.74S14,40.47,16.62,41.3,21.7,36,23.73,37.11,21.84,47.52,26,47.75,29.13,36,32.13,36.31s1.38,10.95,4.66,11.48,1.57-8.29,3.9-8.16,2.15,9.29,4.92,8.43c1.71-.54,2.31-3.66,2.51-6a.41.41,0,0,1,.8-.09c.94,2.8,2.77,6.91,5.27,5.92,3.7-1.47,1-14.78,1-14.78A35.33,35.33,0,0,0,36,22.12Z"/><path class="cls-7" d="M55.27,35.56c-.28-2.43-.65-4.33-.65-4.33a35.45,35.45,0,0,0-19.28-11s-16-5.18-23.75,3.18l-1,1.15c1.89,4.22,10.29-3.7,11.75-2.79,1,.59-4.88,7.23-.78,8.42s6.22-6.09,8.42-5c3,1.42,1.23,7.58,5.71,8.53s3.56-5.84,4.71-5.68c2.13.3.35,6.46,5.39,6.87,3.64.31.94-4.64,3.34-4.92C51.12,29.66,52.92,35.29,55.27,35.56Z"/><path class="cls-8" d="M35.59,17.5c-3-1-6.64-3.67-11.73-3.3S9.84,19,11.59,23.37,20.86,19.21,23,20.48s-4.79,7.37-.84,8.53,5.25-6.47,8.2-5.19,1.12,7.66,5.44,8.58,2.55-5.92,4.62-5.8,1,6.78,5.15,6.91c3.53.1.62-5.2,3-5.51s4.73,8.37,7.51,5.63.34-9.93-6.43-13-8.43-4-8.43-4Z"/><path class="cls-9" d="M36.4,14c-5.58-1.18-11.58-2.24-12.54.24s.64,3.4,3.93,4.82c3.94,1.7,6.79,5.44,12.09,3.86,5-1.51,7.47.3,8.33-2.75S40.1,14.75,36.4,14Z"/><path class="cls-10" d="M36.31,6.52c-3.32-1.48-6.89,1.75-6,6,.85,3.86,3.16,4.86,5.94,5.46s4.87-.21,6.3-2.35,1.83-6.53-1-7.65S38.37,7.44,36.31,6.52Z"/><path class="cls-5" d="M41.65,8c-2.84-1.15-3.28-.54-5.34-1.46-3-1.36-6.27,1.23-6.1,4.92,1.07,2.67,3.11,3.48,5.5,4,2.78.59,4.88-.21,6.3-2.35a7.36,7.36,0,0,0,1.11-3.82A2.94,2.94,0,0,0,41.65,8Z"/><path class="cls-6" d="M35.11,7.92c-1.25-.7-2.77.44-2.55,2.13a2.55,2.55,0,0,0,2.13,2.35,2.15,2.15,0,0,0,2.55-.69c.64-.79.95-2.49-.09-3S35.88,8.35,35.11,7.92Z"/><path class="cls-6" d="M40.93,10c-.8.46,0,2.3.7,1.93S42.06,9.3,40.93,10Z"/><path class="cls-11" d="M43.08,17.48a8.05,8.05,0,0,0,1.11.62c.26,1.44-.11,2-1.13,1.55-1,.13-2-.46-3-.33-2,.25-3.26,1.87-5.49,1-1.83-.73-3.27-2.26-5.06-3.09a10.24,10.24,0,0,1-2.55-1.12c-1-.38-.92-1.05.19-2,.44,0,.87,0,1.3,0,.11,0,.1-.32,0-.35-2.05-.85-4.39.08-3.31,2.59.76,1.76,2.93,2,4.46,2.71,2,.93,3.25,2.89,5.39,3.51s3.15-.81,5-1.08c1.55-.23,4.09,1.13,5.41-.08,2-1.81-.43-4.17-2.35-4.23-.11,0-.09.28,0,.32Z"/><path class="cls-12" d="M21.19,16.35l.19-.14c.05,0,.05-.28,0-.24l-.19.1c-.09.05,0,.33,0,.28Z"/><path class="cls-13" d="M21.36,15.65c-3.7-.12-9.45,3.07-7.49,7.51.11.23.35.58.65.39l.17-.11c.38-.24.4-1,.35-1.38a6.59,6.59,0,0,1-.23-1c-.13.67.22.29.43.1.7-.62,1.22-1.44,2-2.05a19.5,19.5,0,0,1,4.21-2.56c.21-.1.22-.86-.05-.87Z"/><path class="cls-13" d="M19.2,20.25c2.2-1.07,5.78.37,3.95,3.13a5.9,5.9,0,0,0-1.37,4.15c.07.69.64,1.14.89.26.41-1.45,1.51-2.53,2-3.94a5.43,5.43,0,0,0,.07-3.47c-1-2.9-4.16-3.09-5.63-.51,0,.06-.08.45.07.38Z"/><path class="cls-13" d="M32.91,25.21c.32,1.63.72,7.59,3.76,6.5,1.19-.42,1.59-2.06,1.86-3.14a11,11,0,0,0,.17-4.84c-.13-.63-.51-.23-.58.18-.24,1.25-.34,5.72-2.25,5.44-1-.15-1.34-1.24-1.63-2s-.71-1.71-1.06-2.57c-.16-.4-.29.33-.27.47Z"/><path class="cls-13" d="M43.17,29.28c.37,1,1.32,3.42,2.48,1.68A3.69,3.69,0,0,0,46,29.2,12.88,12.88,0,0,1,46,27.83c.36-1.58,1.73-1.27,2.68-.88s3.82,3.07,5,2.05.36-3.16-.25-4.06c-.41-.58-.56.94-.5,1.14.4,1.49-2-.35-2.25-.53a17,17,0,0,0-1.66-1,2.94,2.94,0,0,0-3.08,0,3.1,3.1,0,0,0-1,2.32c0,.51.11,1,.08,1.53-.09,1.46-.88,1.32-1.55.17-.18-.29-.26.52-.22.64Z"/><path class="cls-14" d="M10.27,26.36c-1.6.54-3.06,3-2.4,4.7,1,2.59,4.16-.59,5.28-1.36,2.14-1.48,5.15-1.74,4.51,2-.26,1.51-1.17,2.9-1.38,4.42-.08.54-.18,1.54.25,2,.63.65,1.07.31,1.34-.38.09-.23.21-1.15-.22-1.17a.8.8,0,0,1-.77-.35c.11.24.21.48.32.73-.12-.9.79-2.43,1.06-3.28a10.08,10.08,0,0,0,.56-2.83,4.88,4.88,0,0,0-1.4-3.92c-1.73-1.46-3.61-.06-5.12,1a11.11,11.11,0,0,1-2.92,1.9c-.69.49-.8.43-.34-.2a7.76,7.76,0,0,1,.64-1.07c.28-.48.53-1,.78-1.48.06-.14.11-.82-.19-.73Z"/><path class="cls-14" d="M27,29.61A34.61,34.61,0,0,0,24,39.07c-.26,1.54-1.16,5.42,1.12,5.88a.4.4,0,0,0,.29-.18l.33-.4C26,44,26,43,25.6,42.7c-1.44-1-.32-4.53,0-5.94a54.79,54.79,0,0,1,1.74-6.54c.07-.19-.06-1-.27-.61Z"/><path class="cls-14" d="M36.6,43.63A35.66,35.66,0,0,0,37.1,39c.06-1.24.33-3.06-.58-4-.42-.46-.78.08-.88.52a8,8,0,0,0,.21,3.58,20.51,20.51,0,0,1,.3,4.43c0,.47.36.75.45.14Z"/><path class="cls-14" d="M50.1,33A24.34,24.34,0,0,0,52,37.92c.28.68.56,2.36-.56,1.81a4,4,0,0,1-1.17-1.19c-.48-.64-.74-1.43-1.28-2a2.3,2.3,0,0,0-3.15-.41c-1.36,1-1.08,2.89-1.5,4.29,0,.16,0,1.35.37,1.07a2.57,2.57,0,0,0,.82-1.79c.27-1.19,1.28-2.3,2.59-1.43s1.76,4.15,3.92,4.28c1.68.1,1.42-3,1.21-4-.45-2.23-2.11-3.83-2.83-5.93-.12-.36-.31.24-.28.38Z"/><path class="cls-14" d="M34.17,7V7a.36.36,0,0,0-.26-.17,1.6,1.6,0,0,0-1,.61,2.76,2.76,0,0,0-.45,2.05c.06.36.24.76.66.57a1.41,1.41,0,0,0,.43-.37L34,9.29l.17-.19a.53.53,0,0,0,.17-.24c.06-.25.09-.32.07-.2.2-.42.25-1.35-.19-1.66Z"/><path class="cls-1" d="M18,25.81,19.48,25c.66-.35.07-1.35-.58-1l-1.53.82c-.65.35-.07,1.35.58,1Z"/><path class="cls-1" d="M19.6,31.67c.16.34.33.67.5,1a.58.58,0,0,0,.79.21.59.59,0,0,0,.21-.79l-.51-1a.57.57,0,1,0-1,.58Z"/><path class="cls-1" d="M29.34,28.73l-.87,1.6c-.35.65.64,1.23,1,.58l.86-1.6c.36-.65-.64-1.24-1-.58Z"/><path class="cls-1" d="M39.73,35.79c.47-.28.92-.57,1.37-.88a.59.59,0,0,0,.2-.79.57.57,0,0,0-.78-.2c-.45.31-.9.6-1.37.87a.58.58,0,0,0,.58,1Z"/><path class="cls-1" d="M9,32.05q.11-.78.27-1.56c.15-.72-1-1-1.12-.3s-.23,1.24-.3,1.86a.58.58,0,1,0,1.15,0Z"/><path class="cls-1" d="M53.7,40.52A10.37,10.37,0,0,1,53.3,42a.57.57,0,0,0,.4.71.6.6,0,0,0,.71-.41,10.24,10.24,0,0,0,.4-1.44.6.6,0,0,0-.4-.71.59.59,0,0,0-.71.4Z"/><path class="cls-1" d="M43.41,40.4c.16.47.31.94.47,1.41.23.7,1.34.4,1.11-.31-.16-.47-.31-.94-.47-1.41-.23-.7-1.34-.4-1.11.31Z"/><path class="cls-15" d="M27.48,37.73l1-1.08a.58.58,0,0,0-.82-.81l-1,1.08a.58.58,0,1,0,.82.81Z"/><path class="cls-15" d="M19.09,36a6.86,6.86,0,0,0,1.09-.76.59.59,0,0,0,0-.81.58.58,0,0,0-.82,0,4.86,4.86,0,0,1-.85.57.58.58,0,0,0,.58,1Z"/><path class="cls-15" d="M10.19,27.37l1-.51a.58.58,0,0,0,.2-.78.57.57,0,0,0-.78-.21l-1,.51a.58.58,0,0,0-.21.79.59.59,0,0,0,.79.2Z"/><path class="cls-15" d="M33.75,35.43l1,1c.53.52,1.35-.29.81-.81-.32-.33-.65-.65-1-1a.58.58,0,0,0-.82.82Z"/><path class="cls-15" d="M37.16,40.28l-.8,1a.6.6,0,0,0,0,.82.59.59,0,0,0,.81,0c.27-.35.54-.69.8-1a.59.59,0,0,0,0-.81.57.57,0,0,0-.81,0Z"/><path class="cls-15" d="M47.71,36,48,37.18a.59.59,0,0,0,.71.4.58.58,0,0,0,.4-.71l-.24-1.17a.58.58,0,0,0-.71-.41.6.6,0,0,0-.4.71Z"/><path class="cls-15" d="M51.14,43.8l1.38.71c.66.34,1.25-.66.59-1l-1.38-.7c-.66-.34-1.25.65-.59,1Z"/><path class="cls-16" d="M25.19,31.62l1.48-.89a.57.57,0,0,0-.58-1l-1.48.89a.57.57,0,0,0,.58,1Z"/><path class="cls-16" d="M37.21,36.7l-.88,1a.59.59,0,0,0,0,.81.57.57,0,0,0,.82,0l.87-1a.57.57,0,0,0-.81-.81Z"/><path class="cls-16" d="M46.16,38.76l-.24,1.16a.57.57,0,1,0,1.11.3c.08-.38.16-.77.25-1.16a.58.58,0,0,0-1.12-.3Z"/><path class="cls-16" d="M52.81,36.39l.7,1.47a.58.58,0,1,0,1-.58c-.24-.49-.47-1-.7-1.47a.58.58,0,0,0-1,.58Z"/><path class="cls-16" d="M18.55,26.42l-.11,1.19a.58.58,0,0,0,.57.58.59.59,0,0,0,.58-.58l.12-1.19a.58.58,0,0,0-.58-.57.59.59,0,0,0-.58.57Z"/><path class="cls-16" d="M10.44,29.1h1.05a.58.58,0,0,0,0-1.16H10.44a.58.58,0,0,0,0,1.15Z"/><path class="cls-16" d="M21.84,15.33c.06.36.12.73.17,1.09a.58.58,0,1,0,1.11-.31c-.05-.36-.11-.72-.17-1.08a.59.59,0,0,0-.71-.41.6.6,0,0,0-.4.71Z"/><path class="cls-16" d="M18.6,18.13a2.34,2.34,0,0,1-.44.68.58.58,0,0,0,.82.81,3.82,3.82,0,0,0,.73-1.19.57.57,0,0,0-.4-.7.59.59,0,0,0-.71.4Z"/><path class="cls-16" d="M25.44,23.94c-.12.41-.24.81-.35,1.22a.58.58,0,0,0,1.11.3c.12-.4.24-.81.35-1.21a.58.58,0,0,0-1.11-.31Z"/><path class="cls-16" d="M26.15,19.57l-.69.49a.59.59,0,0,0-.2.79.57.57,0,0,0,.79.2l.68-.48a.6.6,0,0,0,.21-.79.59.59,0,0,0-.79-.21Z"/><path class="cls-16" d="M32.57,24.08l1.07.31a.58.58,0,0,0,.3-1.12L32.88,23a.58.58,0,0,0-.31,1.11Z"/><path class="cls-16" d="M39.85,24.55l.9,1.08a.57.57,0,0,0,.81,0,.58.58,0,0,0,0-.81l-.9-1.08a.57.57,0,0,0-.81,0,.58.58,0,0,0,0,.81Z"/><path class="cls-16" d="M45.18,23.3c-.07.31-.13.61-.2.92a.59.59,0,0,0,.4.71.57.57,0,0,0,.71-.4c.07-.31.13-.62.2-.93a.6.6,0,0,0-.4-.71.59.59,0,0,0-.71.41Z"/><path class="cls-16" d="M55,27.7A5.41,5.41,0,0,0,55.39,29a.58.58,0,0,0,.78.21.59.59,0,0,0,.21-.79,5.19,5.19,0,0,1-.3-1A.58.58,0,0,0,55,27.7Z"/><path class="cls-16" d="M46.06,30.51c-.08.41-.17.82-.26,1.23a.6.6,0,0,0,.4.71.58.58,0,0,0,.71-.4l.27-1.24a.6.6,0,0,0-.41-.71.59.59,0,0,0-.71.41Z"/><path class="cls-16" d="M49.63,23a1,1,0,0,1,.66-.21.61.61,0,0,0,.71-.41.59.59,0,0,0-.41-.71,2.15,2.15,0,0,0-1.54.33.6.6,0,0,0-.21.79.59.59,0,0,0,.79.21Z"/><path class="cls-16" d="M13.31,20.91l1.14-.09a.59.59,0,0,0,.58-.57.58.58,0,0,0-.58-.58l-1.14.09a.58.58,0,1,0,0,1.15Z"/></svg>