<svg id="Graphic_Elements" data-name="Graphic Elements" xmlns="http://www.w3.org/2000/svg" viewBox="0 0 64 72"><defs><style>.cls-1{fill:#d5803f;}.cls-2{fill:#e49952;}.cls-3{fill:#eaab74;}.cls-4{fill:#eec086;}</style></defs><path class="cls-1" d="M10.93,33.33S2.35,36,6,48.44c4,13.64,28.91,26.93,47.34,7.18C70.55,37.18,55.3,8.5,33.07,9.47S10.93,33.33,10.93,33.33Z"/><path class="cls-2" d="M9.09,30.26S.5,32.94,4.15,45.36C8.16,59,33.06,72.3,51.49,52.55c17.21-18.44,2-47.12-20.26-46.16S9.09,30.26,9.09,30.26Z"/><path class="cls-1" d="M7.93,30.9C5.76,42.64,14.82,55.14,26.76,57c12.44,1.94,24.29-7.32,25-20C52.44,24,39.05,11.7,26.34,18.89c-5.43,3.07-8.89,9.48-7.79,15.74,1,5.55,5.84,10.37,11.67,10.2A9.31,9.31,0,0,0,38.93,32.7c-1.74-5.61-9-6.75-11.62-1.27-.34.73.45,3.18,1.42,2,2.42-2.8,9.71-2.95,8,3.13-.8,2.84-4.54,4.14-7.16,4a9.13,9.13,0,0,1-7.1-4.16c-2.4-3.73-.8-8.25,2.1-11.12,8.94-8.89,24.17-1.7,24.22,10.54,0,11-10.92,18.13-21.14,17C16.55,51.61,10,41.21,10.07,30.74c0-1.15-.44-.57-1.51-.27Z"/><path class="cls-3" d="M22.29,30.39c2.77-7.48,13.92-8.08,19.57-3.87A12.11,12.11,0,0,1,47,35.78C47,40.57,44,43.9,40.79,47c-.6.57-.47,2.76.71,2.32,10-3.69,9.75-18.29,3.2-24.86-7.07-7.1-21.06-5.11-23.09,5.56-.09.45.44,1.05.68.41Z"/><path class="cls-3" d="M21.12,33a2.85,2.85,0,0,0-.33,2.1c.1.58.4,1.75,1.12,1.76.32,0,.44-.46.43-.7a4.84,4.84,0,0,0-.52-1.54,10.19,10.19,0,0,1-.29-1.46c0-.23-.25-.37-.41-.16Z"/><path class="cls-3" d="M23.56,39.08a4.1,4.1,0,0,0,1.32,1.73c.51.36,1.33.87,1.93.48A.84.84,0,0,0,27,40.14c-.42-.52-1-.59-1.54-.87A10.2,10.2,0,0,1,24,38.46c-.36-.24-.5.39-.39.62Z"/><path class="cls-3" d="M28.27,29.51A3.3,3.3,0,0,0,27,32a1.86,1.86,0,0,0,1.81,1.9c1.57,0,2.63-1.46,4.33-1.34,3,.19,3.67,3.24,2.45,5.53-.12.21,0,1,.34.65,1.81-1.61,1.6-4.73,0-6.41a4.81,4.81,0,0,0-3.07-1.44,4,4,0,0,0-2,.35,9.54,9.54,0,0,1-1.12.62l-.47.23c-1.21-.58-1.49-1.32-.84-2.21.07-.12,0-.57-.2-.38Z"/><path class="cls-3" d="M34.55,28.62a9.45,9.45,0,0,1,1.54,1c.37.29.77.8,1.27.81.34,0,.39-.51.35-.74a2.31,2.31,0,0,0-1.26-1.52,3.3,3.3,0,0,0-1.85-.39c-.36,0-.3.68-.05.8Z"/><path class="cls-3" d="M38.41,32.65c.06.82.33,1.59.41,2.41s-.07,1.73,0,2.59c0,.35.44,1,.74.45.83-1.48.66-4.7-.66-5.89-.28-.25-.49.22-.48.44Z"/><path class="cls-3" d="M37.84,40.38C36.68,42,35,42.78,33.23,43.67c-.43.23-.44,1.32.15,1.32,2.34,0,4.11-2.06,5-4,.14-.31-.18-1-.51-.57Z"/><path class="cls-3" d="M28.75,48.12c-1.72-.27-5.68-.45-6.46-2.31-.15-.36.18-1,.05-1.44a3,3,0,0,0-1.54-1.56c-1.45-.83-1.64,0-2.56-1.94-1.43-3-.35-.76-.63-1.71s.17-1.16-.44-2c-1.08-1.49-1.81.05-1.88-3.11,0-.38.5-.94.33-1.38-.1-.28-.94-1.34-1-1.53-.46-1.58.46-1.46,1-2.65.45-1,0-1.45,0-2.47,0-.4-.49-.76-.49-1.14,0-5.28.73-1.09,1.82-2.7.36-.53.57-1,.91-1.51.51-.83,1-2.52,2.13-3,.5-.18,1.27.15,1.81,0,1.06-.31,1.05-.87,1.76-1.46s1.56-1.6,2.66-1.71c.27,0,.62.59.89.52,2.19-.62,2.76-2.61,5.82-.73.62.39.86-.85.41-1.17-1.57-1.14-2.39-1-4.2-.67l-.86.55a1.93,1.93,0,0,1-2.34-.21c-.54,0,.37-.68-1-.1-1,.42-1.11,1.21-1.7,2-1.8,2.33-3.36.86-5.05,2.29-.81.69-.58,1.67-1,2.51-.89,2-2.42,1.56-3.1,3.2-.42,1,.25,1.85.33,2.79.32,3.38-1.2,2.8-1.18,4.94,0,.9.83,1.08,1,1.76.34,1.17-.67,2.08-.49,3.1s.63,1,1.26,1.76a4.55,4.55,0,0,1,1.46,3c.08.39-.29,1-.1,1.38a3,3,0,0,0,1.44,1.69c1.62,1,2.56-.16,3.56,2.39.06.16-.33.59-.21.79,1.39,2.47,4.89,3,7.62,2.86.48,0,.42-1,0-1.06Z"/><path class="cls-3" d="M36.57,13.8c2.17-.83,3.76,1,5.54,1.84,1.54.71,2.89,0,4.07,1.67.52.74,0,1.27.8,2,1.48,1.36,2.52-.2,3,2.63.09.51-.19,1.07,0,1.59.41,1,1.17.83,1.81,1.46,1.38,1.4.41,2.86.7,4.46a4.92,4.92,0,0,0,1.87,3c.5.43.76-.74.38-1.08-3.12-2.8.06-4.27-1.3-6.65-.55-.95-1.35-1-1.86-2.06-.95-1.94.31-3.13-2.18-4.12-1.35-.53-1.27-.22-2.24-1.71-.22-.33.06-.91-.22-1.26a2.5,2.5,0,0,0-1.77-1.26c-2.29-.65-1,.45-4.17-1.32-.28-.16-.48-.62-.81-.7-1.55-.4-2.46,0-3.83.86-.22.14-.19.78.14.65Z"/><path class="cls-3" d="M5.48,40.07c-.3,1.92.65,2.81,1.23,4.55.52,1.52,0,3.29,1.2,4.57,1,1.05,1.75.89,2.52,2.38.36.7.59,1.89,1,2.56,1,1.52,3.34,1.19,4.77,1.89.45.22.43-.7.23-.9-1.14-1.11-2.57-.47-3.74-1.3s-.63-2.86-1.53-3.91A6.42,6.42,0,0,0,10,49.07a3.6,3.6,0,0,1-2.1-2.41c0-.51.06-1,.07-1.52-.15-1.44-2.13-4-2.05-4.92,0-.32-.34-.58-.41-.15Z"/><path class="cls-3" d="M20.15,58.14c1.92,1.88,3,2.54,5.6,2.49a3.31,3.31,0,0,1,2.84-.22c.5.27,1,.53,1.54.77a3.45,3.45,0,0,0,1.62.08.29.29,0,0,0,.19-.08,4.6,4.6,0,0,1,4.07-1c.92-.07,1.26.33,2.2,0s.77-.86,1.61-1.52c2.36-1.88,2.76-1.3,4.45-2.36,2.2-1.39,2.64-4,4.77-5.66C50.54,49.38,52,49,52.67,47c1.16-3.22,3.56-6.67,1.74-10-.35-.64-.87.38-.66.81,1.15,2.32-.67,3.72-1.44,5.37-1.23,2.64,3.82-.12-1.62,5.18-.8.78-2.14,1-3,1.77a9.41,9.41,0,0,0-1.53,2.3c-2,3.28-2.87,2.42-5.26,4-1,.69-1.43,1.56-2.63,2.12-2,1-.56.39-3.26.25-1.37-.06-1.66.44-2.8.82-2.25.75-2.78-.57-4.76-.83-.81-.11-.21.15-1.26.24-2.65.22-3.59.17-5.87-1.5-.29-.22-.37.39-.2.56Z"/><path class="cls-3" d="M26.64,21.35a2.89,2.89,0,0,1,1.06-.7c.42-.17.85-.18,1.13-.56a.71.71,0,0,0-.1-.86c-.81-.62-2.07.8-2.47,1.41-.16.24,0,1.07.38.71Z"/><path class="cls-3" d="M33,19.41a20.15,20.15,0,0,1,2.3.41,4.49,4.49,0,0,0,1.9.33c.38-.06.39-.62.22-.88-1-1.49-3-1.47-4.53-.84-.37.15-.29.93.11,1Z"/><path class="cls-3" d="M41,20.16c.39.5.79,1.23,1.44,1.4s.58-.63.45-.94a3.93,3.93,0,0,0-1.38-1.51c-.56-.44-.76.71-.51,1.05Z"/><path class="cls-4" d="M12.38,22.6A18.7,18.7,0,0,1,24.32,10.48C30.76,8.23,37.07,9.5,43.2,12c.4.16.5-.7.22-.88C32.81,4.51,14.33,8.6,12,22.35c-.05.27.29.66.42.25Z"/><path class="cls-4" d="M6.62,32.62a6.23,6.23,0,0,0-1.76,4.76c.06.44.54.56.71.12a14,14,0,0,1,1.65-3.75c.31-.4-.13-1.68-.6-1.13Z"/><path class="cls-1" d="M31.59,48.51l.38-.28c.11-.08.06-.38-.1-.33l-.43.13c-.24.07-.1.66.15.48Z"/><path class="cls-1" d="M33.25,49.14a6.66,6.66,0,0,0,.81-.7c.09-.09.07-.49-.12-.39a7.67,7.67,0,0,0-.9.58c-.2.14,0,.71.21.51Z"/><path class="cls-1" d="M34.84,50.15a1.31,1.31,0,0,0,.73-.32c.12-.11.16-.54-.06-.58a1.1,1.1,0,0,0-.75.15c-.25.11-.23.82.08.75Z"/><path class="cls-1" d="M35.7,47.32c0-.11.18-.21.26-.27a.36.36,0,0,0,0-.49c-.49-.3-.77.22-.76.66s.48.55.51.1Z"/><path class="cls-1" d="M37.33,48.86a.69.69,0,0,0,.3-.14.37.37,0,0,0,0-.51.6.6,0,0,0-.24-.12c-.46-.1-.37.84-.05.77Z"/><path class="cls-1" d="M39.2,45.14c.33,0,.55.06.76-.22a.38.38,0,0,0,0-.41c-.21-.28-.44-.23-.77-.21s-.35.82,0,.84Z"/><path class="cls-1" d="M40.1,41.75a1.24,1.24,0,0,0,.5.38c.26.09.31-.35.24-.51a2.32,2.32,0,0,0-.47-.61c-.15-.14-.32,0-.38.17a.54.54,0,0,0,.11.57Z"/><path class="cls-1" d="M43.73,39.24a.62.62,0,0,0,.87-.4c0-.15,0-.6-.26-.49s-.29.19-.49.13c-.37-.11-.42.64-.12.76Z"/><path class="cls-1" d="M29.4,22.52a1.33,1.33,0,0,0-.23.75c0,.15.12.44.32.35a.87.87,0,0,0,.41-.54c.11-.31-.18-1-.5-.56Z"/><path class="cls-1" d="M32.8,22.38a4.67,4.67,0,0,0,.91.61c.33.16.3-.52.16-.66a4.79,4.79,0,0,0-.81-.68c-.38-.26-.52.52-.26.73Z"/><path class="cls-1" d="M30.86,22.84a1,1,0,0,0,.06.34.15.15,0,0,0,.29,0,.82.82,0,0,0,.06-.34c0-.39-.43-.38-.41,0Z"/><path class="cls-1" d="M28.62,24.56a1.18,1.18,0,0,0-.25.4c-.08.19,0,.56.26.49a.51.51,0,0,0,.29-.17c.26-.25,0-1-.3-.72Z"/><path class="cls-1" d="M27.45,24a2,2,0,0,0-.91.74c-.08.14-.09.54.16.53s.68-.39.94-.64.1-.8-.19-.63Z"/><path class="cls-1" d="M30.45,25.71a1.22,1.22,0,0,0,.68-.06c.22-.1.19-.53,0-.63a1.13,1.13,0,0,0-.68-.06c-.34.05-.31.7,0,.75Z"/><path class="cls-1" d="M33.9,24.29a1.91,1.91,0,0,0-.49.4c-.13.18-.07.57.17.6a1,1,0,0,0,.5-.13c.4-.15.15-1.07-.18-.87Z"/><path class="cls-1" d="M36,23.05l.06.15c0,.1.16.26.29.24h.1c.22,0,.27-.31.23-.5a.59.59,0,0,1,0-.13.43.43,0,0,0-.33-.37h-.11c-.28,0-.27.48-.22.63Z"/><path class="cls-1" d="M40.18,26a2.14,2.14,0,0,0,.11,1c.08.17.24.15.31,0a2,2,0,0,0,.11-1c0-.49-.51-.47-.53,0Z"/><path class="cls-1" d="M44,29.25a1.44,1.44,0,0,0,.68-.06c.22-.07.19-.56,0-.63a1.42,1.42,0,0,0-.68,0c-.33,0-.31.71,0,.74Z"/><path class="cls-1" d="M42.93,25.72a.55.55,0,0,0-.32.14.45.45,0,0,0,0,.62.61.61,0,0,0,.34.14c.38.05.38-1,0-.9Z"/><path class="cls-1" d="M41.22,27.84a1,1,0,0,0,.07.38c.09.23.31.2.4,0a1,1,0,0,0,.06-.38c0-.5-.55-.49-.53,0Z"/><path class="cls-1" d="M46.76,31.63a4,4,0,0,0,.48.44c.3.21.37-.37.25-.54a3,3,0,0,0-.43-.52c-.28-.28-.47.42-.3.62Z"/><path class="cls-1" d="M46.26,36.68l-.18.25c-.11.16,0,.89.28.68l.22-.15c.48-.31,0-1.27-.32-.78Z"/><path class="cls-1" d="M15.34,43.47a1.2,1.2,0,0,0,.15.65.18.18,0,0,0,.31,0,1.06,1.06,0,0,0,.14-.65c0-.17-.09-.45-.31-.45s-.28.3-.29.46Z"/><path class="cls-1" d="M18.43,45.71a1.15,1.15,0,0,0,.67-.39.33.33,0,0,0-.08-.44,1,1,0,0,0-.75.09c-.29.12-.21.84.16.74Z"/><path class="cls-1" d="M19.64,46.6a.8.8,0,0,0-.26.43c-.05.18,0,.56.23.57a.4.4,0,0,0,.37-.18.65.65,0,0,0,.09-.66c-.07-.17-.26-.3-.43-.16Z"/><path class="cls-1" d="M14.69,41.35a2.56,2.56,0,0,0,.64-.32c.14-.11.1-.48-.1-.49a2.8,2.8,0,0,0-.69.13c-.28.08-.17.82.15.68Z"/><path class="cls-1" d="M16.28,46.77a.76.76,0,0,0,.47-.06.4.4,0,0,0,0-.65.75.75,0,0,0-.47-.06c-.35,0-.32.75,0,.77Z"/><path class="cls-1" d="M17.26,32.84a1.61,1.61,0,0,0,.08.79c.06.13.24.24.33.06a1.57,1.57,0,0,0,.1-.86c0-.48-.49-.46-.51,0Z"/><path class="cls-1" d="M16.48,31.12a.59.59,0,0,0,.46-.12c.13-.09.18-.37,0-.47a.62.62,0,0,0-.5-.14c-.33.05-.31.68,0,.73Z"/><path class="cls-1" d="M17.06,28.15c.24.11.48.28.73.14a.34.34,0,0,0,.07-.47c-.17-.27-.4-.29-.69-.37s-.38.58-.11.7Z"/><path class="cls-1" d="M16.44,24.09a3.85,3.85,0,0,0,.07.49c.06.26.29.24.35,0a2.63,2.63,0,0,0,.06-.39c0-.15,0-.43-.21-.46s-.28.22-.27.37Z"/><path class="cls-1" d="M56.31,32.53c.15.22.33.63.64.59.15,0,.2-.19.2-.31a1.5,1.5,0,0,0-.42-1,.24.24,0,0,0-.43,0,.65.65,0,0,0,0,.66Z"/><path class="cls-1" d="M55.4,34.64a1.48,1.48,0,0,0,.48.15c.27,0,.2-.47.09-.57a1.72,1.72,0,0,0-.45-.31c-.3-.17-.42.59-.12.73Z"/><path class="cls-1" d="M57,36.55a1.86,1.86,0,0,0,.7-.57c.08-.15.08-.55-.16-.54a1.36,1.36,0,0,0-.76.39c-.22.17-.09.91.22.72Z"/><path class="cls-1" d="M55.06,26.68a1.2,1.2,0,0,0,.55.45c.28.08.33-.36.26-.53a1.62,1.62,0,0,0-.48-.62c-.35-.29-.52.48-.33.7Z"/><path class="cls-1" d="M50.73,17.56a1.41,1.41,0,0,0,1,.36c.2,0,.22-.36.12-.49a1.76,1.76,0,0,0-.9-.59c-.35-.13-.41.58-.19.72Z"/><path class="cls-1" d="M53.46,20.87c.2.22.4.54.7.6s.3-.31.23-.49a2.14,2.14,0,0,0-.69-.78c-.14-.13-.29,0-.35.14a.51.51,0,0,0,.11.53Z"/><path class="cls-1" d="M54.55,24.06a.69.69,0,0,0,.49.14c.24,0,.25-.39.14-.56a1.06,1.06,0,0,0-.5-.36c-.37-.16-.4.62-.13.78Z"/><path class="cls-1" d="M56.68,27.42a2,2,0,0,0,.32.49c.19.2.32-.23.29-.36a2.33,2.33,0,0,0-.2-.52c-.21-.44-.58.07-.41.39Z"/><path class="cls-1" d="M45.33,12.94a1.69,1.69,0,0,0,.78.36c.23,0,.22-.41.13-.53a2.17,2.17,0,0,0-.73-.54c-.3-.16-.4.57-.18.71Z"/><path class="cls-1" d="M47.61,13.6a.83.83,0,0,0,.29.16c.24.08.29-.32.22-.47a1.38,1.38,0,0,0-.2-.33c-.32-.39-.62.38-.31.64Z"/><path class="cls-1" d="M7.34,37.5c.14.25.28.58.6.61.12,0,.17-.19.17-.28a1.6,1.6,0,0,0-.42-.9.21.21,0,0,0-.37,0,.54.54,0,0,0,0,.56Z"/><path class="cls-1" d="M8,40.43a.5.5,0,0,0,.41.25c.24,0,.22-.39.18-.52a.73.73,0,0,0-.27-.39c-.34-.28-.49.45-.32.66Z"/><path class="cls-1" d="M8.49,43a.75.75,0,0,0,.13.32c.06.07.18.14.26,0A.73.73,0,0,0,9,43c0-.18,0-.55-.29-.54s-.3.37-.26.55Z"/><path class="cls-1" d="M6.56,38.81a.57.57,0,0,0,.28.17c.24.07.29-.32.22-.47a1.4,1.4,0,0,0-.26-.39c-.26-.28-.5.45-.24.69Z"/><path class="cls-1" d="M17.88,55.45c-.07.33.07,1,.54.83.21-.09.17-.4.08-.56a.64.64,0,0,0-.08-.14c-.05-.09-.05-.06,0,.08.05-.43-.42-.75-.53-.21Z"/><path class="cls-1" d="M17.61,57.75c.18.11.33.24.54.21s.25-.4.13-.55a.91.91,0,0,0-.5-.33c-.31-.13-.38.54-.17.67Z"/><path class="cls-1" d="M20.37,56.79a.64.64,0,0,0,.49.15c.25,0,.27-.42.15-.59A1,1,0,0,0,20.5,56c-.4-.16-.4.64-.13.8Z"/><path class="cls-1" d="M41.7,58.67a.5.5,0,0,0,.32-.13A.41.41,0,0,0,42,58a.5.5,0,0,0-.32-.12c-.35,0-.34.85,0,.81Z"/><path class="cls-1" d="M42.62,56a1,1,0,0,0,.5-.36c.12-.18.06-.53-.17-.57a.72.72,0,0,0-.49.16c-.27.17-.21.93.16.77Z"/><path class="cls-1" d="M45.9,56.49a.94.94,0,0,0-.11-.32.16.16,0,0,0-.28,0,.72.72,0,0,0-.11.32c0,.17,0,.49.26.49s.27-.34.24-.5Z"/><path class="cls-1" d="M44.12,56.08a1.86,1.86,0,0,0,.44-.6c.07-.14,0-.46-.21-.4a1.07,1.07,0,0,0-.49.37c-.2.2,0,.91.26.63Z"/><path class="cls-1" d="M46.28,53.15a1.44,1.44,0,0,0,.17-.45c0-.12,0-.31-.18-.33a.34.34,0,0,0-.29.06c-.49.25,0,1.17.3.72Z"/><path class="cls-1" d="M48.26,54.14a1,1,0,0,0,.48-.42c.08-.14.1-.48-.11-.55a.74.74,0,0,0-.56.09c-.36.17-.18,1.09.19.88Z"/><path class="cls-1" d="M48.79,50.86a1.41,1.41,0,0,0,.19-.34c.08-.18,0-.59-.27-.51a.87.87,0,0,0-.3.16c-.35.26,0,1.15.38.69Z"/><path class="cls-1" d="M49.46,48.77a.77.77,0,0,0-.12-.33.17.17,0,0,0-.3,0,.65.65,0,0,0-.11.33c0,.18,0,.53.28.53s.27-.37.25-.54Z"/><path class="cls-1" d="M52.28,49.08a1,1,0,0,0,.27-.42c.05-.14,0-.63-.24-.58a.54.54,0,0,0-.36.19c-.29.28,0,1.17.33.81Z"/><path class="cls-1" d="M17.74,14.06a.94.94,0,0,0,.68,0,.44.44,0,0,0,0-.71,1,1,0,0,0-.69-.05c-.37.06-.33.75,0,.8Z"/><path class="cls-1" d="M20.24,12.42l.41-.08c.25-.05.32-.62.05-.68l-.41-.08c-.49-.09-.41.91-.05.84Z"/><path class="cls-1" d="M21.84,10.24a1.29,1.29,0,0,0,0,.19c.07.34.38.3.45,0a1.62,1.62,0,0,0,0-.19c0-.18,0-.54-.28-.54s-.29.37-.25.55Z"/><path class="cls-1" d="M11.35,25.07a1.26,1.26,0,0,0,.5.39c.27.09.33-.36.25-.53a2,2,0,0,0-.48-.6c-.15-.15-.33,0-.38.16a.56.56,0,0,0,.11.58Z"/><path class="cls-1" d="M12,27a1.06,1.06,0,0,0,.51-.37c.12-.18.06-.56-.18-.59a.73.73,0,0,0-.49.15c-.3.17-.21,1,.16.81Z"/><path class="cls-1" d="M14.54,19.91a1.39,1.39,0,0,0,.69.12c.26-.05.25-.45.09-.6a1.54,1.54,0,0,0-.66-.34c-.39-.12-.46.7-.12.82Z"/><path class="cls-1" d="M38.74,23.25a19.52,19.52,0,0,1,2.75,1.16c.14.07.17-.24.07-.31a7.89,7.89,0,0,0-2.77-1.2c-.17,0-.2.31,0,.35Z"/><path class="cls-1" d="M46.28,42.85s0,0,0,0,0,0,0,0Z"/><path class="cls-1" d="M44,46.32a9.52,9.52,0,0,0,2.77-4.42c0-.18-.15-.5-.27-.22A12.6,12.6,0,0,1,43.9,46c-.1.11,0,.48.14.33Z"/></svg>